<?xml version="1.0" encoding="utf-8"?>
<!-- Generator: Adobe Illustrator 24.0.2, SVG Export Plug-In . SVG Version: 6.00 Build 0)  -->
<svg version="1.1" id="Livello_1" xmlns="http://www.w3.org/2000/svg" xmlns:xlink="http://www.w3.org/1999/xlink" x="0px" y="0px"
	 viewBox="0 0 283.46 283.46" style="enable-background:new 0 0 283.46 283.46;" xml:space="preserve">
<style type="text/css">
	.st0{display:none;}
	.st1{display:inline;fill:#273F22;}
	.st2{display:inline;fill:#FFD002;}
	.st3{fill-rule:evenodd;clip-rule:evenodd;fill:#E6E9F0;stroke:#515151;stroke-width:2;stroke-miterlimit:8.3009;}
	.st4{fill:#0E592A;}
	.st5{fill:#F2C500;}
	
		.st6{fill-rule:evenodd;clip-rule:evenodd;fill:#F4D147;stroke:#AA8811;stroke-width:2;stroke-linecap:round;stroke-linejoin:round;}
	
		.st7{fill-rule:evenodd;clip-rule:evenodd;fill:#EAC108;stroke:#AA8811;stroke-width:2;stroke-linecap:round;stroke-linejoin:round;}
	.st8{fill-rule:evenodd;clip-rule:evenodd;fill:#F4D147;stroke:#AA8811;stroke-width:2;}
	.st9{fill-rule:evenodd;clip-rule:evenodd;fill:#EAC108;stroke:#AA8811;stroke-width:2;}
	.st10{fill:none;stroke:#AA8811;stroke-width:2;stroke-linecap:round;stroke-linejoin:round;}
	.st11{fill-rule:evenodd;clip-rule:evenodd;fill:#F2C500;}
	.st12{fill-rule:evenodd;clip-rule:evenodd;fill:#F2C500;stroke:#AA8811;stroke-width:2;}
	.st13{fill:#F2C500;stroke:#AA8811;stroke-width:2;stroke-linecap:round;stroke-linejoin:round;}
	.st14{fill:#F2C500;stroke:#AA8811;stroke-width:2;}
	.st15{fill-rule:evenodd;clip-rule:evenodd;fill:#FFFFFF;stroke:#515151;stroke-width:2;stroke-miterlimit:8.3009;}
	.st16{fill:#515151;}
	.st17{fill:#F2C500;stroke:#A98812;}
</style>
<g id="Cornice" class="st0">
	<path class="st1" d="M120.89,273.64c-2.17,0-4.29-2.02-8.69-8.3c-4.33-6.17-8.73-8.93-14.27-8.93c-2.31,0-4.82,0.49-7.67,1.49
		c-3.54,1.24-7.14,2.39-9.53,2.39c-3.03,0-4.47-1.6-7.06-11.05c-2.64-9.66-8.18-13.9-18.54-14.18c-6.23-0.17-10.11-0.38-11.48-1.85
		c-1.39-1.48-1.35-5.53-1.12-12.02c0.35-9.82-3.42-15.41-12.58-18.7c-6.34-2.27-9.72-3.79-10.63-5.81
		c-0.91-2.03,0.23-5.63,2.8-11.97c3.54-8.74,1.93-15.03-5.36-21.03c-5.85-4.82-8.49-7.34-8.68-9.54c-0.18-2.15,2-5.1,6.65-10.49
		c6.14-7.13,6.59-13.62,1.48-21.7c-3.89-6.16-5.54-9.27-5.04-11.37c0.51-2.14,3.64-4.32,10.02-8.12c4.55-2.71,7.19-5.73,8.33-9.5
		C32.5,83.06,41.53,68.9,49.63,61.4c3.16-2.92,4.83-7.12,5.27-13.22c0.76-10.54,2.1-11.69,7.08-11.69c1.56,0,3.57,0.18,6.31,0.58
		c1.66,0.24,3.23,0.36,4.66,0.36c8.39,0,13.79-4.02,17.52-13.04c2.93-7.08,4.78-8.47,6.99-8.47c1.78,0,4.31,0.91,8.19,2.94
		c4.37,2.3,7.98,3.36,11.35,3.36c1.43,0,2.84-0.2,4.19-0.6c5-1.48,12.04-2.32,19.31-2.32c6.65,0,12.81,0.7,17.36,1.96
		c1.3,0.36,2.65,0.54,4.01,0.54c3.27,0,6.81-1.04,10.83-3.19c4.66-2.49,7.32-3.51,9.18-3.51c2.5,0,4.23,2.12,7.41,9.09
		c3.81,8.34,8.59,11.9,16.01,11.9c1.56,0,3.21-0.16,5.04-0.49c3.63-0.64,6.1-0.94,7.78-0.94c1.94,0,2.71,0.39,3.59,0.94
		c2.62,1.65,3.04,6.69,2.93,10.63c0,0.06,0,0.12,0,0.18c0.31,5.11,1.99,9.32,4.85,12.17c2.99,2.99,6.36,4.59,11.63,5.53
		c11.03,1.98,11.53,2.45,10.73,10.08c-0.31,2.99-1.02,5.92-1.78,8.92c-2.22,8.77,4.83,14.09,11.22,17.74
		c5.61,3.21,7.87,5.15,8.36,7.16c0.48,1.96-0.67,4.82-3.95,9.87c-5.75,8.85-5.17,15.99,1.93,23.87c4.13,4.58,6.48,7.66,6.29,9.9
		c-0.19,2.18-2.94,4.76-7.32,8.21c-8.53,6.72-10.09,13.71-5.38,24.13c2.49,5.51,3.17,8.36,2.39,10.15c-0.76,1.77-3.37,3.29-9,5.24
		c-10.85,3.76-14.92,10.25-13.59,21.71c0.63,5.45,0.33,8.41-0.98,9.9c-1.38,1.55-4.43,2.2-10.54,2.22
		c-10.88,0.04-16.6,4.41-19.13,14.6c-2.35,9.47-3.7,10.98-6.86,10.98c-2.19,0-5.32-0.81-9.66-2.12c-2.68-0.81-5.03-1.2-7.2-1.2
		c-5.76,0-10.24,2.74-14.12,8.62c-3.99,6.05-6.33,8.94-8.81,8.94c-2.25,0-5.52-2.05-10.41-5.59c-3.92-2.84-7.38-4.16-10.89-4.16
		c-3.68,0-7.35,1.49-11.54,4.7C126.25,271.57,123.12,273.64,120.89,273.64z"/>
	<path class="st2" d="M181.88,17.11c1.22,0,2.58,1.32,5.59,7.92c2.78,6.09,7.31,13.07,17.83,13.07c1.67,0,3.44-0.17,5.39-0.52
		c3.51-0.62,5.87-0.91,7.43-0.91c1.52,0,1.92,0.25,2.53,0.64c0.52,0.33,2.19,1.93,2,8.88c0,0.12,0,0.24,0.01,0.36
		c0.35,5.61,2.22,10.26,5.43,13.47c3.31,3.3,6.98,5.06,12.69,6.08c3.04,0.54,7.63,1.37,8.78,2.43c0.54,0.5,0.65,2.29,0.31,5.47
		c-0.3,2.86-0.99,5.72-1.73,8.64c-2.88,11.37,7.67,17.4,12.17,19.97c3.23,1.85,7,4.19,7.41,5.89c0.42,1.73-1.9,5.57-3.68,8.31
		c-6.25,9.62-5.6,17.73,2.13,26.3c1.93,2.14,5.93,6.58,5.78,8.39c-0.15,1.76-4.65,5.3-6.56,6.81c-9.28,7.31-11.07,15.24-5.96,26.52
		c0.77,1.7,3.1,6.85,2.38,8.53c-0.72,1.68-6.06,3.54-7.82,4.14c-11.76,4.08-16.36,11.42-14.93,23.82c0.53,4.57,0.36,7.38-0.49,8.34
		c-1.35,1.52-7.15,1.54-9.06,1.55c-11.81,0.05-18.31,5.02-21.06,16.12c-2.34,9.46-3.42,9.46-4.92,9.46c-1.94,0-5.04-0.81-9.09-2.03
		c-2.87-0.86-5.41-1.28-7.78-1.28c-6.4,0-11.57,3.11-15.79,9.52c-2.56,3.89-5.44,8.04-7.14,8.04c-2.04,0-6.72-3.39-9.23-5.21
		c-4.22-3.05-8.16-4.54-12.06-4.54c-4.15,0-8.2,1.62-12.75,5.11c-3.54,2.71-7.07,5.23-8.81,5.23c-1.61,0-4.34-3.58-7.05-7.45
		c-2.94-4.2-7.79-9.78-15.9-9.78c-2.54,0-5.27,0.52-8.33,1.6c-3.21,1.12-6.77,2.27-8.87,2.27c-1.4,0-2.51,0-5.13-9.58
		c-2.88-10.52-9.17-15.34-20.41-15.66c-3.65-0.1-9.17-0.25-10.08-1.22c-0.92-0.98-0.73-6.53-0.58-10.58
		c0.38-10.7-3.91-17.07-13.91-20.65c-3.06-1.1-8.75-3.14-9.47-4.74c-0.73-1.63,1.58-7.34,2.83-10.41
		c3.87-9.56,2.04-16.75-5.94-23.32c-3.11-2.56-7.81-6.43-7.96-8.17c-0.14-1.69,3.66-6.1,6.17-9.02c6.73-7.81,7.24-15.23,1.66-24.07
		c-2.06-3.26-5.18-8.2-4.79-9.83c0.41-1.7,5.63-4.81,9.09-6.87c4.93-2.94,7.95-6.42,9.23-10.64c2.9-9.61,11.67-23.36,19.56-30.66
		c3.55-3.29,5.43-7.91,5.9-14.55c0.71-9.83,1.64-9.83,5.09-9.83c1.46,0,3.38,0.18,6.03,0.56c1.75,0.25,3.42,0.38,4.95,0.38
		c9.19,0,15.34-4.54,19.37-14.28c2.99-7.23,4.39-7.23,5.14-7.23c1.87,0,5.04,1.55,7.26,2.72c4.67,2.45,8.57,3.59,12.28,3.59
		c1.62,0,3.22-0.23,4.76-0.68c4.82-1.42,11.65-2.24,18.75-2.24c6.47,0,12.45,0.67,16.83,1.89c1.47,0.41,3,0.62,4.55,0.62
		c3.61,0,7.46-1.12,11.77-3.42C176.5,18.86,180.01,17.11,181.88,17.11 M181.88,13.11c-2.46,0-5.59,1.32-10.12,3.74
		c-3.64,1.94-6.86,2.95-9.89,2.95c-1.19,0-2.34-0.16-3.48-0.47c-4.91-1.36-11.37-2.03-17.9-2.03c-7.2,0-14.49,0.81-19.88,2.4
		c-1.19,0.35-2.39,0.52-3.62,0.52c-3.2,0-6.6-1.13-10.42-3.14c-3.92-2.05-6.8-3.17-9.12-3.17c-3.78,0-6.05,2.97-8.83,9.7
		c-3.38,8.16-8,11.81-15.67,11.81c-1.36,0-2.82-0.11-4.38-0.34c-2.63-0.38-4.8-0.6-6.59-0.6c-6.94,0-8.34,3.29-9.08,13.54
		c-0.38,5.29-1.72,9.2-4.63,11.9c-8.1,7.5-17.47,21.87-20.67,32.44c-0.98,3.25-3.34,5.92-7.44,8.36
		c-13.48,8.03-13.77,9.41-5.64,22.27c4.55,7.21,4.34,12.78-1.31,19.33c-9.95,11.54-9.79,12.95,2.28,22.89
		c6.57,5.41,8.02,10.73,4.78,18.74c-5.58,13.78-4.84,15.46,9.01,20.41c8.45,3.03,11.57,7.92,11.26,16.74
		c-0.53,14.9-0.01,15.53,14.55,15.94c9.18,0.26,14.19,3.68,16.66,12.71c2.45,8.97,4.19,12.52,8.99,12.52c2.44,0,5.67-0.92,10.19-2.5
		c2.62-0.92,4.92-1.37,7.01-1.37c5.1,0,8.88,2.73,12.63,8.07c4.36,6.22,7.01,9.15,10.33,9.15c2.8,0,6.07-2.09,11.24-6.05
		c3.67-2.81,6.96-4.29,10.32-4.29c3.06,0,6.18,1.22,9.71,3.78c5.39,3.9,8.77,5.97,11.58,5.97c3.46,0,6.06-3.13,10.48-9.84
		c3.56-5.41,7.51-7.72,12.45-7.72c2.03,0,4.22,0.39,6.62,1.11c4.55,1.37,7.8,2.2,10.24,2.2c4.91,0,6.54-3.37,8.8-12.5
		c2.42-9.76,7.76-13.04,17.19-13.08c12.32-0.05,14.88-2.47,13.51-14.35c-1.21-10.5,2.31-16.13,12.26-19.59
		c11.71-4.06,12.86-6.85,7.77-18.11c-4.06-8.97-3.43-15.25,4.79-21.73c10.56-8.31,10.58-10.71,1.28-21.02
		c-6.49-7.19-7.07-13.23-1.74-21.44c6.93-10.67,5.91-13.56-5.1-19.86c-7.02-4.01-12.05-8.52-10.28-15.52
		c0.77-3.04,1.5-6.09,1.83-9.2c0.97-9.24-1.07-10.23-12.37-12.26c-5.4-0.97-8.16-2.58-10.57-4.98c-1.41-1.4-3.88-4.55-4.27-10.88
		c0.22-8.02-1.83-11.1-3.87-12.38c-1.23-0.77-2.37-1.25-4.66-1.25c-1.8,0-4.31,0.3-8.13,0.98c-1.7,0.3-3.26,0.45-4.69,0.45
		c-6.92,0-10.91-3.54-14.19-10.73C187.86,16.25,185.67,13.11,181.88,13.11L181.88,13.11z"/>
</g>
<path id="path2435_2_" class="st3" d="M15.19,225c0,1.22-2.29,8.91-5.35,12.02c-9.93,17.8,24.63-0.27,30.27,11.36
	c0.52,13.28,10.6-16.63,0.17-21.08C30.36,226.52,20.28,225.7,15.19,225z"/>
<path id="path12409_2_" class="st3" d="M262.83,224.08c0,1.22,2.29,8.91,5.35,12.02c9.93,17.8-24.63-0.27-30.27,11.36
	c-0.52,13.28-10.6-16.63-0.17-21.08C247.67,225.59,257.75,224.78,262.83,224.08z"/>
<g>
	<path class="st4" d="M144.37,276.76c-34.44,0-68.98-14.92-94.75-40.94c-25.73-25.99-39.72-59.39-39.39-94.05
		c0.32-33.31,14.3-66.65,38.35-91.46c25.04-25.84,58.12-40.07,93.15-40.07c34.86,0,67.8,14.1,92.76,39.7
		c24.07,24.7,38.2,58.18,38.75,91.85c0.52,31.81-10.76,63.13-31.77,88.19c-20.93,24.97-49.33,41.15-79.96,45.56
		C155.86,276.35,150.09,276.76,144.37,276.76z"/>
	<path class="st5" d="M141.73,13.73c33.91,0,65.96,13.73,90.25,38.65c11.6,11.9,20.79,25.67,27.3,40.93
		c6.66,15.59,10.18,31.92,10.45,48.54c0.5,30.97-10.49,61.47-30.95,85.88c-20.38,24.31-48,40.05-77.78,44.34
		c-5.48,0.79-11.08,1.19-16.63,1.19c-33.52,0-67.14-14.55-92.26-39.91c-12.1-12.22-21.59-26.21-28.21-41.59
		c-6.91-16.06-10.33-32.87-10.16-49.97c0.31-32.42,13.93-64.89,37.36-89.06C75.47,27.58,107.66,13.73,141.73,13.73 M141.73,6.73
		c-75.78,0-134.32,64.69-135,135C6,217.09,71.92,280.26,144.37,280.26c5.84,0,11.73-0.41,17.63-1.26
		c64.97-9.35,115.83-69.62,114.73-137.27C275.57,70.42,216.92,6.73,141.73,6.73L141.73,6.73z"/>
</g>
<g id="svg3194">
</g>
<g id="Tosone_1_">
	<g>
		<g id="g3188-2-1-8-8-0">
			<path id="path2400-2-8-6-2-8" class="st6" d="M128.76,172.97c-0.74,10.27,1.69,17.98-2.62,31.13c0.37,3.82,0.1,4.12,0,5.36
				c2.28-0.31,2.81-0.81,2.59-1.58l0.31,1.94c1.54,0.01,3.66-0.58,4.97-3.64c-1.74-2.36-1.52-4.73-1.31-7.09l2.25,0.17
				c-1.92-11.88,2.5-15.19,2.44-29.74C134.45,170.24,130.23,170.7,128.76,172.97L128.76,172.97z"/>
			<path id="path2402-7-2-8-4-1" class="st7" d="M126.27,204.22c2.35-0.98,4.91-0.18,6.37-0.86"/>
			<path id="path3186-0-9-1-5-8" class="st7" d="M128.76,178.67c2,0.7,2.76-0.45,3.02-2.68"/>
		</g>
		<g id="g3193-3-6-4-5-0" transform="matrix(0.9989184,4.649789e-2,-4.649789e-2,0.9989184,18.159581,-26.789246)">
			<path id="path3195-1-8-7-1-6" class="st6" d="M110.4,192.31c-0.78,10.27,1.62,17.97-2.74,31.14c0.35,3.82,0.08,4.12-0.02,5.36
				c2.28-0.31,2.81-0.82,2.6-1.59l0.3,1.93c1.54,0,3.66-0.6,4.98-3.66c-1.73-2.36-1.51-4.72-1.28-7.09l2.25,0.16
				c-1.88-11.87,2.56-15.21,2.55-29.76C116.1,189.56,111.89,190.03,110.4,192.31L110.4,192.31z"/>
			<path id="path3197-3-9-6-7-3" class="st7" d="M107.8,223.57c2.36-0.99,4.91-0.2,6.37-0.89"/>
			<path id="path3199-3-8-4-1-4" class="st7" d="M110.39,198.01c2,0.69,2.76-0.46,3.03-2.69"/>
		</g>
		<path id="path3395-7-1-9-1-5" class="st8" d="M140.93,73.04c-2.03,0.28-4.3,1.21-6.18,0.52c-0.31-0.12-0.62-0.23-0.94-0.35
			c-1.58-0.58-3.9,1.58-5.24,2.07c-1.73,0.64-4.84,1.73-6.56,1.73c-2.47,0-3.96,2.15-6.37,2.59c-0.62,0.11-1.25,0.12-1.87,0.17
			c-1.23,0.11-2.44,3.04-4.68,3.46c-1.87,0.34-2.65,3-3.37,4.67c-0.85,1.97-3.68,2.3-4.87,4.49c-0.14,0.26-0.37,0.46-0.56,0.69
			c-1.16,1.43-3.65,3.2-3.18,5.36c0.43,1.96-2.55,3.56-3.75,4.67c-1.71,1.57-3.12,3.26-2.62,5.53c0.47,2.18-3.37,3.96-3.37,5.88
			c0,2.59-0.75,2.89-0.75,5.19c0,1.89,0.19,3.83,0.19,5.88c0,1.96-0.37,3.99-0.37,6.05c0,2.33-0.95,4.89,0,7.09
			c0.91,2.1,2.44,1.99,2.44,4.84c0,2.37,2.58,5.57,4.68,6.22c3.25,1,5.16,4.63,8.8,5.19c6.85,1.05,9.9,3.99,13.49,10.2
			c1.23,2.27,1.39,4.07,3.93,5.01c2.43,0.9,3.47,1.97,5.62,2.77c2.21,0.82,4.54,1.35,6.74-0.17c0,0,0.66,0.25,1.31-0.35
			c1.93-1.78,8.05,1.44,8.05-2.77c0-2.15,0.94-3.76,0.94-5.53c0-1.89,1.73-1.7,0.75-3.98c-0.43-1,1.44-5.06,1.87-6.05
			c0.57-1.33,0.69-4.71,0.19-5.88c-0.78-1.8-0.94-4.07-0.94-5.7c0-1.89,0.89-4.47,1.31-6.4c0.2-0.91-1.49-2.11-1.12-3.8
			c0.06-0.29,0.12-0.58,0.19-0.86c0.06-0.29,0.12-0.58,0.19-0.86c0.46-2.13,0-2.98,0-5.36c0-1.82-0.69-4.61-0.37-6.05
			c0.44-2.03,1.05-4.15,1.5-6.22c0.42-1.92,2.25-3.27,2.25-5.36c0-0.29,0-0.58,0-0.86c0-2.11-0.07-4.19,0.37-6.22
			c0.52-2.42-0.19-3.43-0.19-5.7c0-2.01-0.76-4.52-1.5-6.22c-0.85-1.96-0.81-4.56-1.69-6.57c-0.85-1.97-0.91-4.27-1.87-6.05
			C142.63,74.63,142.15,74.46,140.93,73.04L140.93,73.04z"/>
		<g id="g3325-0-6-8-5-6">
			<path id="path3301-9-3-7-27-4" class="st8" d="M184.41,99.76c-0.26,0.84,1.67,0.85,2.43,1.38c1.73,1.2,3.13,2.62,3.74,4.32
				c0.5,1.37,2.74,4.46,3.74,5.7c1.46,1.79,0.16,2.06,2.43,3.11c1.78,0.82,1.93,4.26,1.31,5.7c-0.78,1.8,0.28,3,0.75,5.18
				c0.65,2.98,1.31,3.02,1.31,4.49c0,5.67,2.72,3.73,0,7.08c-0.52,0.64,2.4,5.22,2.62,6.21c0.31,1.42-0.65,1.97,1.12,3.28v2.07
				c0.1,0.07,0,0.23,0,0.35c1.12,0.83-1.07,5.22-1.5,5.87c-1.56,2.4-1.2,1.47-2.43,4.32c-0.14,0.31-0.37,0.58-0.56,0.86
				c-0.86,1.32,0.92,5.24-3.93,3.45c-0.31-0.12-0.62-0.23-0.94-0.35c-1.7-0.63-3.07,1.85-5.05,2.76c-2.17,1-4.46-2.08-4.68-3.45
				c-0.32-2.08-1.12-3.9-1.12-6.04c0-3.09-1.68-5.88-1.68-8.98c0-5.1-0.99-8.87-2.06-13.81c-0.56-2.57-0.75-6.69-0.75-9.32
				c0-2.63-0.87-3.99-2.06-6.73c-0.64-1.48,0.29-4.46,0.56-6.21c0.34-2.18,0.96-4.19,1.87-5.87c0.89-1.64,2.49-3.5,3.93-4.83
				C183.73,100.04,184.1,99.93,184.41,99.76z"/>
			<path id="path3307-5-7-3-6-9" class="st7" d="M191.7,112.88c1.01-1.08,1.47,2.21,1.82,3.01c0.08,0.32,0.16,0.64,0.23,0.96"/>
			<path id="path3309-5-5-8-14-2" class="st7" d="M195.26,120.64c1.47,0.93,1.03,2.88,1.49,4.29c1.04,1.53-0.92,2.62-1.68,3.83"/>
			<path id="path3311-8-4-6-2-0" class="st7" d="M198.44,130.31c0.88,1.95-0.98,3.82-1.31,5.7"/>
			<path id="path3313-3-1-2-3-6" class="st7" d="M198.06,145.67c0.4,1.55-1.33,2.8-1.35,4.35c-0.23,0.33-0.59,0.55-0.89,0.83"/>
			<path id="path3315-7-0-8-2-4" class="st7" d="M195.82,156.72c-0.88,1.05-2.47,1.5-3.74,2.07"/>
			<path id="path3317-8-1-0-2-3" class="st7" d="M201.62,149.64c-0.26,1.6-1.95,2.64-2.92,3.86c-0.32,0.14-0.67,0.19-1.01,0.28"/>
		</g>
		<g id="g3209-3-2-9-1-0" transform="matrix(0.9921093,0.1253764,-0.1253764,0.9921093,122.49883,-59.889266)">
			<path id="path3211-7-2-8-6-5" class="st6" d="M73.04,226.31c-0.85,10.29,1.5,17.98-2.94,31.19c0.33,3.82,0.06,4.12-0.06,5.37
				c2.28-0.33,2.81-0.84,2.6-1.61l0.29,1.93c1.54-0.01,3.66-0.62,5-3.69c-1.71-2.35-1.47-4.72-1.24-7.09l2.24,0.15
				c-1.8-11.87,2.65-15.24,2.74-29.81C78.76,223.52,74.54,224.02,73.04,226.31L73.04,226.31z"/>
			<path id="path3213-9-8-0-8-6" class="st6" d="M70.24,257.63c2.36-1,4.91-0.23,6.37-0.93"/>
			<path id="path3215-3-5-4-5-1" class="st7" d="M72.99,232.02c1.99,0.68,2.76-0.48,3.04-2.71"/>
		</g>
		<path id="path3269-9-4-9-7-8" class="st7" d="M147.18,131c0.49,0.9-0.75,1.93-0.75,2.93c0,2.04,0.51,4.23,0.94,6.21
			c0.44,2.03,0.81,4.01,1.12,6.04c0.33,2.13,0.77,3.87,1.31,5.87c0.49,1.8,2.16,3.38,2.99,4.66c1.05,1.62,1.54,4.12,2.06,6.04
			c0.51,1.88,1.7,4.29,3.18,4.83c1.93,0.71,1.93,2.29,4.49,2.76c1.25,0.23,3.94,3.29,4.86,4.14c1,0.92,2.83,1.38,5.42,1.38
			c2.65,0,4.33-1.44,5.05-3.11c1.4-3.24,3.78-2.97,2.81-6.56c-0.19-0.71-0.5-1.38-0.75-2.07c-0.88-2.44-1.76-6.53-4.3-8.29
			c-2.44-1.69-6.36-9.11-6.36-12.26c0-0.16-2.58-9.67-3.18-10.36c-1.73-1.99-4.25-2.7-6.55-3.97c-2.22-1.23-4.2-1.38-6.73-1.38
			C149.64,127.89,148.42,128.33,147.18,131L147.18,131z"/>
		<path id="path3203-8-7-8-18-9" class="st6" d="M171.45,211.8c1.53,0.12,3.7-0.32,5.27-3.27c-1.53-2.48-1.11-4.82-0.7-7.16
			l3.35,0.34c-2.77-14.22,5.85-16,3.29-29.13c-2.98,0.51-6.66,0.31-8.33,2.47l0,0c-1.62,10.18,0.14,18.04-5.28,30.84
			c0.04,3.84-0.25,4.11-0.46,5.34c2.3-0.14,2.87-0.61,2.72-1.39L171.45,211.8"/>
		<path id="path3205-2-7-2-9-4" class="st7" d="M169.18,206.02c2.43-0.8,4.91,0.18,6.43-0.4"/>
		<path id="path3207-8-3-8-2-4" class="st7" d="M173.85,180.74c1.94,0.84,2.79-0.25,3.24-2.45"/>
		<path id="path3217-0-4-4-7-4" class="st6" d="M147.74,130.48c-0.03,1.32,2.1,2.58,1.12,4.83c-0.84,1.95,1.08,4.49,0.94,5.01
			c-0.33,1.21,1.05,4.97,1.68,5.7c0.96,1.11,1.85,3.72,2.24,5.18c0.82,3.03,1.12,0.71,1.12,5.01c0,2.72,0.79,3.47,2.99,4.49
			c1.32,0.61,2.74,5.92,3.37,7.08c0.4,0.73,3.21,0.77,4.3,3.28c0.75,1.72,4.31,1.21,5.42,1.73c1.49,0.69,3.58,1.42,5.8,2.24
			c2.54,0.94,4.28,1.77,6.55,0.52c2.88-1.59,2.88-4.09,4.12-4.66c1.06-0.49-2.29-3.58-0.75-5.01c1.61-1.48,4.13-2.85,2.24-5.18
			c-1.44-1.77-0.6-3.14,0-5.35c0.84-3.12,1.55-2.7,0.94-5.52c-0.71-3.3-0.96-0.82,0.75-3.97c2.24-4.14-0.19-3.06-0.19-6.21
			c0-1.84,2-5.76,2.81-7.25c0.18-0.33-2.35-4.06-1.5-6.04c0.96-2.21,0.37-3.9,0.37-6.04c0-2.43-2.31-3.54-1.5-6.56
			c0.61-2.24-0.35-4.47-1.68-5.7c-0.62-0.58-3.55-4.87-3.55-5.18c0-0.4,0-0.81,0-1.21c0-1.84-0.98-5.17-2.24-6.04
			c-1.81-1.26-2.31-3.51-4.12-5.18c-1.53-1.41-3.27-3.19-4.68-4.49c-2.18-2.02-0.85-2.75-4.3-4.66c-2.22-1.23-4.72-1.88-6.55-3.28
			c-0.51-0.39-3.59-0.55-5.24-2.07c-2.01-1.86-4.53,1.03-6.17-2.24c-0.79-1.57-3.25,0.66-4.3,0c-1.06-0.66-2.55,0.42-3.74,0.86
			l4.68,28.14l-3.37,24.68L147.74,130.48L147.74,130.48z"/>
		<path id="path3221-1-4-7-9-3" class="st7" d="M149.99,76.11c1.39,0.67,4.22,1.4,3.55,2.93"/>
		<path id="path3223-8-9-9-5-4" class="st7" d="M157.1,80.6c1.18-0.11,4.47,0.27,4.68,1.04c0.08,0.3,0.8,0.99,0.94,1.21"/>
		<path id="path3225-4-1-4-4-6" class="st7" d="M163.46,85.95c0.33,1.22,2.77,0.66,3.74,1.55c0.67,0.62,0.56,1.01,0.56,1.73"/>
		<path id="path3227-8-8-0-3-9" class="st7" d="M168.88,85.09c1.72,1.59,4.3,0.34,5.42,2.93"/>
		<path id="path3229-6-3-7-1-5" class="st7" d="M181.79,94.41c0.24,0.54-2.88-0.94-5.42,0"/>
		<path id="path3231-0-8-4-2-3" class="st7" d="M172.44,89.57c-1.28,0.47,1.31,2.35,1.31,3.62c0,2.56,1.26,1.77,0.94,3.28"/>
		<path id="path3233-9-7-8-3-4" class="st7" d="M179.73,97.51c0,1.1,2.09,1.26,2.62,2.24c1.04,1.92,2.06,3.11,0.19,4.83"/>
		<path id="path3235-3-9-1-3-1" class="st7" d="M181.04,105.8c1.05,1.93,1.92,0.21,2.43,3.97"/>
		<path id="path3237-0-7-8-4-6" class="st7" d="M185.9,108.56c0.54,1,2.36,0.56,2.99,1.73"/>
		<path id="path3239-0-1-2-11-0" class="st7" d="M182.16,113.22c1.17,2.16,2.62,0.76,2.62,3.11c0,0.85-0.09,0.89-0.37,1.55"/>
		<path id="path3241-8-1-2-3-6" class="st7" d="M189.83,118.57c0,1.04-1.87-2.53-4.49-4.14"/>
		<path id="path3243-7-4-1-8-0" class="st7" d="M185.9,122.2c-0.02-0.01,3.42,0.43,4.12,3.62c0.05,0.23,0,0.46,0,0.69"/>
		<path id="path3245-6-3-4-7-9" class="st7" d="M186.84,125.99c0.42,1.94,0.43,2.54-1.5,4.32"/>
		<path id="path3247-35-5-6-4-0" class="st7" d="M186.84,132.73c0.24,1.1,1.57,3.62-0.94,5.35"/>
		<path id="path3249-6-2-6-27-8" class="st7" d="M182.72,137.04c0.24,1.1,2,2.02,0.56,3.8c-0.85,1.04-0.2,0.93-0.37,1.73"/>
		<path id="path3251-5-9-9-7-4" class="st7" d="M187.77,141.36c-0.32,0.39-0.71,3.88-1.68,5.01c-0.21,0.24-0.62,0.23-0.94,0.35"/>
		<path id="path3253-8-1-3-9-9" class="st7" d="M183.66,147.57c-0.26,0.3-0.84,3.63-1.68,4.66"/>
		<path id="path3255-3-5-8-3-6" class="st7" d="M184.97,154.47c-0.25,0.28-0.23,3.23-1.87,4.14"/>
		<path id="path3257-9-5-1-19-5" class="st7" d="M184.41,164.83c-0.02,0.03-1.55,1.55-3.18,1.55"/>
		<path id="path3259-4-6-3-8-4" class="st7" d="M182.16,169.14c-0.61,0.71-2.41,2.41-4.3,3.11"/>
		<path id="path3261-8-7-6-6-1" class="st7" d="M178.05,159.48c-0.74,0.86,0.16,2.3-0.37,3.28c-0.22,0.41-0.5,0.81-0.75,1.21
			c-0.22,0.36-0.5,0.69-0.75,1.04"/>
		<path id="path3263-3-9-4-5-6" class="st7" d="M170.38,165c-0.45,0.72-3.76-2.73-3.93-3.11"/>
		<path id="path3265-9-0-5-0-8" class="st7" d="M162.52,158.96c-0.86,1.4-3.39-4.44-3.55-4.83c-0.12-0.27,0-0.58,0-0.86"/>
		<path id="path3267-76-2-2-2-3" class="st7" d="M153.92,136.87c-0.14-0.33-0.29,1.36,1.5,4.66c0.31,0.58,1.5,0.04,2.06-0.35"/>
		<path id="path2396-4-3-2-8-6" class="st6" d="M138.06,72.48c1.99,0.21,3.05,1.85,6.37,0c12.78,15.59,7.29,52.34,3.25,59.68
			l-3.94-0.86c-0.25-1.18-0.43-2.38-2.62-3.11C148.51,106.67,144.26,80.63,138.06,72.48L138.06,72.48z"/>
		<path id="path3360-5-1-0-6-1" class="st6" d="M89.7,146.21c-0.59,8.45,4.26,10.36,6.18,14.6c1.92,4.25,3.54,11.97,9.27,15.86
			c2.5,0.96,4.88,1.77,5.44,0.34c2.16-0.19,3.07-1.07,3.59-2.17c0.71-1.76-0.22-4.29-0.74-6.62c-0.34-4.18,6.33-7.68,4.95-22.25
			l-2.6-8.9"/>
		<path id="path3362-8-9-1-0-7" class="st7" d="M101.97,153.81c-0.49,0.6-0.34,2.15,0.73,1.93c0.84-0.52,0.78-1.58,0.83-2.41
			c-0.01-1,0.17-2.11,1.07-2.77C104.2,150.65,101.98,153.01,101.97,153.81L101.97,153.81z"/>
		<path id="path3371-6-8-0-2-1" class="st7" d="M113.56,151.57c0.39,3.29-0.4,5.86-3.96,6.73"/>
		<path id="path3373-1-7-3-4-6" class="st7" d="M104.04,162.41c0.52,1.52,1.06,3,0.62,5.7"/>
		<path id="path3375-5-8-8-8-0" class="st7" d="M110.59,170.39c0.36,1.98,0.7,3.99,0.74,6.27"/>
		<path id="path3377-5-4-7-65-3" class="st7" d="M107.87,173.93c0.44,1.53,0.46,2.76-0.74,3.08"/>
		<path id="path3399-1-4-3-0-4" class="st9" d="M135.49,77.19c-0.18-0.32-3.8,0.57-4.68,1.38"/>
		<path id="path7617-9-4-3-9-8" class="st9" d="M124.26,79.96c-0.4-0.73-4.64,1.47-5.43,1.9"/>
		<path id="path3403-6-3-1-0-7" class="st9" d="M117.33,81.34c-1.27,0.7-2.91-0.21-3.75,1.73"/>
		<path id="path3405-4-5-4-0-0" class="st9" d="M110.4,87.22c-1.2,0.67-3.72,3.66-4.68,5.88"/>
		<path id="path3407-5-8-5-6-7" class="st9" d="M98.03,101.39c-0.73,1.69,2.29-3.81-0.94,1.56"/>
		<path id="path3409-4-0-6-13-3" class="st9" d="M95.97,105.54c-0.2,0.46-2.4,5.84-3.93,7.26"/>
		<path id="path3411-2-2-1-8-2" class="st9" d="M115.08,106.92c-0.5,1.14-1.5,3.4-1.5,5.7c0,2.18-0.56,4.17-0.56,6.57
			c0,1.53,0.44,4.72,1.5,5.7c0.23,0.21,0.94,5.47,0.94,5.7"/>
		<path id="path3413-5-9-2-93-1" class="st9" d="M116.95,111.41c1.1,1.02-0.49,2.91-0.19,4.32"/>
		<path id="path3415-3-4-1-4-1" class="st9" d="M118.82,120.92c0.03,0.03,0.83,3.08,1.31,3.98"/>
		<path id="path3417-2-9-9-4-0" class="st9" d="M138.49,123.69c0.36,0.33-2.3,5.58-3.18,6.4"/>
		<path id="path3419-6-8-1-6-4" class="st9" d="M140.93,136.31c0.24,0.22-0.62,0.23-0.94,0.35c-0.05,0.02,0.74,3.31,0,5.01
			c-0.12,0.27-0.5,0.35-0.75,0.52"/>
		<path id="path3421-8-3-8-0-2" class="st9" d="M140.18,147.02c-0.56,1.28,1.1,3.83-1.5,6.22c-0.31,0.29,0,0.81,0,1.21"/>
		<path id="path3423-2-5-0-6-8" class="st9" d="M142.43,155.15c-1.6,1.47-1.91,4.13-3.93,5.53"/>
		<path id="path3425-6-0-4-6-8" class="st9" d="M118.26,155.49c-0.6,0.56,0.34,4.01,0.75,5.53c0.78,2.87,1.69,2.26,1.69,5.19
			c0,2.55,3.44,3,3.93,4.84c0.41,1.51,1.75,1.59,2.81,2.07"/>
		<path id="path3427-6-4-7-1-0" class="st9" d="M122.94,156.87c0.46,1.69-2.51,3.81,0.75,5.01"/>
		<path id="path3429-3-3-7-8-4" class="st9" d="M122.2,147.19c0.42,0.16-0.6,4.45,1.87,5.88c0.32,0.18,0.6,0.97,0.75,1.21"/>
		<path id="path3431-9-5-4-4-9" class="st9" d="M131.37,168.63c2.35,1.35,4.06-1.86,4.68-3.28c0.27-0.62,0.3-1.13,0.56-1.73"/>
		<path id="path3433-4-2-1-9-5" class="st9" d="M139.99,165.86c0.19-0.44-1.35,1.63-2.25,3.28"/>
		<path id="path3379-5-5-1-63-1" class="st10" d="M99.21,134.23c3.72-6.45,8.31-11.85,18.54-10.5c8.54,3.07,11.85,8.5,7.54,17.34
			c-5.57,10.97-16.35,3.49-16.07-1.48c0.28-4.97,0.56-5.33,3.71-8.44c-4.61,2.44-6.49,5.97-7.29,9.58"/>
		<path id="path3381-6-7-9-78-2" class="st7" d="M112.94,131.03c7.33-1.99,7.26,2.56,6.8,5.13c-0.62,2.06-0.85,3.28-3.71,2.4
			c-1.06-2.11-0.76-5.54,2.97-5.7"/>
		<path id="path3383-2-7-8-8-6" class="st6" d="M97.48,131.72c0.82,0.02,2.48-0.68,3.83,0.57c1.2,1.11-0.21,1.52,1.85,2.28
			c0.08,0.03,0.62,2.32,0.62,3.42c0,1.67,0.78,1.77,1.11,3.31c0.04,0.19,0.08,0.38,0.12,0.57c0.06,0.28-1.73,2.58-2.6,2.74
			c-0.04,0.01-0.63,1.79-1.73,2.4c-1.28,0.71-1.99,2.71-3.09,2.97c-1.29,0.3-3.03,0.26-4.08,0.46c-1.33,0.25-3.15-0.43-4.7-0.23
			c-2.04,0.27-1.76-1.37-3.83-1.37c-0.74,0-3.09-2.13-3.09-3.31c0-1.18-2.47-1.85-2.47-4.22c0-2.66-0.77-3.85,1.24-5.7
			c1.71-1.58,1.58-3.77,2.1-5.7c0.02-0.09,2.58-1.67,3.09-3.08c0.81-2.25,3.14-1.58,3.59-3.65c0.04-0.19,0.08-0.38,0.12-0.57"/>
		<path id="path3385-5-7-1-2-4" class="st7" d="M97.61,135.14c0.3-1.37,1.36,1.94,1.36,2.51"/>
		<path id="path3387-3-4-0-9-4" class="st7" d="M100.08,138.79c0.01-0.04,0.37,0.6,0.37,1.14c0,0.5-1.48,1.97-1.61,2.17"/>
		<path id="path3389-5-4-3-1-1" class="st7" d="M99.09,144.84c0,0.68-2.24,1.94-3.46,2.4c-0.79,0.29-0.87,0.22-1.24-0.23"/>
		<path id="path3391-6-0-2-3-1" class="st7" d="M84.87,139.7c-1.28,0.47-0.3,2.6,0.99,3.19"/>
		<path id="path3393-6-4-5-5-0" class="st7" d="M87.22,126.7c0.93,0.43-0.78,1.79-0.99,2.74c-0.36,1.67,0.9,2.77,0.37,3.99"/>
		<g id="Tosone" transform="matrix(0.6627983,0,0,0.6123735,-68.51429,958.16173)">
			<g id="g3188-2-1-8-0-6-1">
				<path id="path2400-2-8-6-1-1-8" class="st11" d="M299.56-1283.57c-1.12,16.77,3.19,29.36-3.31,50.83
					c0.55,6.24-2.12,6.73-2.27,8.75c3.76-3.65,4.23-1.33,3.91-2.58l0.14,0.36c2.32,0.02,3.58,1.85,5.56-3.14
					c-2.62-3.86-0.03-7.72,0.29-11.58l0.48,0.28c-2.9-19.39,4.74-24.81,4.65-48.57C304.59-1288.02,301.79-1287.28,299.56-1283.57
					L299.56-1283.57z"/>
				<path id="path2402-7-2-8-2-5-8" class="st11" d="M294.2-1232.53c3.55-1.6,7.41-0.29,9.61-1.41"/>
				<path id="path3186-0-9-1-4-4-3" class="st11" d="M297.95-1274.25c3.02,1.14,4.16-0.74,4.55-4.37"/>
			</g>
			<g id="g3193-3-6-4-4-2-5" transform="matrix(0.9989184,4.649789e-2,-4.649789e-2,0.9989184,18.159581,-26.789246)">
				<path id="path3195-1-8-7-6-0-8" class="st11" d="M210.14-1272.05c-1.12,16.77,1.25,29.42-5.26,50.89
					c0.55,6.24-1.79,6.82-1.94,8.84c3.44-0.5,4.23-1.33,3.91-2.58l0.66,0.35c2.32,0.02,1.75,1.68,3.73-3.32
					c-2.62-3.86,0.21-9.59,0.53-13.45l1.5,1.42c-2.9-19.39,4.14-23.78,4.05-47.54C212.9-1276.23,212.37-1275.76,210.14-1272.05
					L210.14-1272.05z"/>
				<path id="path3197-3-9-6-3-9-9" class="st11" d="M203.15-1220.86c3.55-1.6,7.41-0.29,9.61-1.41"/>
				<path id="path3199-3-8-4-4-7-9" class="st11" d="M211.12-1262.78c3.02,1.14-0.05-0.54,0.35-4.17"/>
			</g>
			<path id="path3395-7-1-9-5-3-0" class="st11" d="M313.29-1436.04c-2.53,0.38-7.13,1.51-7.44,4.2c-0.39,3.34-0.78,1.14-1.17,0.99
				c-1.97-0.79-5.14,1.56-6.81,2.24c-2.16,0.87-5.77,1.18-7.91,1.18c-3.09,0-6.27-0.67-6.07,2.65c0.3,5.11,1.68,5.85-0.19,2.86
				c-2.5-3.98-6.35-0.42-6.64,2.66c-0.18,1.93-3.31,2.63-4.2,4.89c-1.07,2.68-7.18,3.68-4.2,4.65c4.65,1.52,2.24,4.91,0.1,1.52
				c-2.23-3.54-6.7,4.94-6.11,7.87c0.53,2.67-3.18,4.55-4.67,6.05c-2.13,2.14-5.22,5.01-4.61,8.1c0.59,2.96-3.4,3.93-3.4,6.53
				c0,3.52-1.74,3.92-1.74,7.05c0,2.57,0.23,4.91,0.23,7.7c0,2.66,0.32,10.17-1,9.1c-1.23-1-3.33,6.07-2.14,9.05
				c1.14,2.86,3.04,2.7,3.04,6.58c0,3.22,3.21,7.58,5.84,8.46c4.05,1.36,6.44,6.29,10.98,7.05c8.54,1.43,12.35,5.43,16.82,13.87
				c1.54,3.09,1.73,5.54,4.91,6.82c3.03,1.22,4.33,2.68,7.01,3.76c2.75,1.11,5.66,1.84,8.41-0.24c0,0,0.83,0.34,1.64-0.47
				c2.4-2.42,6.3-0.37,6.3-6.09c0-2.92,1.17-5.11,1.17-7.52c0-2.58,5.04-1.09,2.54-3.07c-4.29-3.4,0.19-7.75,0.73-9.1
				c0.72-1.8,0.86-5.53,0.23-7.12c-0.97-2.44-0.1-5.53-0.1-7.76c0-2.57,3.79-6.07,4.31-8.7c0.25-1.24-1.86-2.86-1.4-5.17
				c0.08-0.39,0.16-0.78,0.23-1.18c0.08-0.39-2.25-0.78-2.18-1.18c0.58-2.9-0.27-4.05-0.27-7.29c0-2.47,0.75-6.27,1.14-8.23
				c0.55-2.76,0.24-5.64,0.8-8.46c0.52-2.61,2.72-6.41,0.13-6.7c-3.48-0.39-3.21-2.53,0.27-3.22c2.59-0.51-2.49-1.91-1.94-4.67
				c0.65-3.28,0.57-6.41,0.57-9.51c0-2.74-1.48-6.73-2.4-9.04c-1.06-2.66-0.48-6.2-1.57-8.93c-1.06-2.68-1.67-5.8-2.87-8.23
				C308.72-1433.89,314.82-1434.12,313.29-1436.04L313.29-1436.04L313.29-1436.04L313.29-1436.04z"/>
			<g id="g3325-0-6-8-0-7-7" transform="matrix(0.7991808,0,0,0.9290108,116.07649,36.460506)">
				<path id="path3301-9-3-7-2-2-1" class="st12" d="M326.54-1549.59c-3.96,3.13-2.34,7,3.99,5.06c3.06-0.94,1.48,3.94,2.4,6.7
					c0.75,2.24,2.19,6.59,3.7,8.6c2.2,2.92,1.21,2.66,4.64,4.37c2.68,1.34,4.53,4.86,3.6,7.2c-1.18,2.95,1.07,5.96,1.78,9.51
					c0.97,4.87,0.36,5.64,0.36,8.03c0,9.26,4.75,3.99,0.65,9.46c-0.79,1.05-3.73,10.17,2.66,10.85c5.16,0.55-0.34,3.91,2.34,6.06
					c10.47,3.79,1.14,5.3,4.22,13.53c8.54,8.29,0.79,8.58-3.67,7.05c-6.68-2.29-9.64-1.16-9.92-0.69
					c-1.29,2.15,10.45,10.66,3.14,7.74c-0.47-0.19-0.94-0.38-1.41-0.56c-2.56-1.02-4.64,3.02-7.62,4.51
					c-3.27,1.63-6.73-3.4-7.06-5.64c-0.49-3.4-1.69-6.38-1.69-9.87c0-5.04-2.54-9.61-2.54-14.66c0-8.33-1.49-14.48-3.1-22.55
					c-0.84-4.19-1.13-10.93-1.13-15.22c0-4.3-1.31-6.51-3.1-10.99c-0.97-2.42,0.44-7.29,0.85-10.15c0.51-3.56,1.45-6.84,2.82-9.58
					c1.34-2.67,2.46-7.83,5.93-7.89C332.93-1548.82,322.51-1547.9,326.54-1549.59L326.54-1549.59z"/>
				<path id="path3307-5-7-3-0-6-6" class="st12" d="M340.79-1528.16c1.53-1.76,2.22,3.61,2.75,4.92c0.13,0.52,0.25,1.04,0.35,1.56"
					/>
				<path id="path3309-5-5-8-1-0-5" class="st12" d="M346.15-1515.48c2.21,1.52,1.55,4.7,2.25,7c1.57,2.5-1.38,4.28-2.53,6.25"/>
				<path id="path3311-8-4-6-6-1-8" class="st12" d="M350.95-1499.7c1.33,3.18-1.48,6.24-1.98,9.3"/>
				<path id="path3313-3-1-2-9-6-9" class="st12" d="M350.38-1474.61c0.6,2.53-2.01,4.57-2.04,7.1c-0.35,0.54-0.89,0.9-1.34,1.35"/>
				<path id="path3315-7-0-8-3-5-2" class="st12" d="M347-1456.57c-1.33,1.72-3.73,2.45-5.64,3.38"/>
				<path id="path3317-8-1-0-7-7-5" class="st12" d="M355.74-1468.13c-0.4,2.62-2.95,4.31-4.41,6.3c-0.48,0.23-1.01,0.31-1.52,0.46"
					/>
			</g>
			<g id="g3209-3-2-9-9-5-7" transform="matrix(0.9921093,0.1253764,-0.1253764,0.9921093,122.49883,-59.889266)">
				<path id="path3211-7-2-8-1-4-2" class="st11" d="M80.06-1241.82c-1.12,16.77,1.9,29.44-4.61,50.91c0.55,6.24-0.2,3.95-0.35,5.97
					c3.44-0.5,2.61,1.35,2.29,0.1l0.61,1.73c2.32,0.02,3.08,0.41,5.06-4.58c-2.62-3.86-0.01-7.66,0.32-11.51l-0.04-1.05
					c-2.9-19.39,7.21-23.48,7.12-47.24C86.03-1246.3,82.29-1245.54,80.06-1241.82L80.06-1241.82z"/>
				<path id="path3213-9-8-0-5-1-7" class="st11" d="M73.69-1190.81c3.55-1.6,7.41-0.29,9.61-1.41"/>
				<path id="path3215-3-5-4-2-2-5" class="st11" d="M77.45-1232.53c3.02,1.14,4.16-0.74,4.55-4.37"/>
			</g>
			<path id="path3269-9-4-9-4-0-2" class="st11" d="M332.82-1352.7c0.63,1.3,2.1,2.47,2.1,3.92c0,2.94-0.46,6.72,0.1,9.58
				c0.57,2.92,1.05,4.24,1.46,7.16c0.43,3.08,2.39,1.56,1.98,9.7c-0.14,2.69,3.92,3.94,3.89,6.72c-0.03,2.79,2,3.47,2.67,6.24
				c0.66,2.71,1.92,3.4,2.18,7.28c0.19,2.96,2.5,2.06,5.83,2.74c1.63,0.33,6.51,5.06,7.71,6.28c1.3,1.33,2,5.08,5.37,5.08
				c3.44,0,5.62-2.08,6.56-4.48c1.82-4.67,4.91-4.29,3.64-9.46c-0.25-1.02-0.65-1.99-0.97-2.99c-1.14-3.52-2.29-9.41-5.59-11.95
				c-3.17-2.43-8.26-13.13-8.26-17.67c0-0.23-3.36-13.94-4.13-14.93c-2.25-2.88-5.52-3.89-8.5-5.72c-2.88-1.77-5.46-1.99-8.75-1.99
				C336.01-1357.18,334.43-1356.55,332.82-1352.7L332.82-1352.7z"/>
			<g id="g3201-1-6-6-4-0-8" transform="matrix(0.9968677,7.9088e-2,-7.9088e-2,0.9968677,100.83118,-36.980895)">
				<path id="path3203-8-7-8-1-1-3" class="st11" d="M168.67-1260.48c-1.12,16.77,2.84,28.98-3.67,50.45
					c0.55,6.24-2.09,7.25-2.23,9.28c3.27-2.59,4.23-1.33,3.91-2.58l0.01,1.44c2.32,0.02,4.02,0.57,6-4.42
					c-2.62-3.86-0.33-7.52-0.01-11.38l1.95-2.41c-6-22.82,8.24-24.05,2.71-45.12C172.9-1264.02,170.9-1264.19,168.67-1260.48
					L168.67-1260.48z"/>
				<path id="path3205-2-7-2-3-4-0" class="st11" d="M162.98-1209.29c3.55-1.6,7.41-0.29,9.61-1.41"/>
				<path id="path3207-8-3-8-4-6-8" class="st11" d="M166.74-1251.01c3.02,1.14,4.16-0.74,4.55-4.37"/>
			</g>
			<path id="path3217-0-4-4-6-0-9" class="st11" d="M333.41-1355.3c-0.04,1.96,2.59,3.83,1.39,7.16c-1.04,2.89,1.33,6.65,1.15,7.42
				c-0.41,1.8,1.3,7.36,2.08,8.44c1.19,1.65,2.28,5.52,2.77,7.67c1.01,4.5,1.39,1.05,1.39,7.42c0,4.03,0.97,5.14,3.69,6.65
				c1.62,0.9,3.39,8.78,4.16,10.49c0.49,1.08,3.97,1.14,5.31,4.86c0.92,2.55,5.32,1.8,6.7,2.56c1.84,1.02,4.42-2.97,7.16,3.32
				c1.54,3.55,1.58-5.64,4.37-7.49c3.55-2.36,7.26,2.2,8.79,1.36c1.3-0.72-2.83-5.3-0.92-7.42c1.98-2.2,5.1-4.23,2.77-7.67
				c-1.77-2.62-0.74-4.66,0-7.93c1.04-4.62,1.91-4,1.15-8.18c-0.88-4.89-1.19-1.21,0.92-5.88c2.77-6.14-0.23-4.54-0.23-9.21
				c0-2.73,2.46-8.53,3.46-10.74c0.22-0.49-2.91-6.02-1.85-8.95c1.18-3.28,0.46-5.79,0.46-8.95c0-3.61-2.86-5.25-1.85-9.72
				c0.75-3.32-0.43-6.62-2.08-8.44c-0.77-0.85-8.89-4.67-8.89-5.13c0-0.6-2.65-0.24,1.33-2.74c2.02-1.27-1.47-2.57-3.04-3.87
				c-2.24-1.86-2.32-6.47-4.55-8.94c-1.89-2.09-3.77-5.04-5.51-6.97c-2.7-2.99-1.05-4.39-5.31-7.22c-2.73-1.82-4.87-7.65-6.49-4.86
				c-1.69,2.91-3.91-0.19-5.94-2.43c-2.49-2.75-5.07,2.16-7.09-2.69c-0.97-2.33-4.28-0.62-5.58-1.59c-1.31-0.98,0.57-3.82-0.91-3.17
				l6.57,41.05l-5.22,40.39L333.41-1355.3L333.41-1355.3z"/>
			<path id="path3221-1-4-7-8-7-5" class="st11" d="M329.98-1441.74c2.09,1.09,6.37,2.29,5.36,4.79"/>
			<path id="path3223-8-9-9-8-1-2" class="st11" d="M340.7-1434.41c1.77-0.17,6.74,0.44,7.06,1.69c0.12,0.49,1.2,1.62,1.41,1.97"/>
			<path id="path3225-4-1-4-7-7-5" class="st11" d="M350.3-1425.67c0.5,2,4.19,1.08,5.64,2.54c1.01,1.01,0.85,1.64,0.85,2.82"/>
			<path id="path3227-8-8-0-0-7-7" class="st11" d="M358.48-1427.08c2.59,2.59,6.49,0.55,8.18,4.79"/>
			<path id="path3229-6-3-7-3-7-8" class="st11" d="M377.96-1411.86c0.35,0.89-4.35-1.53-8.18,0"/>
			<path id="path3231-0-8-4-4-7-5" class="st11" d="M363.85-1419.75c-1.93,0.77,1.98,3.84,1.98,5.92c0,4.18,1.9,2.89,1.41,5.36"/>
			<path id="path3233-9-7-8-4-3-6" class="st11" d="M374.85-1406.79c0,1.8,3.15,2.06,3.95,3.66c1.57,3.14,3.11,5.07,0.28,7.89"/>
			<path id="path3235-3-9-1-6-3-0" class="st11" d="M376.83-1393.26c1.58,3.16,2.9,0.35,3.67,6.48"/>
			<path id="path3237-0-7-8-7-5-5" class="st11" d="M384.17-1388.75c0.82,1.63,3.56,0.91,4.52,2.82"/>
			<path id="path3239-0-1-2-1-9-3" class="st11" d="M378.52-1381.14c1.77,3.53,3.95,1.25,3.95,5.07c0,1.4-0.13,1.45-0.56,2.54"/>
			<path id="path3241-8-1-2-8-9-5" class="st11" d="M390.09-1372.4c0,1.69-2.82-4.13-6.77-6.76"/>
			<path id="path3243-7-4-1-1-8-2" class="st11" d="M384.17-1366.48c-0.03-0.02,5.16,0.7,6.21,5.92c0.07,0.37,0,0.75,0,1.13"/>
			<path id="path3245-6-3-4-2-1-9" class="st11" d="M385.58-1360.28c0.63,3.16,0.64,4.15-2.26,7.05"/>
			<path id="path3247-35-5-6-1-8-6" class="st11" d="M385.58-1349.28c0.36,1.8,2.37,5.91-1.41,8.74"/>
			<path id="path3249-6-2-6-2-2-0" class="st11" d="M379.37-1342.24c0.36,1.8,3.02,3.3,0.85,6.2c-1.28,1.7-0.3,1.51-0.56,2.82"/>
			<path id="path3251-5-9-9-3-6-2" class="st11" d="M386.99-1335.19c-0.48,0.64-1.07,6.34-2.54,8.17c-0.32,0.4-0.94,0.38-1.41,0.56"
				/>
			<path id="path3253-8-1-3-1-6-0" class="st11" d="M380.78-1325.04c-0.39,0.48-1.27,5.92-2.54,7.61"/>
			<path id="path3255-3-5-8-1-0-8" class="st11" d="M382.75-1313.77c-0.37,0.46-0.34,5.28-2.82,6.76"/>
			<path id="path3257-9-5-1-1-3-3" class="st11" d="M381.91-1296.86c-0.04,0.05-2.33,2.54-4.8,2.54"/>
			<path id="path3259-4-6-3-0-8-0" class="st11" d="M378.52-1289.82c-0.92,1.15-3.64,3.94-6.49,5.07"/>
			<path id="path3261-8-7-6-8-0-9" class="st11" d="M372.31-1305.59c-1.12,1.4,0.24,3.75-0.56,5.36c-0.34,0.68-0.75,1.32-1.13,1.97
				c-0.34,0.59-0.75,1.13-1.13,1.69"/>
			<path id="path3263-3-9-4-9-1-4" class="st11" d="M360.74-1296.57c-0.68,1.18-5.68-4.45-5.93-5.07"/>
			<path id="path3265-9-0-5-1-2-5" class="st11" d="M348.89-1306.44c-1.3,2.28-5.11-7.26-5.36-7.89c-0.17-0.44,0-0.94,0-1.41"/>
			<path id="path3267-76-2-2-0-5-9" class="st11" d="M335.91-1342.52c-0.22-0.54-0.44,2.22,2.26,7.61c0.47,0.94,2.26,0.07,3.1-0.56"
				/>
			<path id="path2396-4-3-2-9-0-8" class="st11" d="M311.98-1447.67c3,0.35,1.36,3.01,6.37,0c19.28,25.45,9.7,84.08,3.61,96.06
				l-0.11-2.81c-0.37-1.93,0.64-1.08-2.66-2.28C330.35-1391.83,321.34-1434.36,311.98-1447.67L311.98-1447.67z"/>
			<path id="path3360-5-1-0-7-9-6" class="st11" d="M244.75-1329.34c-0.79,11.89,6.05,14.56,8.64,20.53
				c2.59,5.97,10.29,13.28,10.21,20.79c3.38,1.35,6.02,4,6.77,1.99c2.91-0.27,0.08-1.51,0.78-3.05c0.96-2.48,1.15-6.63,0.45-9.91
				c-0.46-5.88,11.17-10.19,9.29-30.68l-3.51-12.51"/>
			<path id="path3362-8-9-1-7-4-2" class="st11" d="M257.52-1314.86c-0.74,0.98-0.51,3.5,1.1,3.15c1.26-0.85,1.17-2.58,1.25-3.93
				c-0.01-1.63,0.25-3.45,1.62-4.52C260.9-1320.02,257.54-1316.16,257.52-1314.86L257.52-1314.86z"/>
			<path id="path3371-6-8-0-4-7-2" class="st11" d="M275.01-1318.51c0.58,5.38-0.61,9.57-5.97,10.99"/>
			<path id="path3373-1-7-3-5-8-4" class="st11" d="M260.65-1300.82c0.78,2.48,1.6,4.9,0.93,9.32"/>
			<path id="path3375-5-8-8-1-3-2" class="st11" d="M270.53-1287.77c0.55,3.24,1.06,6.52,1.12,10.25"/>
			<path id="path3377-5-4-7-6-5-6" class="st11" d="M266.43-1282c0.66,2.5,0.69,4.5-1.12,5.03"/>
			<path id="path3399-1-4-3-7-1-1" class="st11" d="M308.11-1439.97c-0.27-0.53-5.74,0.93-7.07,2.26"/>
			<path id="path7617-9-4-3-8-2-3" class="st11" d="M291.15-1435.46c-0.6-1.2-7.01,2.39-8.2,3.1"/>
			<path id="path3403-6-3-1-3-0-4" class="st11" d="M280.7-1433.2c-1.92,1.15-4.38-0.35-5.65,2.82"/>
			<path id="path3405-4-5-4-9-1-3" class="st11" d="M270.24-1423.6c-1.81,1.09-5.62,5.98-7.07,9.6"/>
			<path id="path3407-5-8-5-3-6-3" class="st11" d="M251.59-1400.46c-1.11,2.77,3.46-6.22-1.41,2.54"/>
			<path id="path3409-4-0-6-1-4-6" class="st11" d="M248.48-1393.68c-0.3,0.75-3.62,9.54-5.93,11.86"/>
			<path id="path3411-2-2-1-3-0-0" class="st11" d="M277.31-1391.43c-0.75,1.87-2.26,5.55-2.26,9.31c0,3.56-0.85,6.81-0.85,10.73
				c0,2.5,0.66,7.71,2.26,9.31c0.35,0.35,1.41,8.94,1.41,9.31"/>
			<path id="path3413-5-9-2-9-6-2" class="st11" d="M280.13-1384.09c1.67,1.66-0.74,4.75-0.28,7.06"/>
			<path id="path3415-3-4-1-6-1-2" class="st11" d="M282.96-1368.56c0.04,0.04,1.25,5.03,1.98,6.49"/>
			<path id="path3417-2-9-9-3-8-6" class="st11" d="M312.63-1364.05c0.54,0.54-3.47,9.11-4.8,10.44"/>
			<path id="path3419-6-8-1-7-9-5" class="st11" d="M316.31-1343.44c0.36,0.36-0.94,0.38-1.41,0.56c-0.07,0.03,1.11,5.41,0,8.19
				c-0.17,0.44-0.75,0.56-1.13,0.85"/>
			<path id="path3421-8-3-8-5-8-3" class="st11" d="M315.18-1325.94c-0.84,2.1,1.66,6.25-2.26,10.16c-0.47,0.47,0,1.32,0,1.98"/>
			<path id="path3423-2-5-0-2-4-3" class="st11" d="M318.57-1312.67c-2.41,2.41-2.89,6.75-5.93,9.03"/>
			<path id="path3425-6-0-4-0-1-8" class="st11" d="M282.11-1312.11c-0.91,0.91,0.51,6.55,1.13,9.03c1.17,4.68,2.54,3.69,2.54,8.47
				c0,4.16,5.18,4.9,5.93,7.9c0.62,2.47,2.64,2.59,4.24,3.39"/>
			<path id="path3427-6-4-7-7-4-9" class="st11" d="M289.18-1309.85c0.69,2.75-3.79,6.22,1.13,8.19"/>
			<path id="path3429-3-3-7-1-3-9" class="st11" d="M288.05-1325.66c0.64,0.25-0.91,7.26,2.83,9.6c0.48,0.3,0.91,1.59,1.13,1.98"/>
			<path id="path3431-9-5-4-7-9-9" class="st11" d="M301.89-1290.66c3.54,2.21,6.13-3.03,7.07-5.36c0.4-1.01,0.46-1.85,0.85-2.82"/>
			<path id="path3433-4-2-1-0-8-9" class="st11" d="M314.89-1295.17c0.28-0.71-2.04,2.66-3.39,5.36"/>
			<path id="path3381-6-7-9-7-8-8" class="st11" d="M274.08-1352.05c11.07-3.25,10.96,4.17,10.26,8.38
				c-0.93,3.37-1.29,5.36-5.6,3.91c-1.6-3.45-1.15-9.05,4.48-9.32"/>
			<path id="path3383-2-7-8-1-0-0" class="st11" d="M253.27-1348.71c0.96,0.03,2.92-0.87,4.51,0.73c1.42,1.43-0.24,1.95,2.18,2.93
				c0.1,0.04,0.73,2.98,0.73,4.39c0,2.14,0.92,2.27,1.31,4.25c0.05,0.24,0.1,0.49,0.15,0.73c0.07,0.36-2.03,3.31-3.05,3.51
				c-0.05,0.01-0.74,2.29-2.04,3.08c-1.51,0.91-2.34,3.48-3.64,3.81c-1.52,0.38-3.57,0.34-4.8,0.59c-1.57,0.32-1.93-1.93-3.76-1.67
				c-2.4,0.34-8.52,0.69-6.28-0.38c1.16-0.55-3.3-2.33-1.62-4.25c0.73-0.83-3.16-2.37-3.16-5.42c0-3.42,0.86-4.12,3.22-6.5
				c2.01-2.02-0.64-8.57,1.71-8.42c2.55,0.16,2.28-1.32,2.88-3.13c0.96-2.89-0.15-6.18,2.2-5.24c2.83,1.13,0.1-0.49,0.15-0.73"/>
			<path id="path3385-5-7-1-7-8-6" class="st11" d="M250.95-1345.34c0.45-2.23,2.05,3.17,2.05,4.1"/>
			<path id="path3387-3-4-0-5-7-6" class="st11" d="M254.68-1339.38c0.01-0.07,0.56,0.97,0.56,1.86c0,0.82-2.23,3.21-2.42,3.54"/>
			<path id="path3389-5-4-3-4-7-1" class="st11" d="M253.19-1329.51c0,1.11-3.38,3.18-5.22,3.91c-1.18,0.47-1.31,0.36-1.87-0.37"/>
			<path id="path3391-6-0-2-8-8-3" class="st11" d="M231.74-1337.89c-1.93,0.77-0.45,4.25,1.49,5.22"/>
			<path id="path3393-6-4-5-1-3-5" class="st11" d="M235.28-1359.13c1.41,0.7-1.18,2.93-1.49,4.47c-0.54,2.72,1.36,4.53,0.56,6.52"
				/>
			<g id="g3435-2-4-8-3" transform="translate(0.4012423,1.5580092)">
				<path id="path3221-1-4-3-7" class="st13" d="M330.11-1441.22c2.09,1.09,6.37,2.29,5.36,4.79"/>
				<path id="path3223-8-9-7-7" class="st13" d="M340.84-1433.89c1.77-0.17,6.74,0.44,7.06,1.69c0.12,0.49,1.2,1.62,1.41,1.97"/>
				<path id="path3225-4-1-1-2" class="st13" d="M350.43-1425.15c0.5,2,4.19,1.08,5.64,2.54c1.01,1.01,0.85,1.64,0.85,2.82"/>
				<path id="path3227-8-8-07-4" class="st13" d="M358.62-1426.56c2.59,2.59,6.49,0.55,8.18,4.79"/>
				<path id="path3229-6-3-3-1" class="st13" d="M378.09-1411.34c0.35,0.89-4.35-1.53-8.18,0"/>
				<path id="path3231-0-8-49-2" class="st13" d="M363.98-1419.23c-1.93,0.77,1.98,3.84,1.98,5.92c0,4.18,1.9,2.89,1.41,5.36"/>
				<path id="path3233-9-7-6-9" class="st13" d="M374.99-1406.27c0,1.8,3.15,2.06,3.95,3.66c1.57,3.14,3.11,5.07,0.28,7.89"/>
				<path id="path3235-3-9-5-5" class="st13" d="M376.96-1392.74c1.58,3.16,2.9,0.35,3.67,6.48"/>
				<path id="path3237-0-7-1-8" class="st13" d="M384.3-1388.23c0.82,1.63,3.56,0.91,4.52,2.82"/>
				<path id="path3239-0-1-0-9" class="st13" d="M378.66-1380.62c1.77,3.53,3.95,1.25,3.95,5.07c0,1.4-0.13,1.45-0.56,2.54"/>
				<path id="path3241-8-1-9-9" class="st13" d="M390.23-1371.88c0,1.69-2.82-4.13-6.77-6.77"/>
				<path id="path3243-7-4-9-0" class="st13" d="M384.3-1365.96c-0.03-0.02,5.16,0.7,6.21,5.92c0.07,0.37,0,0.75,0,1.13"/>
				<path id="path3245-6-3-6-4" class="st13" d="M385.71-1359.76c0.63,3.16,0.64,4.15-2.26,7.05"/>
				<path id="path3247-35-5-65-8-6" class="st13" d="M385.71-1348.76c0.36,1.8,2.37,5.91-1.41,8.74"/>
				<path id="path3249-6-2-3-1" class="st13" d="M379.5-1341.72c0.36,1.8,3.02,3.3,0.85,6.2c-1.28,1.7-0.3,1.51-0.56,2.82"/>
				<path id="path3251-5-9-4-1" class="st13" d="M387.12-1334.67c-0.48,0.64-1.07,6.34-2.54,8.17c-0.32,0.4-0.94,0.38-1.41,0.56"/>
				<path id="path3253-8-1-0-8-5" class="st13" d="M380.91-1324.52c-0.39,0.48-1.27,5.92-2.54,7.61"/>
				<path id="path3255-3-5-4-1" class="st13" d="M382.89-1313.25c-0.37,0.46-0.34,5.28-2.82,6.76"/>
				<path id="path3257-9-5-9-7" class="st13" d="M382.04-1296.34c-0.04,0.05-2.33,2.54-4.8,2.54"/>
				<path id="path3259-4-6-9-8" class="st13" d="M378.65-1289.3c-0.92,1.15-3.64,3.94-6.49,5.07"/>
				<path id="path3261-8-7-2-5" class="st13" d="M372.45-1305.07c-1.12,1.4,0.24,3.75-0.56,5.36c-0.34,0.68-0.75,1.32-1.13,1.97
					c-0.34,0.59-0.75,1.13-1.13,1.69"/>
				<path id="path3263-3-9-5-6" class="st13" d="M360.88-1296.05c-0.68,1.18-5.68-4.45-5.93-5.07"/>
				<path id="path3265-9-0-53-8" class="st13" d="M349.02-1305.92c-1.3,2.28-5.11-7.26-5.36-7.89c-0.17-0.44,0-0.94,0-1.41"/>
				<path id="path3267-76-2-3-9" class="st13" d="M336.04-1342c-0.22-0.54-0.44,2.22,2.26,7.61c0.47,0.94,2.26,0.07,3.1-0.56"/>
				<path id="path3360-5-1-3-6" class="st13" d="M239.15-1326.75c-0.88,13.81,6.43,16.91,9.33,23.85
					c2.89,6.93,5.34,19.54,13.99,25.9c3.77,1.57,7.36,2.89,8.21,0.56c3.25-0.31,4.63-1.75,5.41-3.54c1.08-2.88-0.33-7-1.12-10.81
					c-0.51-6.83,9.55-12.53,7.46-36.33l-3.92-14.53"/>
				<path id="path3362-8-9-9-7-5" class="st13" d="M257.66-1314.34c-0.74,0.98-0.51,3.5,1.1,3.15c1.26-0.85,1.17-2.58,1.25-3.93
					c-0.01-1.63,0.25-3.45,1.62-4.52C261.03-1319.5,257.68-1315.64,257.66-1314.34L257.66-1314.34z"/>
				<path id="path3371-6-8-4-1" class="st13" d="M275.15-1317.99c0.58,5.38-0.61,9.57-5.97,10.99"/>
				<path id="path3373-1-7-38-4" class="st13" d="M260.78-1300.29c0.78,2.48,1.6,4.9,0.93,9.31"/>
				<path id="path3375-5-8-0-4" class="st13" d="M270.67-1287.25c0.55,3.24,1.06,6.52,1.12,10.25"/>
				<path id="path3377-5-4-8-0" class="st13" d="M266.57-1281.48c0.66,2.5,0.69,4.5-1.12,5.03"/>
				<path id="path3399-1-4-0-8-0" class="st14" d="M308.25-1439.45c-0.27-0.53-5.74,0.93-7.07,2.26"/>
				<path id="path7617-9-4-0-5" class="st14" d="M291.29-1434.94c-0.6-1.2-7.01,2.39-8.2,3.1"/>
				<path id="path3403-6-3-6-8" class="st14" d="M280.83-1432.68c-1.92,1.15-4.38-0.35-5.65,2.82"/>
				<path id="path3405-4-5-8-1" class="st14" d="M270.38-1423.08c-1.81,1.09-5.62,5.98-7.07,9.6"/>
				<path id="path3407-5-8-1-6" class="st14" d="M251.72-1399.94c-1.11,2.77,3.46-6.22-1.41,2.54"/>
				<path id="path3409-4-0-9-0" class="st14" d="M248.62-1393.16c-0.3,0.75-3.62,9.54-5.93,11.86"/>
				<path id="path3411-2-2-0-8-1" class="st14" d="M277.44-1390.9c-0.75,1.87-2.26,5.55-2.26,9.31c0,3.56-0.85,6.81-0.85,10.73
					c0,2.5,0.66,7.71,2.26,9.31c0.35,0.35,1.41,8.94,1.41,9.31"/>
				<path id="path3413-5-9-9-4" class="st14" d="M280.27-1383.57c1.67,1.66-0.74,4.75-0.28,7.06"/>
				<path id="path3415-3-4-7-4" class="st14" d="M283.09-1368.04c0.04,0.04,1.25,5.03,1.98,6.49"/>
				<path id="path3417-2-9-2-3" class="st14" d="M312.77-1363.52c0.54,0.54-3.47,9.11-4.8,10.44"/>
				<path id="path3419-6-8-2-9" class="st14" d="M316.44-1342.92c0.36,0.36-0.94,0.38-1.41,0.56c-0.07,0.03,1.11,5.41,0,8.19
					c-0.17,0.44-0.75,0.56-1.13,0.85"/>
				<path id="path3421-8-3-82-6" class="st14" d="M315.31-1325.42c-0.84,2.1,1.66,6.25-2.26,10.16c-0.47,0.47,0,1.32,0,1.98"/>
				<path id="path3423-2-5-6-8-3" class="st14" d="M318.7-1312.15c-2.41,2.41-2.89,6.75-5.93,9.03"/>
				<path id="path3425-6-0-9-0" class="st14" d="M282.25-1311.59c-0.91,0.91,0.51,6.55,1.13,9.03c1.17,4.68,2.54,3.69,2.54,8.47
					c0,4.16,5.18,4.9,5.93,7.9c0.62,2.47,2.64,2.59,4.24,3.39"/>
				<path id="path3427-6-4-0-6" class="st14" d="M289.31-1309.33c0.69,2.75-3.79,6.22,1.13,8.19"/>
				<path id="path3429-3-3-78-0" class="st14" d="M288.18-1325.14c0.64,0.25-0.91,7.26,2.83,9.6c0.48,0.3,0.91,1.59,1.13,1.98"/>
				<path id="path3431-9-5-1-2" class="st14" d="M302.03-1290.14c3.54,2.21,6.13-3.03,7.07-5.36c0.4-1.01,0.46-1.85,0.85-2.82"/>
				<path id="path3433-4-2-5-2" class="st14" d="M315.03-1294.65c0.28-0.71-2.04,2.66-3.39,5.36"/>
				<path id="path3379-5-5-8-3" class="st13" d="M255.51-1350.64c5.61-10.53,10.54-13.95,25.98-11.73
					c12.89,5.01,17.87,13.87,11.38,28.32c-8.4,17.91-24.67,5.69-24.25-2.42c0.42-8.12,0.84-8.71,5.6-13.79
					c-6.96,3.98-9.79,9.75-11.01,15.65"/>
				<path id="path3383-2-7-6-2" class="st13" d="M250.9-1350.41c1.24,0.04,3.74-1.11,5.78,0.93c1.82,1.81-0.31,2.48,2.8,3.73
					c0.12,0.05,0.93,3.79,0.93,5.59c0,2.72,1.18,2.89,1.68,5.4c0.06,0.31,0.12,0.62,0.19,0.93c0.09,0.46-2.61,4.21-3.92,4.47
					c-0.06,0.01-0.95,2.92-2.61,3.91c-1.93,1.16-3.01,4.43-4.66,4.84c-1.95,0.49-4.57,0.43-6.16,0.75c-2.01,0.4-4.75-0.71-7.09-0.37
					c-3.08,0.44-2.65-2.24-5.78-2.24c-1.11,0-4.66-3.47-4.66-5.4c0-1.93-3.73-3.01-3.73-6.89c0-4.35-1.17-6.29,1.87-9.31
					c2.58-2.57,2.38-6.16,3.17-9.31c0.04-0.14,3.9-2.73,4.66-5.03c1.23-3.68,4.73-2.58,5.41-5.96c0.06-0.31,0.12-0.62,0.19-0.93"/>
				<path id="path3385-5-7-12-8" class="st13" d="M251.08-1344.82c0.45-2.23,2.05,3.17,2.05,4.1"/>
				<path id="path3387-3-4-4-8" class="st13" d="M254.81-1338.86c0.01-0.07,0.56,0.97,0.56,1.86c0,0.82-2.23,3.21-2.42,3.54"/>
				<path id="path3389-5-4-2-2" class="st13" d="M253.32-1328.98c0,1.11-3.38,3.18-5.22,3.91c-1.18,0.47-1.31,0.36-1.87-0.37"/>
				<path id="path3391-6-0-5-1" class="st13" d="M231.87-1337.37c-1.93,0.77-0.45,4.25,1.49,5.22"/>
				<path id="path3393-6-4-8-6" class="st13" d="M235.42-1358.61c1.41,0.7-1.18,2.93-1.49,4.47c-0.54,2.72,1.36,4.53,0.56,6.52"/>
			</g>
			<path id="path3379-5-5-1-6-6-8" class="st5" d="M254.28-1343.73c5.61-10.53,12.54-19.36,27.98-17.14
				c12.89,5.01,17.87,13.87,11.38,28.32c-8.4,17.91-24.67,5.69-24.25-2.42c0.42-8.12,0.84-8.71,5.6-13.79
				c-6.96,3.98-9.79,9.75-11.01,15.65"/>
			<path id="path3379-5-7-2-4" class="st13" d="M253.28-1344.81c5.61-10.53,12.54-19.36,27.98-17.14
				c12.89,5.01,17.87,13.87,11.38,28.32c-8.4,17.91-24.67,5.69-24.25-2.42c0.42-8.12,0.84-8.71,5.6-13.79
				c-6.96,3.98-9.79,9.75-11.01,15.65"/>
			<path id="path3381-6-7-6-1" class="st13" d="M273.12-1349.33c11.07-3.25,10.96,4.17,10.26,8.38c-0.93,3.37-1.29,5.36-5.6,3.91
				c-1.6-3.45-1.15-9.05,4.48-9.31"/>
		</g>
	</g>
</g>
<g id="svg2">
	<g id="g16026" transform="matrix(2.0752291,0,0,2.0752291,179.38298,96.129244)">
		<path id="path2439" class="st15" d="M-6.32,68.44c-11.68,1.29-14.67,1.17-27.4,0c-54.41-7.16-48.83,4.59-47.67-2.09
			c1.16-3.71,1.01-10.53-0.22-14.97c-1.07-1.95,0.9-2.39,7.87-2.27c6.97,0.12,19.34,3.15,54.41,3.41
			c35.07-0.26,46.61-3.29,53.57-3.41c6.97-0.12,8.94,0.33,7.87,2.27c-1.22,4.43-1.38,11.25-0.22,14.97
			C44.51,75.23,50.56,60.45-6.32,68.44z"/>
	</g>
</g>
<g>
	<g>
		<path class="st16" d="M36.48,208.37c0.1,0.01,0.19,0.07,0.27,0.18c0.08,0.1,0.12,0.2,0.13,0.28c0,0.03-0.07,0.08-0.18,0.15
			c-0.12,0.06-0.27,0.14-0.45,0.23c-0.18,0.09-0.38,0.17-0.59,0.27c-0.21,0.09-0.42,0.18-0.62,0.26c-0.2,0.08-0.37,0.15-0.53,0.21
			c-0.15,0.06-0.26,0.11-0.32,0.13c-0.07,0-0.14-0.01-0.22-0.01c-1.26-0.73-2.52-1.47-3.77-2.21c-0.1,0.01-0.22,0.04-0.36,0.08
			c-0.14,0.04-0.28,0.09-0.41,0.16c-0.14,0.06-0.25,0.14-0.35,0.23c-0.1,0.09-0.16,0.18-0.17,0.28c-0.05,0.34,0.01,0.65,0.18,0.95
			c0.17,0.29,0.42,0.57,0.73,0.85c0.32,0.27,0.68,0.54,1.1,0.8c0.42,0.26,0.84,0.52,1.28,0.79c0.44,0.27,0.87,0.55,1.28,0.84
			c0.41,0.29,0.78,0.6,1.08,0.94c0.31,0.34,0.55,0.7,0.71,1.08c0.16,0.39,0.21,0.81,0.15,1.27c-0.05,0.34-0.16,0.65-0.34,0.93
			c-0.18,0.28-0.4,0.53-0.66,0.75c-0.26,0.22-0.56,0.42-0.89,0.6c-0.33,0.18-0.67,0.33-1.02,0.46c-0.35,0.13-0.71,0.25-1.07,0.35
			c-0.36,0.1-0.7,0.18-1.02,0.25c-0.06-0.01-0.11-0.02-0.17-0.02c-0.1-0.07-0.27-0.17-0.51-0.33c-0.24-0.15-0.52-0.32-0.83-0.52
			c-0.31-0.19-0.64-0.4-0.98-0.61c-0.34-0.21-0.67-0.4-0.97-0.58c-0.3-0.18-0.56-0.33-0.78-0.45c-0.22-0.12-0.37-0.18-0.43-0.19
			c-0.08-0.01-0.15,0-0.22,0.03c-0.07,0.03-0.13,0.06-0.2,0.1c-0.06,0.04-0.13,0.07-0.19,0.1c-0.07,0.03-0.14,0.04-0.21,0.03
			c-0.03-0.01-0.07-0.03-0.11-0.06c-0.04-0.04-0.08-0.08-0.11-0.13c-0.04-0.05-0.07-0.1-0.1-0.15c-0.03-0.05-0.05-0.09-0.05-0.13
			c0.01-0.03,0.07-0.08,0.19-0.15c0.12-0.07,0.27-0.15,0.46-0.24c0.18-0.09,0.38-0.18,0.6-0.28c0.22-0.1,0.42-0.19,0.62-0.27
			c0.2-0.08,0.38-0.16,0.54-0.23c0.16-0.07,0.26-0.11,0.32-0.14c0.08,0.01,0.15,0.01,0.23,0.02c1.49,0.92,2.99,1.84,4.49,2.75
			c0.3-0.05,0.56-0.17,0.78-0.34c0.22-0.17,0.34-0.41,0.39-0.69c0.06-0.44,0.01-0.83-0.15-1.18c-0.16-0.35-0.4-0.68-0.71-0.98
			c-0.31-0.3-0.67-0.58-1.07-0.84c-0.41-0.26-0.83-0.52-1.26-0.78c-0.43-0.26-0.85-0.52-1.25-0.79c-0.41-0.27-0.76-0.56-1.06-0.87
			c-0.3-0.31-0.53-0.64-0.69-1.01c-0.16-0.36-0.2-0.77-0.13-1.21c0.05-0.29,0.17-0.56,0.36-0.81c0.19-0.24,0.43-0.46,0.72-0.66
			c0.29-0.19,0.61-0.37,0.96-0.52c0.35-0.15,0.71-0.28,1.07-0.39c0.36-0.11,0.72-0.2,1.06-0.28c0.35-0.07,0.66-0.13,0.93-0.16
			c0.22,0.13,0.49,0.3,0.82,0.5c0.33,0.2,0.68,0.41,1.04,0.61c0.36,0.2,0.71,0.38,1.06,0.54c0.35,0.16,0.63,0.25,0.87,0.29
			c0.15,0.02,0.3,0.01,0.44-0.03C36.3,208.37,36.41,208.36,36.48,208.37z"/>
		<path class="st16" d="M44.81,219.59c0.04,0.01,0.08,0.03,0.13,0.08c0.05,0.05,0.09,0.1,0.12,0.16c0.04,0.06,0.07,0.11,0.09,0.17
			c0.03,0.06,0.04,0.1,0.03,0.12c0,0.03-0.05,0.07-0.14,0.13c-0.09,0.06-0.2,0.13-0.34,0.21c-0.14,0.08-0.29,0.16-0.45,0.24
			c-0.16,0.08-0.31,0.16-0.46,0.23c-0.15,0.07-0.28,0.14-0.39,0.19c-0.12,0.05-0.2,0.09-0.24,0.11c-0.05,0.01-0.11,0.01-0.16,0.02
			c-0.18-0.05-0.34-0.13-0.49-0.26c-0.14-0.12-0.27-0.26-0.37-0.41c-0.11-0.15-0.19-0.32-0.26-0.48c-0.07-0.17-0.11-0.33-0.14-0.47
			c-0.41,0.19-0.82,0.37-1.24,0.55c-0.42,0.18-0.83,0.36-1.26,0.53c-0.08-0.01-0.15-0.02-0.23-0.03c-0.43-0.33-0.77-0.69-1.03-1.1
			c-0.26-0.41-0.45-0.84-0.57-1.29c-0.13-0.45-0.19-0.91-0.2-1.39c-0.01-0.48,0.02-0.95,0.09-1.42c0.17-1.2,0.6-2.17,1.29-2.91
			c0.69-0.74,1.67-1.28,2.95-1.6c0.06,0.01,0.12,0.02,0.17,0.02c0.1,0.06,0.26,0.15,0.48,0.27c0.22,0.12,0.47,0.25,0.74,0.39
			c0.27,0.14,0.55,0.29,0.83,0.45c0.29,0.16,0.55,0.3,0.78,0.44c0.24,0.14,0.43,0.26,0.58,0.36c0.15,0.1,0.22,0.18,0.21,0.21
			c-0.01,0.05-0.05,0.09-0.13,0.14c-0.08,0.04-0.17,0.09-0.26,0.14c-0.1,0.05-0.18,0.11-0.27,0.18c-0.08,0.07-0.13,0.15-0.14,0.25
			c-0.24,1.85-0.49,3.7-0.73,5.55c0,0.03-0.01,0.07-0.01,0.12c0,0.05,0,0.09,0.01,0.14c0.01,0.05,0.02,0.09,0.04,0.12
			c0.02,0.04,0.06,0.06,0.11,0.06c0.12,0.02,0.24,0.01,0.35-0.03c0.12-0.04,0.22-0.09,0.32-0.14
			C44.71,219.6,44.77,219.59,44.81,219.59z M42.47,213.41c-0.66-0.39-1.31-0.78-1.97-1.17c-0.16,0.19-0.3,0.4-0.42,0.63
			c-0.11,0.23-0.21,0.46-0.28,0.7c-0.08,0.24-0.14,0.49-0.19,0.73c-0.05,0.25-0.09,0.49-0.12,0.73c-0.02,0.12-0.03,0.31-0.05,0.55
			c-0.01,0.25-0.02,0.52-0.02,0.83c0,0.31,0.01,0.62,0.04,0.95c0.02,0.32,0.07,0.62,0.14,0.89c0.07,0.27,0.16,0.5,0.28,0.68
			c0.11,0.19,0.26,0.29,0.45,0.32c0.06,0.01,0.15-0.01,0.29-0.06c0.13-0.05,0.27-0.1,0.42-0.16c0.15-0.06,0.28-0.13,0.41-0.2
			c0.13-0.07,0.23-0.12,0.29-0.15c0.01,0,0.02,0,0.03,0C42,216.93,42.24,215.17,42.47,213.41z"/>
		<path class="st16" d="M52.31,220.68c0,0.04-0.08,0.09-0.21,0.17c-0.14,0.07-0.31,0.15-0.53,0.24c-0.21,0.09-0.45,0.19-0.7,0.28
			c-0.25,0.1-0.49,0.19-0.73,0.27c-0.23,0.09-0.44,0.16-0.62,0.22c-0.18,0.06-0.3,0.11-0.37,0.13c-0.07-0.01-0.13-0.02-0.2-0.02
			c-0.47-0.32-0.88-0.69-1.21-1.08c-0.33-0.4-0.6-0.82-0.8-1.27c-0.2-0.45-0.33-0.92-0.39-1.42c-0.06-0.49-0.06-1,0.01-1.52
			c0.07-0.56,0.24-1.1,0.49-1.62c0.26-0.52,0.59-0.99,1-1.4c0.41-0.41,0.89-0.75,1.43-1.02c0.54-0.27,1.14-0.42,1.78-0.47
			c0.06,0.03,0.13,0.07,0.19,0.1c0.02,0.04,0.07,0.11,0.14,0.23c0.07,0.12,0.16,0.26,0.26,0.42c0.1,0.16,0.2,0.33,0.31,0.51
			c0.11,0.18,0.21,0.35,0.3,0.5c0.09,0.15,0.16,0.29,0.22,0.39c0.06,0.11,0.09,0.17,0.09,0.18c0,0.03-0.04,0.06-0.12,0.11
			c-0.08,0.05-0.18,0.1-0.29,0.16c-0.12,0.06-0.24,0.12-0.38,0.18c-0.14,0.06-0.26,0.12-0.38,0.16c-0.12,0.05-0.22,0.09-0.31,0.11
			c-0.09,0.03-0.14,0.04-0.15,0.04c-0.04,0-0.1-0.05-0.17-0.13c-0.07-0.08-0.15-0.18-0.24-0.31c-0.09-0.12-0.18-0.26-0.27-0.41
			c-0.09-0.15-0.18-0.29-0.26-0.43c-0.08-0.14-0.15-0.26-0.22-0.36c-0.06-0.11-0.11-0.18-0.14-0.22c-0.19,0.1-0.36,0.28-0.5,0.54
			c-0.14,0.26-0.26,0.54-0.35,0.84c-0.09,0.31-0.17,0.61-0.22,0.91c-0.05,0.3-0.09,0.55-0.12,0.74c-0.03,0.21-0.04,0.45-0.05,0.71
			c-0.01,0.26,0,0.53,0.02,0.81c0.02,0.28,0.07,0.55,0.15,0.82c0.07,0.27,0.18,0.51,0.32,0.73c0.14,0.22,0.32,0.4,0.53,0.55
			c0.22,0.15,0.48,0.25,0.8,0.28c0.14,0.02,0.29,0.01,0.45-0.01c0.16-0.02,0.3-0.05,0.44-0.09c0.14-0.04,0.27-0.07,0.38-0.1
			c0.11-0.03,0.19-0.04,0.23-0.04c0.04,0,0.08,0.03,0.12,0.08c0.04,0.05,0.08,0.1,0.12,0.16c0.04,0.06,0.06,0.11,0.08,0.18
			C52.3,220.61,52.31,220.66,52.31,220.68z"/>
		<path class="st16" d="M59.05,215.01c-0.21,0.09-0.42,0.19-0.63,0.3c-0.21,0.11-0.43,0.21-0.64,0.32c0.01-0.01,0.02-0.01,0.03-0.02
			c-0.05,0.03-0.1,0.05-0.16,0.07c-0.05,0.02-0.11,0.04-0.17,0.05c-0.05-0.01-0.12-0.06-0.2-0.15c-0.08-0.09-0.16-0.2-0.24-0.32
			c-0.08-0.12-0.16-0.24-0.23-0.35c-0.07-0.11-0.12-0.2-0.15-0.25c-0.18,0.12-0.31,0.26-0.39,0.42c-0.09,0.17-0.14,0.35-0.16,0.55
			c-0.19,1.64-0.38,3.28-0.57,4.92c0.15,0.1,0.29,0.19,0.43,0.29c0.14,0.1,0.28,0.19,0.42,0.29c0.02,0,0.08-0.03,0.18-0.07
			c0.1-0.04,0.2-0.08,0.31-0.13c0.11-0.05,0.21-0.09,0.29-0.12c0.09-0.04,0.13-0.05,0.14-0.05c0.05,0.01,0.09,0.03,0.14,0.07
			c0.04,0.04,0.08,0.09,0.12,0.14c0.03,0.05,0.06,0.11,0.08,0.16c0.02,0.06,0.02,0.11,0.02,0.14c0,0.03-0.06,0.07-0.17,0.15
			c-0.11,0.07-0.25,0.16-0.42,0.25c-0.17,0.09-0.36,0.2-0.56,0.3c-0.21,0.11-0.4,0.21-0.59,0.3c-0.19,0.1-0.36,0.18-0.5,0.26
			c-0.15,0.07-0.25,0.12-0.3,0.15c-0.07-0.01-0.14-0.02-0.22-0.02c-0.37-0.26-0.74-0.53-1.11-0.79c-0.37-0.26-0.74-0.52-1.13-0.77
			c-0.03-0.06-0.06-0.11-0.09-0.17c0-0.04,0.05-0.09,0.12-0.16c0.08-0.07,0.17-0.14,0.27-0.21c0.1-0.07,0.2-0.14,0.3-0.2
			c0.1-0.06,0.17-0.11,0.21-0.14c0.2-1.69,0.4-3.38,0.6-5.06c0.01-0.06,0.01-0.13,0.02-0.22c0-0.09,0-0.18-0.02-0.26
			c-0.02-0.08-0.05-0.16-0.09-0.23c-0.04-0.07-0.12-0.11-0.21-0.12c-0.13-0.02-0.25,0-0.37,0.04c-0.12,0.04-0.23,0.1-0.34,0.17
			c-0.03,0.01-0.06,0.02-0.08,0.02c-0.02,0-0.04,0.01-0.06,0c-0.04,0-0.08-0.02-0.12-0.06c-0.04-0.03-0.08-0.07-0.12-0.12
			c-0.04-0.04-0.07-0.09-0.09-0.13c-0.02-0.05-0.04-0.08-0.04-0.12c0-0.03,0.05-0.08,0.15-0.17c0.1-0.09,0.22-0.19,0.38-0.3
			c0.15-0.12,0.32-0.23,0.5-0.36c0.18-0.12,0.35-0.24,0.51-0.34c0.16-0.1,0.3-0.19,0.42-0.26c0.12-0.07,0.2-0.1,0.24-0.09
			c0.02,0,0.03,0,0.05,0.01c0.29,0.18,0.54,0.4,0.77,0.65c0.22,0.25,0.38,0.53,0.48,0.84c0.11-0.14,0.24-0.28,0.38-0.42
			c0.15-0.14,0.31-0.26,0.48-0.37c0.17-0.11,0.36-0.19,0.55-0.26c0.19-0.06,0.39-0.09,0.6-0.09c0.06,0.03,0.12,0.07,0.19,0.1
			c0.16,0.29,0.32,0.57,0.47,0.85c0.16,0.28,0.31,0.57,0.45,0.86C59.13,214.86,59.09,214.94,59.05,215.01z"/>
		<path class="st16" d="M67.77,222.2c0.04,0,0.08,0.03,0.13,0.08c0.05,0.05,0.09,0.1,0.13,0.15c0.04,0.06,0.07,0.11,0.1,0.17
			c0.03,0.05,0.04,0.1,0.04,0.12c0,0.03-0.05,0.07-0.13,0.13c-0.09,0.06-0.2,0.14-0.33,0.22c-0.13,0.08-0.28,0.17-0.44,0.25
			c-0.16,0.09-0.31,0.17-0.45,0.24c-0.14,0.08-0.27,0.14-0.39,0.2c-0.12,0.06-0.19,0.1-0.24,0.12c-0.05,0.01-0.11,0.02-0.16,0.02
			c-0.18-0.04-0.35-0.12-0.49-0.24c-0.15-0.11-0.28-0.25-0.39-0.4c-0.11-0.15-0.2-0.31-0.27-0.48c-0.07-0.17-0.12-0.32-0.16-0.47
			c-0.41,0.2-0.81,0.4-1.22,0.59c-0.41,0.2-0.82,0.38-1.24,0.57c-0.08-0.01-0.15-0.02-0.23-0.02c-0.44-0.31-0.79-0.67-1.06-1.07
			c-0.27-0.4-0.47-0.82-0.61-1.27c-0.14-0.44-0.22-0.91-0.25-1.38c-0.02-0.48-0.01-0.95,0.04-1.42c0.13-1.2,0.53-2.19,1.2-2.95
			c0.67-0.76,1.63-1.33,2.9-1.69c0.06,0.01,0.12,0.01,0.18,0.02c0.1,0.06,0.26,0.14,0.49,0.25c0.22,0.11,0.47,0.23,0.75,0.37
			c0.27,0.13,0.56,0.28,0.85,0.42c0.29,0.15,0.56,0.28,0.8,0.42c0.24,0.13,0.44,0.25,0.59,0.35c0.15,0.1,0.22,0.17,0.22,0.21
			c0,0.05-0.05,0.09-0.12,0.14c-0.08,0.05-0.16,0.1-0.26,0.15c-0.09,0.05-0.18,0.11-0.26,0.18c-0.08,0.07-0.12,0.15-0.13,0.25
			c-0.18,1.86-0.37,3.71-0.55,5.57c0,0.03-0.01,0.07-0.01,0.12c0,0.05,0,0.09,0.01,0.14c0.01,0.05,0.02,0.09,0.05,0.12
			c0.02,0.03,0.06,0.05,0.11,0.06c0.12,0.01,0.24,0,0.35-0.04c0.12-0.04,0.22-0.09,0.31-0.15C67.68,222.2,67.73,222.19,67.77,222.2z
			 M65.25,216.09c-0.67-0.37-1.34-0.74-2.01-1.1c-0.16,0.2-0.29,0.41-0.4,0.64c-0.11,0.23-0.19,0.47-0.26,0.71
			c-0.07,0.24-0.12,0.49-0.16,0.74c-0.04,0.25-0.07,0.49-0.1,0.73c-0.01,0.12-0.02,0.31-0.03,0.55c-0.01,0.25,0,0.52,0.01,0.83
			c0.01,0.31,0.03,0.62,0.07,0.94c0.04,0.32,0.09,0.62,0.17,0.89c0.08,0.27,0.18,0.49,0.3,0.68c0.12,0.18,0.27,0.28,0.46,0.3
			c0.06,0.01,0.15-0.02,0.29-0.07c0.13-0.05,0.27-0.11,0.41-0.18c0.14-0.07,0.28-0.14,0.4-0.21c0.13-0.07,0.22-0.12,0.28-0.16
			c0.01,0,0.02,0,0.03,0C64.88,219.63,65.06,217.86,65.25,216.09z"/>
		<path class="st16" d="M87.67,217.86c-0.06,0.81-0.22,1.57-0.49,2.28c-0.27,0.71-0.63,1.38-1.07,2c-0.45,0.62-0.98,1.19-1.59,1.72
			c-0.61,0.53-1.28,1.02-2.02,1.46c-0.07,0-0.15,0-0.22,0c-1.91-0.88-3.8-1.78-5.7-2.67c-0.03-0.01-0.05-0.04-0.08-0.08
			c-0.03-0.04-0.04-0.07-0.04-0.11c0-0.03,0.08-0.1,0.22-0.21c0.14-0.11,0.31-0.26,0.49-0.45c0.18-0.19,0.35-0.42,0.5-0.68
			c0.16-0.26,0.25-0.56,0.28-0.89c0.15-1.76,0.3-3.53,0.45-5.29c0.01-0.15,0.01-0.3-0.02-0.44c-0.02-0.15-0.07-0.29-0.14-0.41
			c-0.07-0.13-0.17-0.23-0.29-0.32c-0.12-0.09-0.28-0.15-0.47-0.18c-0.17,0.13-0.34,0.25-0.51,0.37c-0.03,0-0.05,0-0.07,0.01
			c-0.02,0.01-0.04,0.02-0.07,0.01c-0.04-0.01-0.08-0.02-0.12-0.03c-0.1-0.08-0.2-0.16-0.29-0.24c-0.03-0.06-0.06-0.12-0.09-0.17
			c0-0.03,0.05-0.09,0.13-0.17c0.09-0.08,0.19-0.17,0.32-0.28c0.13-0.11,0.27-0.22,0.42-0.33c0.15-0.12,0.3-0.23,0.44-0.34
			c0.14-0.11,0.26-0.2,0.37-0.28c0.11-0.08,0.18-0.14,0.22-0.17c0.07-0.01,0.13-0.03,0.2-0.04c0.25,0.06,0.51,0.15,0.77,0.26
			c0.26,0.12,0.51,0.26,0.73,0.42c0.22,0.16,0.42,0.35,0.58,0.56c0.16,0.21,0.26,0.44,0.3,0.7c1.07-0.49,2.14-0.99,3.2-1.48
			c0.07,0.01,0.14,0.01,0.2,0.02c0.58,0.3,1.1,0.64,1.55,1.02c0.45,0.37,0.82,0.79,1.12,1.24c0.3,0.45,0.51,0.95,0.65,1.48
			C87.67,216.67,87.71,217.24,87.67,217.86z M85.17,219.02c0.04-0.49,0.03-0.97-0.02-1.47c-0.05-0.5-0.16-0.97-0.34-1.42
			c-0.18-0.45-0.44-0.85-0.78-1.22c-0.34-0.36-0.78-0.66-1.31-0.89c-0.32,0.14-0.63,0.29-0.94,0.43c-0.31,0.14-0.61,0.29-0.93,0.43
			c-0.14,1.7-0.27,3.4-0.41,5.1c-0.03,0.43-0.17,0.77-0.42,1.02c-0.25,0.26-0.57,0.49-0.97,0.7c1.37,0.65,2.75,1.3,4.13,1.94
			c0.61-0.65,1.08-1.38,1.4-2.17C84.91,220.68,85.11,219.86,85.17,219.02z"/>
		<path class="st16" d="M96.71,221.11c-0.02,0.43-0.08,0.84-0.17,1.24c-0.09,0.4-0.23,0.78-0.41,1.13
			c-0.19,0.35-0.43,0.68-0.72,0.98c-0.3,0.3-0.66,0.56-1.1,0.78c-0.06,0.03-0.18,0.09-0.35,0.18c-0.17,0.09-0.35,0.19-0.55,0.28
			c-0.19,0.09-0.38,0.18-0.54,0.25c-0.17,0.07-0.27,0.1-0.32,0.09c-0.61-0.19-1.14-0.46-1.59-0.8c-0.45-0.34-0.82-0.74-1.11-1.18
			c-0.29-0.45-0.49-0.93-0.62-1.46c-0.13-0.52-0.17-1.06-0.13-1.62c0.05-0.67,0.17-1.26,0.36-1.77c0.19-0.51,0.46-0.95,0.81-1.34
			c0.34-0.39,0.77-0.73,1.26-1.02c0.5-0.29,1.07-0.56,1.73-0.8c0.65,0.12,1.19,0.36,1.64,0.7c0.45,0.34,0.82,0.75,1.1,1.21
			c0.28,0.47,0.48,0.97,0.59,1.52C96.69,220.04,96.74,220.58,96.71,221.11z M94.63,222.22c0.03-0.44,0.02-0.89-0.03-1.36
			c-0.05-0.47-0.16-0.92-0.33-1.35c-0.17-0.43-0.4-0.83-0.71-1.19c-0.31-0.36-0.7-0.65-1.18-0.88c-0.23,0.16-0.41,0.36-0.55,0.59
			c-0.14,0.23-0.26,0.48-0.34,0.75c-0.09,0.26-0.15,0.53-0.19,0.81c-0.04,0.27-0.07,0.54-0.08,0.79c-0.02,0.28-0.02,0.57-0.01,0.87
			c0.01,0.29,0.05,0.58,0.12,0.87c0.06,0.29,0.16,0.57,0.28,0.84c0.12,0.27,0.29,0.52,0.49,0.76c0,0.01,0,0.01,0,0.02
			c0.07,0.1,0.16,0.2,0.25,0.31c0.1,0.1,0.2,0.2,0.31,0.3c0.11,0.09,0.23,0.18,0.36,0.25c0.13,0.07,0.26,0.12,0.41,0.15
			c0.22-0.12,0.4-0.28,0.56-0.47c0.15-0.19,0.27-0.4,0.37-0.63c0.09-0.23,0.16-0.46,0.21-0.7
			C94.59,222.68,94.62,222.45,94.63,222.22z"/>
		<path class="st16" d="M102.27,224.59c0.04,0,0.08,0.02,0.13,0.06c0.05,0.04,0.09,0.08,0.14,0.13c0.04,0.05,0.08,0.1,0.11,0.16
			c0.03,0.05,0.04,0.09,0.04,0.12c0,0.05-0.05,0.11-0.13,0.19c-0.09,0.08-0.2,0.17-0.33,0.26c-0.13,0.09-0.28,0.19-0.45,0.29
			c-0.16,0.1-0.32,0.2-0.47,0.29c-0.15,0.09-0.29,0.17-0.41,0.24c-0.12,0.07-0.21,0.12-0.27,0.15c-0.09,0-0.17-0.01-0.26-0.01
			c-0.36-0.25-0.73-0.49-1.08-0.73c-0.36-0.24-0.72-0.47-1.08-0.7c-0.04-0.05-0.07-0.11-0.11-0.16c0-0.04,0.04-0.09,0.1-0.15
			c0.06-0.06,0.13-0.13,0.21-0.2c0.08-0.07,0.16-0.13,0.24-0.2c0.08-0.06,0.14-0.11,0.19-0.15c0.16-2.81,0.31-5.62,0.47-8.43
			c0.01-0.21-0.03-0.37-0.14-0.48c-0.1-0.11-0.22-0.19-0.36-0.25c-0.14-0.06-0.27-0.12-0.4-0.17c-0.13-0.05-0.22-0.12-0.27-0.22
			c0-0.04,0.01-0.09,0.02-0.15c0.01-0.05,0.03-0.11,0.05-0.15c0.03-0.05,0.06-0.09,0.1-0.12c0.04-0.03,0.09-0.04,0.15-0.04
			c0.15,0.01,0.3,0.05,0.45,0.12c0.15,0.07,0.31,0.11,0.48,0.12c0.29,0.02,0.56-0.02,0.82-0.1c0.26-0.08,0.52-0.17,0.78-0.27
			c0.26-0.1,0.52-0.19,0.79-0.28c0.27-0.08,0.55-0.11,0.86-0.1c0.07,0,0.11,0.02,0.14,0.06c0.03,0.03,0.05,0.07,0.06,0.11
			c0.01,0.04,0.01,0.09,0.01,0.14c0,0.05,0,0.1,0,0.14c-0.05,0.09-0.15,0.16-0.31,0.21c-0.16,0.05-0.32,0.12-0.49,0.21
			c-0.17,0.09-0.32,0.2-0.46,0.36c-0.14,0.15-0.22,0.37-0.23,0.66c-0.16,3.01-0.32,6.03-0.47,9.04c0.1,0.06,0.2,0.13,0.28,0.2
			c0.09,0.07,0.18,0.14,0.28,0.21c0.03-0.02,0.09-0.05,0.16-0.1c0.08-0.05,0.15-0.09,0.24-0.14c0.08-0.04,0.16-0.08,0.23-0.12
			C102.19,224.61,102.24,224.59,102.27,224.59z"/>
		<path class="st16" d="M111.84,225.16c0.04,0,0.08,0.02,0.14,0.07c0.05,0.04,0.1,0.09,0.14,0.15c0.04,0.05,0.08,0.11,0.11,0.16
			c0.03,0.05,0.05,0.09,0.05,0.12c0,0.03-0.04,0.07-0.12,0.14c-0.08,0.07-0.19,0.15-0.32,0.24c-0.13,0.09-0.27,0.18-0.42,0.28
			c-0.15,0.1-0.3,0.19-0.44,0.27c-0.14,0.09-0.26,0.16-0.38,0.22c-0.11,0.06-0.19,0.11-0.23,0.13c-0.05,0.01-0.11,0.02-0.16,0.03
			c-0.18-0.03-0.35-0.1-0.51-0.21c-0.15-0.11-0.29-0.23-0.41-0.38c-0.12-0.14-0.22-0.3-0.3-0.46c-0.08-0.16-0.14-0.31-0.18-0.46
			c-0.39,0.22-0.79,0.45-1.18,0.66c-0.4,0.22-0.8,0.43-1.21,0.64c-0.08,0-0.15-0.01-0.23-0.01c-0.46-0.29-0.83-0.62-1.13-1
			c-0.29-0.38-0.52-0.79-0.69-1.23c-0.17-0.44-0.28-0.89-0.33-1.37c-0.05-0.48-0.07-0.95-0.04-1.42c0.06-1.21,0.4-2.21,1.02-3.02
			c0.62-0.8,1.55-1.42,2.79-1.86c0.06,0,0.12,0,0.18,0.01c0.1,0.05,0.27,0.12,0.5,0.22c0.23,0.1,0.49,0.21,0.77,0.32
			c0.28,0.12,0.57,0.24,0.87,0.37c0.3,0.13,0.57,0.25,0.82,0.37c0.25,0.12,0.45,0.22,0.61,0.31c0.16,0.09,0.23,0.16,0.23,0.19
			c0,0.05-0.04,0.09-0.11,0.15c-0.07,0.05-0.16,0.11-0.25,0.16c-0.09,0.06-0.17,0.13-0.25,0.2c-0.08,0.08-0.11,0.16-0.12,0.26
			c-0.07,1.86-0.14,3.73-0.22,5.59c0,0.03,0,0.07,0,0.12c0,0.05,0.01,0.09,0.02,0.14c0.01,0.05,0.03,0.09,0.05,0.12
			c0.03,0.03,0.06,0.05,0.12,0.05c0.12,0,0.23-0.02,0.35-0.06c0.11-0.05,0.22-0.11,0.3-0.17
			C111.75,225.17,111.8,225.16,111.84,225.16z M108.95,219.21c-0.69-0.33-1.38-0.65-2.07-0.98c-0.15,0.21-0.27,0.43-0.36,0.66
			c-0.09,0.24-0.17,0.48-0.22,0.72c-0.05,0.25-0.09,0.5-0.12,0.75c-0.02,0.25-0.04,0.5-0.05,0.74c-0.01,0.12,0,0.31,0,0.55
			c0.01,0.25,0.03,0.52,0.06,0.83c0.03,0.31,0.07,0.62,0.13,0.94c0.05,0.32,0.13,0.61,0.22,0.88c0.09,0.26,0.21,0.48,0.34,0.66
			c0.13,0.17,0.29,0.27,0.47,0.27c0.06,0,0.15-0.03,0.28-0.09c0.13-0.06,0.26-0.13,0.4-0.2c0.14-0.08,0.27-0.15,0.39-0.23
			c0.12-0.08,0.21-0.14,0.27-0.17c0.01,0,0.02,0,0.03,0C108.8,222.76,108.87,220.99,108.95,219.21z"/>
		<path class="st16" d="M127.75,222.94c0,0.3-0.07,0.61-0.19,0.91c-0.12,0.31-0.29,0.6-0.49,0.89c-0.21,0.29-0.44,0.56-0.72,0.83
			c-0.27,0.26-0.56,0.51-0.86,0.74c-0.3,0.23-0.61,0.43-0.92,0.61c-0.31,0.18-0.61,0.33-0.89,0.46c-0.57-0.14-1.07-0.36-1.51-0.67
			c-0.44-0.31-0.81-0.66-1.11-1.08c-0.3-0.41-0.53-0.86-0.68-1.35c-0.16-0.49-0.23-0.98-0.21-1.48c0.01-0.46,0.09-0.91,0.23-1.34
			c0.14-0.44,0.35-0.84,0.61-1.22c0.26-0.38,0.58-0.71,0.95-1.01c0.37-0.3,0.8-0.54,1.27-0.71c-0.21-0.14-0.43-0.3-0.68-0.49
			c-0.24-0.18-0.47-0.38-0.68-0.59c-0.21-0.21-0.38-0.44-0.52-0.68c-0.14-0.24-0.2-0.49-0.2-0.75c0.01-0.2,0.09-0.39,0.25-0.58
			c0.16-0.19,0.36-0.36,0.59-0.51c0.23-0.15,0.48-0.27,0.74-0.36c0.26-0.09,0.49-0.14,0.68-0.15c0.13,0.04,0.22,0.11,0.26,0.2
			c0.04,0.09,0.06,0.2,0.06,0.32c0,0.05-0.05,0.08-0.13,0.09c-0.09,0.02-0.19,0.04-0.29,0.08c-0.1,0.03-0.2,0.08-0.29,0.14
			c-0.09,0.06-0.14,0.16-0.14,0.29c0,0.13,0.09,0.29,0.29,0.49c0.2,0.19,0.45,0.42,0.76,0.68c0.31,0.26,0.65,0.54,1.02,0.86
			c0.37,0.31,0.73,0.65,1.08,1.01c0.35,0.36,0.67,0.74,0.95,1.13c0.28,0.4,0.48,0.81,0.6,1.24c0.09,0.33,0.14,0.66,0.16,1
			C127.75,222.27,127.76,222.61,127.75,222.94z M125.65,223.57c0.01-0.39-0.01-0.79-0.06-1.22c-0.05-0.42-0.14-0.83-0.27-1.23
			c-0.13-0.4-0.31-0.78-0.53-1.14c-0.22-0.36-0.5-0.67-0.85-0.94c-0.35,0.21-0.63,0.45-0.85,0.71c-0.22,0.26-0.38,0.53-0.5,0.83
			c-0.12,0.3-0.2,0.61-0.24,0.94c-0.04,0.33-0.06,0.68-0.07,1.03c-0.01,0.32,0.03,0.66,0.11,1.03c0.08,0.37,0.22,0.72,0.42,1.03
			c0.19,0.32,0.45,0.59,0.75,0.8c0.31,0.22,0.69,0.33,1.13,0.34c0.16,0,0.3-0.09,0.41-0.27c0.12-0.19,0.21-0.4,0.29-0.65
			c0.08-0.25,0.14-0.49,0.18-0.73C125.62,223.85,125.65,223.68,125.65,223.57z"/>
		<path class="st16" d="M134.23,217.61c0.03,0.07,0.1,0.2,0.22,0.41c0.11,0.21,0.24,0.46,0.39,0.75c0.15,0.29,0.3,0.59,0.47,0.9
			c0.16,0.32,0.31,0.61,0.45,0.88c0.14,0.27,0.25,0.5,0.35,0.69c0.09,0.19,0.14,0.29,0.14,0.31c0,0.04-0.1,0.11-0.29,0.22
			c-0.19,0.11-0.43,0.23-0.73,0.38c-0.3,0.14-0.62,0.3-0.97,0.46c-0.35,0.16-0.69,0.32-1.02,0.46c-0.33,0.15-0.62,0.28-0.87,0.39
			c-0.25,0.11-0.43,0.19-0.52,0.23c0.05,0.23,0.12,0.47,0.21,0.71c0.09,0.25,0.21,0.48,0.36,0.7c0.15,0.22,0.34,0.39,0.56,0.53
			c0.22,0.14,0.49,0.21,0.81,0.22c0.11,0,0.25-0.02,0.44-0.08c0.19-0.05,0.38-0.11,0.58-0.19c0.19-0.08,0.38-0.16,0.54-0.25
			c0.17-0.09,0.28-0.17,0.34-0.25c0.04-0.01,0.07-0.01,0.11-0.02c0.05,0,0.09,0.02,0.13,0.05c0.04,0.04,0.07,0.08,0.1,0.13
			c0.03,0.05,0.05,0.1,0.06,0.16c0.02,0.05,0.02,0.1,0.02,0.14c0,0.01,0,0.03-0.01,0.06c-0.01,0.03-0.02,0.04-0.03,0.06
			c-1.02,0.6-2.05,1.21-3.08,1.81c-0.07,0.01-0.13,0.02-0.2,0.04c-0.65-0.19-1.19-0.48-1.63-0.89c-0.44-0.41-0.79-0.87-1.05-1.39
			c-0.26-0.52-0.45-1.07-0.55-1.65c-0.11-0.58-0.16-1.14-0.15-1.69c0.01-0.64,0.13-1.22,0.35-1.73c0.22-0.51,0.53-0.95,0.93-1.32
			c0.4-0.37,0.88-0.67,1.45-0.89c0.56-0.22,1.19-0.37,1.87-0.45C134.08,217.53,134.16,217.57,134.23,217.61z M134.05,221.63
			c-0.53-0.95-1.05-1.9-1.57-2.86c-0.13,0.09-0.27,0.19-0.4,0.28c-0.21,0.4-0.35,0.82-0.42,1.26c-0.07,0.44-0.1,0.88-0.11,1.32
			c0,0.19,0,0.38,0.02,0.58c0.01,0.2,0.03,0.39,0.06,0.58C132.43,222.4,133.24,222.01,134.05,221.63z"/>
		<path class="st16" d="M141.78,225.51c0.04,0,0.08,0.02,0.13,0.05c0.05,0.03,0.1,0.08,0.14,0.13c0.05,0.05,0.09,0.1,0.12,0.15
			c0.03,0.05,0.05,0.09,0.05,0.12c0,0.05-0.04,0.11-0.12,0.19c-0.08,0.08-0.19,0.18-0.32,0.28c-0.13,0.1-0.27,0.21-0.43,0.32
			c-0.16,0.11-0.31,0.21-0.46,0.31c-0.15,0.1-0.28,0.19-0.4,0.26c-0.12,0.08-0.21,0.13-0.26,0.17c-0.09,0-0.17,0-0.26,0
			c-0.38-0.23-0.75-0.45-1.12-0.67c-0.37-0.22-0.74-0.43-1.12-0.64c-0.04-0.05-0.08-0.1-0.12-0.16c0-0.04,0.03-0.09,0.09-0.16
			c0.06-0.07,0.13-0.14,0.2-0.21c0.08-0.07,0.15-0.14,0.23-0.21c0.08-0.06,0.14-0.12,0.18-0.16c0-2.82,0.01-5.63,0.01-8.45
			c0-0.21-0.05-0.37-0.16-0.47c-0.11-0.1-0.23-0.18-0.37-0.23c-0.14-0.05-0.28-0.1-0.41-0.15c-0.13-0.04-0.23-0.11-0.28-0.21
			c0-0.04,0-0.09,0.01-0.15c0.01-0.05,0.02-0.11,0.04-0.16c0.02-0.05,0.05-0.09,0.09-0.12c0.04-0.03,0.09-0.05,0.15-0.05
			c0.15,0,0.3,0.03,0.46,0.1c0.16,0.06,0.32,0.1,0.49,0.1c0.29,0,0.56-0.05,0.82-0.14c0.26-0.09,0.51-0.2,0.77-0.32
			c0.25-0.12,0.51-0.22,0.78-0.32c0.26-0.09,0.55-0.14,0.85-0.14c0.07,0,0.11,0.02,0.15,0.05c0.03,0.03,0.06,0.07,0.07,0.11
			c0.01,0.04,0.02,0.09,0.02,0.14c0,0.05,0,0.1,0.01,0.14c-0.05,0.09-0.14,0.17-0.3,0.23c-0.15,0.06-0.31,0.14-0.48,0.23
			c-0.17,0.09-0.31,0.22-0.44,0.38c-0.13,0.16-0.19,0.38-0.19,0.68c0.01,3.02,0.01,6.03,0.02,9.05c0.11,0.06,0.2,0.12,0.29,0.18
			c0.09,0.06,0.19,0.13,0.29,0.19c0.03-0.02,0.09-0.05,0.16-0.11c0.07-0.05,0.15-0.1,0.23-0.15c0.08-0.05,0.15-0.09,0.23-0.13
			C141.7,225.53,141.75,225.51,141.78,225.51z"/>
		<path class="st16" d="M160.63,214.42c0.05,0,0.1,0.02,0.14,0.05c0.04,0.03,0.06,0.08,0.06,0.13c0,0.02-0.03,0.07-0.1,0.15
			c-0.07,0.08-0.15,0.17-0.25,0.28c-0.1,0.11-0.21,0.23-0.34,0.36c-0.12,0.13-0.24,0.25-0.35,0.37c-0.11,0.12-0.21,0.22-0.3,0.31
			c-0.09,0.09-0.15,0.15-0.18,0.18c-0.05,0.02-0.1,0.04-0.15,0.06c-0.64,0.02-1.29,0.03-1.94,0.05c-0.08,0-0.14,0.03-0.19,0.09
			c-0.05,0.06-0.09,0.13-0.13,0.22c-0.03,0.08-0.06,0.17-0.07,0.25c-0.01,0.08-0.02,0.15-0.01,0.2c0.05,2.21,0.11,4.43,0.16,6.64
			c0,0.2-0.07,0.38-0.22,0.55c-0.15,0.17-0.34,0.31-0.56,0.44c-0.22,0.13-0.45,0.25-0.7,0.34c-0.24,0.1-0.45,0.17-0.63,0.22
			c0.32,0.06,0.64,0.11,0.95,0.12c0.32,0.02,0.64,0.02,0.97,0.02c0.32-0.01,0.64-0.03,0.96-0.07c0.32-0.04,0.64-0.09,0.95-0.17
			c0.31-0.08,0.61-0.17,0.9-0.3c0.29-0.12,0.57-0.27,0.83-0.46c0.09,0,0.17-0.01,0.26-0.01c0.08,0.05,0.17,0.1,0.25,0.15
			c0.03,0.04,0.06,0.09,0.09,0.13c0,0.02-0.03,0.07-0.08,0.16c-0.05,0.09-0.12,0.19-0.2,0.31c-0.08,0.12-0.17,0.25-0.27,0.4
			c-0.1,0.14-0.19,0.28-0.28,0.41c-0.09,0.13-0.17,0.24-0.23,0.34c-0.07,0.1-0.11,0.17-0.14,0.2c0.01,0,0.01,0,0.02,0
			c-0.06,0.1-0.13,0.2-0.19,0.3c-0.05,0.04-0.1,0.07-0.16,0.11c-0.43,0.11-0.87,0.19-1.31,0.24c-0.44,0.05-0.89,0.08-1.34,0.1
			c-0.64,0.02-1.27-0.02-1.87-0.11c-0.61-0.09-1.18-0.23-1.72-0.42c-0.54-0.19-1.03-0.44-1.48-0.74c-0.45-0.3-0.84-0.65-1.16-1.05
			c-0.32-0.4-0.58-0.86-0.76-1.37c-0.19-0.51-0.28-1.08-0.29-1.7c-0.01-0.5,0.05-1.01,0.18-1.52c0.12-0.51,0.3-1,0.54-1.47
			c0.23-0.47,0.52-0.92,0.86-1.34c0.34-0.42,0.71-0.8,1.13-1.13c-0.38,0.01-0.7,0.01-0.95,0.01c-0.25,0-0.47,0.02-0.66,0.07
			c-0.19,0.05-0.38,0.14-0.55,0.28c-0.18,0.13-0.38,0.34-0.62,0.62c-0.07,0.03-0.14,0.05-0.21,0.08c-0.03-0.01-0.08-0.02-0.16-0.03
			c-0.07-0.01-0.14-0.03-0.21-0.05c-0.07-0.02-0.13-0.04-0.18-0.07c-0.05-0.03-0.08-0.06-0.08-0.1c0-0.04,0.01-0.1,0.04-0.15
			c0.03-0.06,0.06-0.11,0.1-0.17c0.04-0.06,0.08-0.11,0.11-0.16c0.04-0.05,0.06-0.09,0.08-0.13c0.18-0.29,0.37-0.56,0.54-0.8
			c0.18-0.25,0.37-0.46,0.6-0.64c0.22-0.18,0.48-0.33,0.77-0.43c0.29-0.11,0.65-0.17,1.06-0.17
			C154.84,214.58,157.73,214.51,160.63,214.42z M153.71,217.42c-0.01-0.04,0.03-0.09,0.12-0.15c0.08-0.06,0.19-0.12,0.31-0.19
			c0.13-0.07,0.27-0.14,0.42-0.21c0.16-0.07,0.31-0.14,0.45-0.2c0.15-0.06,0.28-0.11,0.39-0.16c0.12-0.04,0.2-0.08,0.25-0.11
			c-0.66,0.02-1.32,0.03-1.99,0.04c-0.35,0.28-0.66,0.59-0.92,0.93c-0.26,0.34-0.48,0.7-0.65,1.09c-0.17,0.38-0.3,0.78-0.38,1.19
			c-0.08,0.41-0.12,0.82-0.11,1.24c0.01,0.37,0.05,0.75,0.13,1.14c0.08,0.39,0.21,0.77,0.38,1.13c0.17,0.36,0.38,0.7,0.65,1.01
			c0.27,0.31,0.59,0.56,0.96,0.75c0.07-0.02,0.16-0.04,0.26-0.09c0.1-0.04,0.2-0.1,0.29-0.16c0.09-0.06,0.17-0.13,0.23-0.2
			c0.07-0.07,0.1-0.15,0.09-0.22c-0.04-1.95-0.08-3.9-0.12-5.84c0-0.09-0.02-0.18-0.06-0.26c-0.04-0.08-0.09-0.15-0.16-0.22
			c-0.07-0.07-0.14-0.13-0.21-0.18c-0.08-0.05-0.15-0.1-0.23-0.15C153.78,217.54,153.74,217.48,153.71,217.42z"/>
		<path class="st16" d="M169.24,221.73c0.02,0.43,0,0.84-0.05,1.25c-0.05,0.41-0.15,0.8-0.3,1.17c-0.15,0.37-0.36,0.72-0.62,1.05
			c-0.27,0.33-0.6,0.62-1.02,0.88c-0.06,0.03-0.17,0.11-0.33,0.22c-0.16,0.11-0.33,0.22-0.52,0.34c-0.18,0.11-0.36,0.21-0.52,0.3
			c-0.16,0.09-0.26,0.13-0.31,0.12c-0.63-0.13-1.18-0.35-1.67-0.64c-0.48-0.29-0.89-0.65-1.22-1.07c-0.33-0.42-0.58-0.88-0.76-1.39
			c-0.18-0.51-0.27-1.04-0.29-1.6c-0.02-0.67,0.04-1.27,0.18-1.79c0.14-0.52,0.36-0.99,0.67-1.42c0.3-0.42,0.69-0.8,1.16-1.14
			c0.47-0.34,1.01-0.66,1.64-0.97c0.66,0.06,1.22,0.24,1.71,0.53c0.48,0.3,0.89,0.66,1.21,1.1c0.33,0.44,0.57,0.92,0.74,1.45
			C169.12,220.66,169.21,221.19,169.24,221.73z M167.28,223.04c-0.02-0.44-0.07-0.89-0.17-1.35c-0.1-0.46-0.25-0.9-0.46-1.31
			c-0.21-0.41-0.48-0.78-0.82-1.11c-0.34-0.33-0.76-0.58-1.26-0.76c-0.21,0.18-0.37,0.4-0.49,0.64c-0.12,0.25-0.21,0.51-0.27,0.78
			c-0.06,0.27-0.09,0.54-0.1,0.82c-0.01,0.28-0.01,0.54,0,0.79c0.01,0.29,0.04,0.57,0.08,0.86c0.04,0.29,0.11,0.57,0.2,0.85
			c0.09,0.28,0.21,0.55,0.36,0.8c0.15,0.26,0.34,0.49,0.56,0.7c0,0.01,0,0.01,0,0.02c0.08,0.09,0.18,0.19,0.28,0.28
			c0.11,0.09,0.22,0.18,0.34,0.26c0.12,0.08,0.25,0.15,0.38,0.21c0.13,0.06,0.27,0.09,0.42,0.11c0.21-0.14,0.37-0.32,0.51-0.52
			c0.13-0.21,0.23-0.43,0.3-0.66c0.07-0.24,0.12-0.48,0.14-0.72C167.29,223.49,167.29,223.26,167.28,223.04z"/>
		<path class="st16" d="M177.67,218.22c-0.06,0.06-0.15,0.17-0.29,0.31c-0.14,0.15-0.29,0.3-0.44,0.45
			c-0.15,0.15-0.3,0.29-0.45,0.41c-0.15,0.12-0.25,0.18-0.32,0.18c-0.01,0-0.1-0.03-0.25-0.09c-0.15-0.06-0.34-0.14-0.55-0.22
			c-0.22-0.09-0.46-0.19-0.71-0.3c-0.26-0.11-0.5-0.21-0.72-0.31c-0.22-0.1-0.42-0.18-0.58-0.25c-0.16-0.07-0.26-0.11-0.3-0.13
			c-0.15,0.19-0.25,0.39-0.31,0.61c-0.06,0.22-0.08,0.44-0.07,0.66c0.01,0.19,0.09,0.34,0.23,0.47c0.15,0.13,0.34,0.24,0.57,0.33
			c0.23,0.1,0.5,0.18,0.8,0.26c0.3,0.08,0.6,0.16,0.91,0.25c0.31,0.09,0.61,0.19,0.91,0.3c0.3,0.12,0.57,0.25,0.81,0.42
			c0.24,0.17,0.44,0.37,0.59,0.6c0.15,0.23,0.24,0.51,0.26,0.84c0.02,0.44-0.04,0.83-0.2,1.17c-0.16,0.34-0.37,0.65-0.64,0.93
			c-0.27,0.28-0.57,0.54-0.91,0.78c-0.34,0.24-0.67,0.48-1.01,0.73c-0.06,0.01-0.13,0.02-0.19,0.03c-0.31-0.08-0.62-0.18-0.92-0.31
			c-0.3-0.13-0.6-0.26-0.9-0.39c-0.3-0.13-0.61-0.23-0.92-0.32c-0.31-0.09-0.64-0.12-0.98-0.11c-0.05-0.02-0.11-0.05-0.18-0.09
			c-0.06-0.05-0.1-0.09-0.1-0.15c0-0.04,0.06-0.13,0.18-0.26c0.12-0.13,0.27-0.27,0.43-0.42c0.16-0.15,0.32-0.29,0.46-0.42
			c0.15-0.13,0.24-0.22,0.29-0.27c0.08-0.02,0.16-0.03,0.24-0.05c1.11,0.42,2.23,0.84,3.34,1.26c0.16-0.14,0.31-0.3,0.44-0.48
			c0.13-0.19,0.18-0.39,0.17-0.61c-0.01-0.25-0.1-0.46-0.26-0.63c-0.16-0.17-0.36-0.32-0.61-0.45c-0.25-0.13-0.53-0.24-0.85-0.34
			c-0.32-0.1-0.64-0.2-0.97-0.3c-0.33-0.1-0.66-0.22-0.97-0.34c-0.32-0.12-0.6-0.27-0.85-0.44c-0.25-0.17-0.46-0.38-0.61-0.62
			c-0.16-0.24-0.25-0.53-0.26-0.88c-0.01-0.34,0.07-0.68,0.27-1c0.19-0.33,0.43-0.63,0.73-0.92c0.29-0.29,0.61-0.55,0.94-0.79
			c0.34-0.24,0.65-0.45,0.94-0.62c0.07,0,0.14-0.01,0.21-0.01c0.22,0.1,0.48,0.22,0.77,0.35c0.29,0.13,0.59,0.26,0.9,0.38
			c0.31,0.12,0.61,0.22,0.91,0.3c0.3,0.08,0.57,0.12,0.82,0.1c0.04,0.03,0.09,0.07,0.13,0.1
			C177.61,218.03,177.64,218.13,177.67,218.22z"/>
		<path class="st16" d="M186.81,220.8c0.03,0.43,0.02,0.84-0.02,1.25c-0.04,0.41-0.13,0.8-0.27,1.18c-0.14,0.38-0.34,0.73-0.6,1.06
			c-0.26,0.33-0.59,0.64-0.99,0.91c-0.06,0.04-0.17,0.11-0.32,0.22c-0.16,0.11-0.33,0.23-0.51,0.35c-0.18,0.12-0.35,0.22-0.51,0.31
			c-0.16,0.09-0.26,0.13-0.31,0.13c-0.63-0.12-1.19-0.32-1.68-0.6c-0.49-0.28-0.91-0.63-1.25-1.04c-0.34-0.41-0.61-0.87-0.8-1.37
			c-0.19-0.51-0.3-1.03-0.33-1.59c-0.04-0.67,0.01-1.27,0.14-1.8c0.13-0.53,0.34-1,0.63-1.43c0.29-0.43,0.67-0.82,1.13-1.17
			c0.46-0.35,1-0.69,1.62-1.01c0.66,0.04,1.23,0.21,1.72,0.49c0.49,0.28,0.9,0.64,1.24,1.07c0.34,0.43,0.59,0.91,0.78,1.43
			C186.67,219.73,186.78,220.26,186.81,220.8z M184.89,222.15c-0.03-0.44-0.1-0.89-0.2-1.35c-0.11-0.46-0.27-0.89-0.49-1.3
			c-0.22-0.41-0.5-0.77-0.85-1.09c-0.35-0.32-0.77-0.56-1.28-0.73c-0.21,0.19-0.36,0.4-0.48,0.65c-0.11,0.25-0.2,0.51-0.25,0.78
			c-0.05,0.27-0.08,0.55-0.08,0.82c0,0.28,0,0.54,0.02,0.79c0.02,0.28,0.05,0.57,0.1,0.86c0.05,0.29,0.12,0.57,0.22,0.85
			c0.1,0.28,0.23,0.54,0.38,0.79c0.16,0.25,0.35,0.48,0.58,0.69c0,0.01,0,0.01,0,0.02c0.08,0.09,0.18,0.18,0.29,0.27
			c0.11,0.09,0.22,0.18,0.34,0.26c0.12,0.08,0.25,0.15,0.38,0.2c0.14,0.05,0.28,0.09,0.42,0.1c0.2-0.15,0.37-0.33,0.49-0.54
			c0.13-0.21,0.22-0.43,0.29-0.67c0.06-0.24,0.1-0.48,0.12-0.72C184.91,222.6,184.91,222.37,184.89,222.15z"/>
		<path class="st16" d="M197.57,223.27c0.04,0,0.09,0.02,0.14,0.06c0.06,0.04,0.11,0.09,0.17,0.14c0.06,0.05,0.11,0.11,0.15,0.16
			c0.04,0.05,0.06,0.09,0.06,0.12c0.01,0.07-0.07,0.18-0.24,0.33c-0.16,0.15-0.35,0.3-0.57,0.46c-0.22,0.16-0.43,0.31-0.63,0.45
			c-0.2,0.14-0.34,0.24-0.41,0.29c-0.08,0.01-0.15,0.02-0.23,0.04c-0.21-0.08-0.4-0.17-0.59-0.28c-0.19-0.1-0.36-0.23-0.5-0.37
			c-0.14-0.14-0.26-0.29-0.35-0.47c-0.09-0.17-0.15-0.36-0.16-0.58c-0.15-1.97-0.3-3.94-0.45-5.91c-0.13-0.07-0.25-0.15-0.37-0.23
			c-0.12-0.08-0.24-0.15-0.37-0.23c-0.57,0.34-1.15,0.69-1.73,1.03c0.17,2.29,0.33,4.58,0.5,6.88c0,0.05-0.02,0.1-0.06,0.14
			c-0.04,0.04-0.09,0.06-0.14,0.06c-0.56,0.04-1.12,0.08-1.67,0.12c-0.05,0-0.1-0.01-0.14-0.04c-0.04-0.03-0.07-0.07-0.07-0.13
			c-0.16-2.36-0.33-4.72-0.49-7.08c-0.01-0.13-0.07-0.25-0.19-0.35c-0.12-0.11-0.25-0.15-0.4-0.14c-0.14,0.01-0.26,0.06-0.34,0.16
			c-0.03,0.01-0.05,0.03-0.07,0.03c-0.02,0.01-0.04,0.01-0.07,0.01c-0.06,0-0.13-0.03-0.2-0.09c-0.08-0.06-0.14-0.11-0.19-0.14
			c-0.03-0.04-0.05-0.08-0.08-0.12c0-0.03,0.03-0.08,0.11-0.17c0.07-0.09,0.17-0.19,0.28-0.31c0.11-0.12,0.24-0.25,0.38-0.39
			c0.14-0.14,0.27-0.27,0.4-0.39c0.13-0.12,0.24-0.23,0.34-0.33c0.1-0.1,0.17-0.16,0.2-0.2c0.07-0.02,0.14-0.04,0.21-0.05
			c0.44,0.14,0.79,0.34,1.05,0.6c0.27,0.26,0.45,0.6,0.54,1c0.98-0.64,1.96-1.28,2.93-1.93c0.08,0,0.17,0,0.25,0
			c0.68,0.39,1.37,0.78,2.06,1.17c0.03,0.05,0.07,0.1,0.1,0.16c0.01,0.04-0.01,0.09-0.07,0.15c-0.05,0.06-0.12,0.13-0.19,0.19
			c-0.07,0.06-0.15,0.12-0.23,0.18c-0.08,0.06-0.13,0.1-0.17,0.13c0.16,2.01,0.32,4.02,0.48,6.03c0,0.02,0,0.05,0.01,0.09
			c0,0.04,0.01,0.08,0.01,0.13c0.01,0.04,0.02,0.08,0.04,0.11c0.02,0.03,0.05,0.04,0.09,0.04c0.09-0.01,0.17-0.03,0.25-0.08
			c0.07-0.04,0.14-0.1,0.21-0.16c0.06-0.06,0.13-0.12,0.19-0.18C197.42,223.35,197.49,223.3,197.57,223.27z"/>
		<path class="st16" d="M209.45,211.06c1.1-0.11,2.11-0.05,3.05,0.18c0.93,0.23,1.75,0.6,2.45,1.12c0.7,0.52,1.27,1.16,1.71,1.95
			c0.44,0.78,0.71,1.67,0.82,2.66c0.07,0.62,0.07,1.19,0,1.73c-0.06,0.53-0.19,1.05-0.37,1.54c-0.19,0.5-0.43,0.98-0.73,1.45
			c-0.3,0.47-0.66,0.95-1.06,1.44c0.01,0,0.02,0,0.03,0c-0.13,0.15-0.27,0.29-0.4,0.44c-0.05,0.02-0.11,0.05-0.16,0.07
			c-2.63,0.27-5.27,0.53-7.9,0.77c-0.15,0.01-0.22-0.04-0.24-0.17c-0.01-0.05-0.01-0.11-0.02-0.16c0.03-0.05,0.05-0.1,0.08-0.14
			c0.17-0.15,0.36-0.31,0.56-0.47c0.2-0.16,0.39-0.33,0.56-0.51c0.17-0.18,0.31-0.37,0.42-0.58c0.11-0.21,0.15-0.43,0.12-0.68
			c-0.19-1.97-0.37-3.93-0.56-5.9c-0.01-0.15-0.05-0.27-0.11-0.35c-0.06-0.08-0.13-0.13-0.22-0.17c-0.09-0.03-0.17-0.05-0.27-0.06
			c-0.09,0-0.18-0.01-0.26-0.02c-0.08-0.01-0.15-0.03-0.21-0.05c-0.05-0.02-0.09-0.07-0.09-0.14c0-0.03,0.06-0.08,0.18-0.18
			c0.12-0.09,0.27-0.2,0.46-0.33c0.18-0.13,0.39-0.26,0.61-0.41c0.22-0.14,0.44-0.28,0.64-0.41c0.21-0.13,0.39-0.25,0.55-0.34
			c0.16-0.1,0.27-0.17,0.33-0.21c-0.36,0.03-0.71,0.09-1.07,0.16c-0.35,0.07-0.7,0.16-1.03,0.27c-0.33,0.11-0.66,0.25-0.97,0.41
			c-0.31,0.16-0.6,0.36-0.87,0.58c-0.08,0.01-0.16,0.01-0.23,0.02c-0.05-0.01-0.12-0.04-0.2-0.08c-0.08-0.04-0.13-0.09-0.13-0.14
			c0-0.02,0.02-0.09,0.05-0.22c0.04-0.13,0.09-0.28,0.14-0.46c0.06-0.18,0.12-0.37,0.2-0.58c0.07-0.2,0.14-0.4,0.21-0.57
			c0.06-0.18,0.12-0.33,0.17-0.45c0.05-0.12,0.09-0.18,0.1-0.2c0.59-0.22,1.19-0.4,1.8-0.53
			C208.2,211.21,208.82,211.12,209.45,211.06z M215.45,219.13c-0.04-0.42-0.1-0.85-0.18-1.29c-0.08-0.44-0.18-0.86-0.32-1.27
			c-0.14-0.41-0.3-0.8-0.51-1.18c-0.2-0.37-0.45-0.71-0.75-1.01c-0.3-0.3-0.65-0.55-1.06-0.76c-0.41-0.21-0.89-0.36-1.43-0.45
			c0.01,0,0.01,0,0.02,0c-0.05-0.01-0.09-0.01-0.13-0.01c-0.04,0-0.09,0.01-0.13,0.01c-0.19,0.02-0.35,0.09-0.47,0.21
			c-0.12,0.12-0.21,0.26-0.27,0.42c-0.06,0.16-0.1,0.33-0.12,0.51c-0.02,0.18-0.02,0.33,0,0.47c0.21,2.1,0.41,4.21,0.62,6.31
			c0.01,0.12-0.01,0.23-0.05,0.33c-0.05,0.1-0.11,0.2-0.19,0.29c-0.08,0.09-0.16,0.17-0.26,0.25c-0.1,0.08-0.19,0.15-0.29,0.22
			c1.71-0.16,3.41-0.34,5.12-0.51c0.17-0.41,0.29-0.83,0.36-1.26C215.48,219.98,215.5,219.55,215.45,219.13z"/>
		<path class="st16" d="M219.5,210.03c0.14-0.02,0.28-0.01,0.42,0.02c0.14,0.03,0.26,0.07,0.37,0.13c0.11,0.06,0.2,0.14,0.27,0.24
			c0.07,0.1,0.11,0.22,0.13,0.35c0.03,0.28,0.02,0.61-0.03,0.98c-0.05,0.37-0.13,0.74-0.24,1.12c-0.11,0.38-0.23,0.74-0.38,1.1
			c-0.15,0.35-0.3,0.66-0.45,0.92c-0.06,0.03-0.11,0.05-0.17,0.08c-0.3,0.03-0.53-0.06-0.7-0.26c-0.05-1.31-0.09-2.62-0.14-3.93
			c-0.01-0.12,0.02-0.22,0.08-0.3c0.06-0.08,0.13-0.16,0.21-0.22c0.09-0.06,0.18-0.11,0.29-0.14
			C219.28,210.06,219.39,210.04,219.5,210.03z"/>
		<path class="st16" d="M236.56,214.78c0.11,0.84,0.04,1.66-0.23,2.46c-0.27,0.8-0.68,1.52-1.24,2.17s-1.24,1.19-2.03,1.63
			c-0.8,0.44-1.67,0.72-2.61,0.83c-1.05,0.13-1.99,0.07-2.81-0.19c-0.82-0.26-1.52-0.65-2.1-1.19c-0.58-0.53-1.04-1.18-1.39-1.92
			c-0.34-0.75-0.56-1.55-0.66-2.41c-0.07-0.6-0.05-1.19,0.05-1.77c0.1-0.58,0.28-1.12,0.54-1.64c0.26-0.52,0.58-1,0.97-1.45
			c0.39-0.45,0.83-0.84,1.33-1.19c0.5-0.35,1.04-0.63,1.63-0.86c0.59-0.23,1.22-0.39,1.9-0.47c0.1-0.01,0.17,0.05,0.23,0.19
			c0.05,0.14,0.09,0.3,0.11,0.48c0.02,0.19,0.04,0.37,0.05,0.55c0.01,0.18,0.02,0.3,0.03,0.37c0.06-0.07,0.15-0.18,0.29-0.33
			c0.13-0.16,0.27-0.32,0.42-0.49c0.15-0.17,0.29-0.32,0.43-0.45c0.14-0.13,0.24-0.2,0.31-0.21c0.02,0,0.03,0,0.05-0.01
			c0.72,0.22,1.35,0.53,1.9,0.92c0.55,0.39,1.02,0.85,1.41,1.37c0.39,0.52,0.71,1.09,0.94,1.7
			C236.31,213.48,236.47,214.12,236.56,214.78z M227.91,210.26c-0.38,0.12-0.7,0.3-0.95,0.54c-0.26,0.24-0.46,0.52-0.62,0.84
			c-0.16,0.32-0.28,0.66-0.35,1.04c-0.08,0.37-0.13,0.74-0.15,1.12c-0.02,0.37-0.02,0.74,0,1.1c0.02,0.36,0.05,0.68,0.08,0.97
			c0.05,0.41,0.13,0.84,0.24,1.32c0.11,0.47,0.27,0.93,0.47,1.37c0.21,0.44,0.47,0.84,0.78,1.21c0.31,0.36,0.7,0.63,1.15,0.81
			c0.14-0.09,0.25-0.18,0.32-0.26c0.07-0.09,0.12-0.18,0.15-0.28c0.03-0.1,0.04-0.2,0.04-0.31c0-0.11-0.01-0.23-0.03-0.37
			C228.66,216.33,228.28,213.3,227.91,210.26z M234.22,215.99c-0.06-0.45-0.16-0.93-0.29-1.43c-0.14-0.5-0.32-0.99-0.56-1.45
			c-0.24-0.46-0.54-0.88-0.89-1.26c-0.35-0.37-0.78-0.65-1.28-0.84c-0.06,0-0.11,0-0.17,0c-0.42,0.05-0.61,0.28-0.56,0.67
			c0.31,2.45,0.62,4.89,0.93,7.34c0.03,0.2-0.03,0.39-0.16,0.58c-0.13,0.19-0.3,0.36-0.5,0.52c-0.2,0.16-0.42,0.31-0.64,0.44
			c-0.23,0.13-0.42,0.24-0.58,0.32c0.18,0.03,0.35,0.04,0.53,0.04c0.18,0,0.36-0.02,0.54-0.04c0.67-0.08,1.25-0.28,1.74-0.6
			c0.49-0.31,0.88-0.7,1.19-1.15c0.3-0.45,0.51-0.95,0.63-1.5C234.27,217.09,234.29,216.54,234.22,215.99z"/>
		<path class="st16" d="M244.18,211.83c-0.18,0.14-0.36,0.29-0.53,0.45c-0.18,0.16-0.36,0.31-0.54,0.47
			c0.01-0.01,0.02-0.01,0.03-0.02c-0.04,0.04-0.09,0.07-0.13,0.11c-0.05,0.03-0.1,0.06-0.16,0.09c-0.05,0.01-0.13-0.02-0.23-0.1
			c-0.1-0.07-0.2-0.15-0.31-0.25c-0.11-0.1-0.21-0.19-0.31-0.28c-0.1-0.09-0.17-0.16-0.21-0.2c-0.14,0.16-0.23,0.33-0.27,0.51
			c-0.04,0.18-0.05,0.37-0.02,0.57c0.23,1.63,0.47,3.27,0.7,4.9c0.17,0.06,0.33,0.11,0.49,0.17c0.16,0.06,0.32,0.12,0.48,0.17
			c0.02-0.01,0.07-0.05,0.15-0.11c0.08-0.06,0.17-0.13,0.26-0.2c0.09-0.07,0.18-0.14,0.25-0.19c0.08-0.06,0.12-0.09,0.12-0.09
			c0.05-0.01,0.1,0,0.15,0.03c0.05,0.03,0.1,0.06,0.15,0.11c0.05,0.04,0.08,0.09,0.11,0.14c0.03,0.05,0.05,0.1,0.05,0.13
			c0,0.03-0.04,0.09-0.13,0.19c-0.09,0.1-0.2,0.21-0.34,0.35c-0.14,0.13-0.3,0.28-0.47,0.43c-0.17,0.15-0.33,0.3-0.49,0.44
			c-0.16,0.14-0.3,0.27-0.42,0.37c-0.12,0.11-0.21,0.18-0.25,0.22c-0.07,0.01-0.14,0.02-0.22,0.03c-0.42-0.16-0.85-0.32-1.27-0.48
			c-0.42-0.16-0.85-0.31-1.29-0.46c-0.04-0.05-0.09-0.09-0.13-0.14c-0.01-0.04,0.02-0.1,0.08-0.19c0.06-0.09,0.13-0.18,0.21-0.27
			c0.08-0.1,0.16-0.19,0.24-0.27c0.08-0.09,0.13-0.15,0.17-0.18c-0.24-1.68-0.47-3.37-0.7-5.05c-0.01-0.06-0.02-0.13-0.04-0.22
			c-0.02-0.09-0.05-0.17-0.08-0.25c-0.04-0.08-0.09-0.14-0.15-0.2c-0.06-0.05-0.14-0.07-0.24-0.06c-0.13,0.02-0.25,0.06-0.35,0.14
			c-0.1,0.07-0.2,0.15-0.28,0.24c-0.03,0.02-0.06,0.03-0.07,0.04c-0.02,0.01-0.04,0.02-0.06,0.02c-0.04,0.01-0.08,0-0.13-0.03
			c-0.05-0.02-0.1-0.05-0.14-0.08c-0.05-0.03-0.09-0.07-0.12-0.11c-0.04-0.04-0.06-0.07-0.07-0.1c0-0.03,0.03-0.09,0.11-0.2
			c0.07-0.11,0.17-0.24,0.29-0.39c0.12-0.15,0.25-0.31,0.39-0.47c0.14-0.16,0.28-0.32,0.41-0.46c0.13-0.14,0.24-0.26,0.35-0.36
			c0.1-0.1,0.17-0.15,0.21-0.15c0.02,0,0.03,0,0.05-0.01c0.32,0.11,0.63,0.25,0.91,0.43c0.28,0.18,0.5,0.41,0.68,0.69
			c0.07-0.17,0.16-0.33,0.26-0.5c0.11-0.17,0.23-0.33,0.37-0.47c0.14-0.15,0.3-0.28,0.47-0.39c0.17-0.11,0.36-0.19,0.55-0.24
			c0.07,0.02,0.14,0.03,0.2,0.05c0.23,0.24,0.45,0.47,0.67,0.7c0.22,0.23,0.44,0.47,0.65,0.71
			C244.21,211.66,244.2,211.75,244.18,211.83z"/>
		<path class="st16" d="M253.4,213.39c0.07,0.42,0.1,0.84,0.1,1.25c0,0.41-0.06,0.81-0.16,1.2c-0.11,0.39-0.27,0.76-0.49,1.11
			c-0.22,0.36-0.53,0.69-0.91,1c-0.05,0.04-0.15,0.12-0.3,0.25c-0.15,0.13-0.31,0.26-0.48,0.39c-0.17,0.13-0.33,0.25-0.48,0.36
			c-0.15,0.1-0.25,0.16-0.29,0.16c-0.64-0.06-1.21-0.21-1.73-0.45c-0.51-0.24-0.96-0.54-1.33-0.92c-0.38-0.38-0.68-0.81-0.92-1.29
			c-0.24-0.49-0.39-1-0.48-1.55c-0.1-0.67-0.11-1.27-0.03-1.8c0.08-0.53,0.25-1.03,0.5-1.48c0.25-0.45,0.59-0.87,1.01-1.27
			c0.42-0.39,0.93-0.77,1.52-1.15c0.66-0.02,1.24,0.1,1.75,0.34c0.51,0.24,0.96,0.56,1.33,0.95c0.37,0.4,0.67,0.85,0.9,1.36
			C253.16,212.34,253.31,212.86,253.4,213.39z M251.62,214.92c-0.07-0.43-0.18-0.88-0.33-1.32c-0.15-0.45-0.35-0.87-0.61-1.25
			c-0.26-0.39-0.57-0.72-0.95-1.01c-0.37-0.29-0.82-0.49-1.34-0.61c-0.19,0.21-0.33,0.44-0.41,0.7c-0.09,0.26-0.15,0.53-0.18,0.8
			c-0.03,0.28-0.03,0.55-0.01,0.83c0.02,0.27,0.05,0.54,0.09,0.79c0.04,0.28,0.1,0.56,0.18,0.85c0.08,0.28,0.18,0.56,0.3,0.82
			c0.12,0.27,0.27,0.52,0.45,0.76c0.18,0.24,0.39,0.45,0.64,0.63c0,0.01,0,0.01,0,0.02c0.09,0.08,0.2,0.17,0.31,0.25
			c0.12,0.08,0.24,0.16,0.36,0.22c0.13,0.07,0.26,0.12,0.4,0.17c0.14,0.04,0.28,0.06,0.43,0.06c0.19-0.17,0.33-0.36,0.44-0.58
			c0.11-0.22,0.18-0.45,0.22-0.69c0.04-0.24,0.06-0.49,0.05-0.73C251.67,215.37,251.65,215.14,251.62,214.92z"/>
	</g>
</g>
<g>
	<g>
		<path class="st17" d="M125.72,44.4c0.04,0.01,0.07,0.07,0.07,0.18c0,0.18-0.02,1.31-0.02,3.38c0.01,0.05,0.02,0.14,0.02,0.26
			c0,0.12,0,0.21,0,0.28c0.01,0.06,0,0.14-0.02,0.24c-0.02,0.1-0.05,0.18-0.1,0.25c-0.05,0.07-0.12,0.12-0.21,0.16
			c-0.15,0.09-0.31,0.16-0.48,0.21c-0.16,0.05-0.36,0.1-0.6,0.14c-0.24,0.04-0.4,0.08-0.49,0.1c-0.18,0.05-0.83,0.22-1.93,0.54
			c-1.65,0.48-2.87,0.9-3.68,1.18c-0.15,0.05-0.53,0.18-1.14,0.4c-0.62,0.22-1.06,0.39-1.33,0.51c-0.27,0.12-0.65,0.28-1.12,0.49
			c-0.47,0.21-0.89,0.42-1.25,0.63c-0.36,0.21-0.7,0.42-1.03,0.64c-0.16,0.11-0.33,0.24-0.49,0.37c-0.17,0.14-0.36,0.29-0.56,0.47
			c-0.2,0.18-0.36,0.31-0.46,0.4c-0.02,0.01-0.1,0.08-0.24,0.22c-0.14,0.14-0.26,0.22-0.36,0.25c-0.21,0.1-0.35,0.07-0.43-0.09
			c-0.04-0.08-0.04-0.2,0.01-0.37c0.02-0.05,0.11-0.27,0.27-0.66c0.17-0.39,0.27-0.7,0.32-0.92c0.09-0.5,0.09-1.03,0.01-1.58
			c-0.09-0.61-0.34-1.45-0.76-2.5c-0.79-1.96-1.64-3.89-2.56-5.8c-0.45-0.92-0.93-1.85-1.43-2.79c-0.03-0.07-0.14-0.27-0.33-0.62
			c-0.19-0.35-0.32-0.59-0.39-0.73c-0.08-0.13-0.19-0.32-0.36-0.56c-0.16-0.24-0.34-0.44-0.51-0.6c-0.43-0.42-0.92-0.71-1.46-0.89
			c-0.36-0.13-0.68-0.19-0.98-0.19c-0.06-0.01-0.16-0.01-0.3,0.01c-0.14,0.02-0.26,0.02-0.36,0.01c-0.1-0.01-0.19-0.04-0.27-0.08
			c-0.08-0.04-0.11-0.1-0.08-0.17c0.73-0.29,1.84-0.57,3.32-0.79c1.47-0.22,2.29-0.34,2.48-0.4c1.64-0.5,3.25-1.23,4.87-2.2
			c0.1,0,0.16,0.03,0.18,0.08c0.02,0.05,0,0.13-0.06,0.25c-0.06,0.12-0.12,0.22-0.17,0.31c-0.06,0.09-0.11,0.16-0.17,0.22
			c-0.05,0.08-0.17,0.22-0.35,0.43c-0.19,0.21-0.33,0.39-0.43,0.54c-0.1,0.14-0.17,0.3-0.2,0.47c-0.09,0.29-0.03,0.68,0.19,1.17
			c0.04,0.04,0.07,0.09,0.1,0.15c0.02,0.06,0.05,0.12,0.07,0.18c0.02,0.06,0.04,0.11,0.06,0.16c0.14,0.31,0.35,0.79,0.62,1.42
			c0.27,0.64,0.48,1.11,0.62,1.42c1.51,3.49,2.77,6.45,3.79,8.87c0.19,0.43,0.49,0.58,0.9,0.47c1.66-0.44,3.54-1.13,5.69-2.02
			c0.45-0.2,0.81-0.36,1.06-0.47c0.25-0.11,0.54-0.3,0.86-0.56c0.32-0.26,0.55-0.55,0.7-0.88c0.01-0.04,0.08-0.26,0.21-0.67
			c0.13-0.41,0.29-0.69,0.48-0.85C125.58,44.4,125.66,44.38,125.72,44.4z"/>
		<path class="st17" d="M130.74,44.24c0.65,0.43,1,1.07,1.07,1.91c0.06,0.7-0.09,1.32-0.44,1.87c-0.07,0.14-0.16,0.22-0.25,0.26
			c-0.05,0.03-0.14,0.04-0.25,0.04c-0.14-0.01-0.34,0.02-0.6,0.1c-0.26,0.08-0.51,0.13-0.72,0.14c-0.22,0.01-0.41-0.07-0.58-0.23
			c-0.05-0.05-0.09-0.1-0.12-0.17c-0.19-0.29-0.34-0.75-0.44-1.37c-0.1-0.62-0.08-1.19,0.06-1.7c0.14-0.51,0.43-0.85,0.85-1.02
			C129.81,43.89,130.29,43.95,130.74,44.24z"/>
		<path class="st17" d="M150.21,30.23c0.12,0.82,0.04,1.59-0.22,2.31c-0.03,0.14-0.08,0.28-0.15,0.41
			c-0.07,0.13-0.12,0.21-0.17,0.24c-0.03,0.03-0.04,0.05-0.05,0.05c-0.01,0-0.02-0.02-0.01-0.06c-0.02-0.06-0.04-0.11-0.06-0.17
			c-0.08-0.17-0.22-0.35-0.44-0.55c-0.24-0.21-0.48-0.4-0.75-0.56c-0.46-0.3-0.98-0.51-1.54-0.65c-0.5-0.15-1.12-0.24-1.85-0.28
			c-0.87-0.06-1.75-0.03-2.62,0.06c-0.57,0.06-0.94,0.21-1.09,0.45c-0.11,0.15-0.16,0.38-0.16,0.71c0.01,0.61,0.03,1.51,0.06,2.7
			c0.01,0.61,0.1,1.05,0.26,1.32c0.14,0.29,0.36,0.51,0.67,0.68c0.31,0.17,0.63,0.23,0.97,0.18c0.33-0.04,0.63-0.18,0.89-0.41
			c0.26-0.23,0.43-0.5,0.5-0.8c0.09-0.43,0.22-0.66,0.37-0.69c0.09-0.03,0.17-0.03,0.25,0.01c0.08,0.04,0.14,0.09,0.19,0.17
			c0.05,0.07,0.09,0.16,0.12,0.25c0.03,0.09,0.06,0.18,0.07,0.27c0.22,1.61,0.17,3.21-0.11,4.81c-0.05,0.27-0.14,0.45-0.26,0.53
			c-0.08,0.03-0.16,0.05-0.25,0.03c-0.08-0.01-0.16-0.04-0.23-0.1c-0.07-0.06-0.13-0.13-0.18-0.22c-0.05-0.09-0.08-0.18-0.09-0.27
			c-0.01-0.09-0.01-0.26-0.01-0.5c0-0.24-0.02-0.43-0.08-0.56c-0.14-0.42-0.48-0.66-1.03-0.71c-0.23-0.02-0.51,0-0.85,0.06
			c-0.42,0.09-0.69,0.25-0.81,0.47c-0.08,0.15-0.12,0.52-0.1,1.11c0,0.16,0.01,0.41,0.01,0.74c0.01,0.33,0.01,0.52,0.01,0.55
			c0,0.09,0.01,0.46,0.02,1.11c0.01,0.65,0.02,1.13,0.03,1.46c0.01,0.68,0.16,1.12,0.43,1.32c0.08,0.07,0.21,0.14,0.41,0.2
			c0.19,0.06,0.31,0.1,0.35,0.12c0.15,0.07,0.27,0.19,0.34,0.35c0.08,0.16,0.05,0.31-0.09,0.43c-0.08,0.05-0.17,0.09-0.28,0.12
			c-0.11,0.03-0.21,0.05-0.3,0.06c-0.09,0.01-0.2,0.01-0.35,0.02c-0.15,0-0.25,0-0.28,0c-1.95,0.12-3.89,0.27-5.83,0.43
			c-0.28,0.03-0.48,0-0.61-0.08c-0.1-0.06-0.17-0.15-0.2-0.26c-0.03-0.11-0.02-0.22,0.03-0.31c0.03-0.04,0.14-0.1,0.33-0.17
			c0.46-0.21,0.72-0.76,0.78-1.67c0.09-1.04,0.1-2.17,0.03-3.39c-0.07-1.22-0.18-2.31-0.34-3.26c-0.16-0.95-0.34-2.09-0.55-3.41
			c-0.22-1.32-0.38-2.42-0.48-3.29c-0.3-0.03-0.6,0.02-0.9,0.13c-0.3,0.11-0.57,0.27-0.8,0.46c-0.23,0.2-0.41,0.43-0.54,0.7
			c-0.13,0.27-0.2,0.54-0.21,0.81c-0.19-0.81-0.29-1.62-0.29-2.44c0.01-0.85,0.3-1.49,0.88-1.89c0.35-0.25,0.83-0.48,1.43-0.66
			c0.65-0.17,1.47-0.29,2.47-0.35c0.43-0.03,0.95-0.06,1.56-0.1c0.62-0.04,1.15-0.06,1.62-0.08c0.46-0.01,0.98-0.03,1.56-0.03
			c0.58-0.01,1.12-0.01,1.62-0.01c0.5,0,1.01,0.02,1.55,0.05c0.53,0.03,1.06,0.06,1.6,0.1c0.53,0.04,1.06,0.09,1.57,0.15
			c0.61,0.07,1.01,0.14,1.2,0.21c0.18,0.07,0.33,0.15,0.45,0.25C149.94,29.12,150.12,29.57,150.21,30.23z"/>
		<path class="st17" d="M154.11,44.08c0.5,0.6,0.64,1.32,0.46,2.14c-0.15,0.69-0.47,1.24-0.97,1.66c-0.11,0.11-0.21,0.17-0.31,0.17
			c-0.06,0.01-0.14,0-0.25-0.03c-0.13-0.05-0.33-0.08-0.6-0.08c-0.28,0-0.52-0.02-0.73-0.08c-0.21-0.05-0.37-0.18-0.48-0.39
			c-0.03-0.06-0.05-0.12-0.06-0.2c-0.1-0.34-0.1-0.82-0.02-1.44c0.09-0.62,0.27-1.16,0.56-1.61c0.29-0.45,0.66-0.69,1.11-0.72
			C153.33,43.47,153.77,43.66,154.11,44.08z"/>
		<path class="st17" d="M173.75,46.76c-0.14,0.88-0.55,1.6-1.21,2.19c-0.66,0.59-1.5,1-2.5,1.25c-0.04,0-0.09,0.01-0.14,0.03
			c-1.96,0.47-3.95,0.41-6.08-0.18c-2.12-0.58-3.87-1.52-5.35-2.92c-0.78-0.71-1.26-1.4-1.42-2.07c-0.14-0.46-0.08-0.91,0.17-1.34
			c0.25-0.43,0.64-0.72,1.17-0.85c0.5-0.12,1.06-0.04,1.67,0.24c0.61,0.28,0.97,0.65,1.1,1.11c0.08,0.3-0.09,0.5-0.48,0.61
			c-0.2,0.06-0.39,0.15-0.57,0.26c-0.18,0.11-0.31,0.25-0.38,0.43c-0.08,0.18-0.03,0.36,0.15,0.55c0.13,0.14,0.35,0.26,0.67,0.37
			c0.88,0.28,1.92,0.37,3.14,0.3c1.09-0.07,1.97-0.34,2.63-0.84c0.33-0.24,0.59-0.54,0.8-0.91c0.02-0.07,0.05-0.13,0.09-0.2
			c0.12-0.32,0.15-0.65,0.09-1.01c-0.07-0.35-0.2-0.67-0.4-0.96c-0.2-0.29-0.47-0.57-0.8-0.86c-0.34-0.28-0.66-0.53-0.97-0.72
			c-0.31-0.2-0.65-0.38-1.03-0.55c-0.08-0.04-0.34-0.17-0.79-0.4c-0.45-0.22-0.74-0.36-0.86-0.42c-0.12-0.06-0.36-0.18-0.74-0.38
			c-0.37-0.2-0.64-0.35-0.79-0.48c-0.15-0.12-0.35-0.29-0.61-0.49c-0.26-0.2-0.47-0.41-0.63-0.64c-0.17-0.23-0.31-0.46-0.45-0.71
			c-0.63-1.26-0.7-2.43-0.14-3.53c0.56-1.1,1.57-1.9,3.07-2.35c0.98-0.31,2.06-0.39,3.24-0.24c1.18,0.15,2.54,0.47,4.09,0.98
			c1.46,0.47,2.7,1.14,3.72,1.98c0.62,0.54,1.08,0.86,1.4,0.95c0.07,0.02,0.33,0.08,0.79,0.18c0.46,0.1,0.7,0.19,0.72,0.27
			c0.1,0.08,0.15,0.14,0.15,0.2c0,0.08-0.07,0.14-0.19,0.19c-0.33,0.14-0.85,0.27-1.55,0.4c-0.86,0.16-2.17,0.39-3.89,0.73
			c-0.52,0.11-0.9,0.16-1.16,0.14c-0.18-0.02-0.29-0.07-0.31-0.15c0.01-0.02,0.02-0.05,0.03-0.1c0.03-0.03,0.07-0.06,0.1-0.11
			c0.2-0.28,0.37-0.5,0.48-0.67c0.11-0.17,0.2-0.4,0.25-0.69c0.05-0.28,0.01-0.55-0.13-0.8c-0.14-0.27-0.38-0.49-0.72-0.66
			c-0.34-0.17-0.7-0.27-1.08-0.31c-0.38-0.04-0.75-0.05-1.12-0.02c-0.37,0.03-0.69,0.1-0.96,0.22c-0.78,0.32-1.27,0.85-1.48,1.57
			c-0.22,0.73,0.01,1.39,0.65,2.01c0.26,0.22,0.95,0.62,2.04,1.24c0.16,0.08,0.57,0.31,1.22,0.68c0.65,0.37,1.1,0.65,1.37,0.82
			c0.27,0.17,0.61,0.42,1.03,0.75c0.42,0.33,0.78,0.65,1.08,0.97c0.69,0.73,1.19,1.53,1.5,2.4
			C173.76,45.1,173.86,45.95,173.75,46.76z"/>
		<path class="st17" d="M177.38,51.22c0.3,0.73,0.23,1.46-0.21,2.19c-0.35,0.61-0.84,1.03-1.45,1.27c-0.14,0.07-0.26,0.09-0.35,0.07
			c-0.06-0.01-0.14-0.05-0.23-0.11c-0.11-0.09-0.29-0.18-0.56-0.27c-0.27-0.09-0.5-0.19-0.69-0.3c-0.19-0.12-0.31-0.29-0.35-0.53
			c-0.01-0.07-0.01-0.13,0-0.21c0.01-0.35,0.15-0.81,0.42-1.38c0.27-0.57,0.62-1.02,1.03-1.36c0.42-0.34,0.85-0.45,1.3-0.34
			C176.8,50.39,177.17,50.72,177.38,51.22z"/>
	</g>
</g>
</svg>
