<svg id="Livello_1" data-name="Livello 1" xmlns="http://www.w3.org/2000/svg" viewBox="0 0 252.42 282.05"><defs><style>.cls-1,.cls-3{fill:#f4d147;}.cls-1,.cls-2,.cls-3,.cls-4,.cls-5,.cls-7,.cls-8,.cls-9{stroke:#a81;stroke-width:2px;}.cls-1,.cls-2,.cls-5,.cls-8{stroke-linecap:round;stroke-linejoin:round;}.cls-1,.cls-2,.cls-3,.cls-4,.cls-6,.cls-7{fill-rule:evenodd;}.cls-2,.cls-4{fill:#eac108;}.cls-5{fill:none;}.cls-10,.cls-6,.cls-7,.cls-8,.cls-9{fill:#f2c500;}</style></defs><title>slider</title><g id="Tosone"><g id="g3188-2-1-8-8-0"><path id="path2400-2-8-6-2-8" class="cls-1" d="M166.68,203.16c1.49,20.59-3.39,36.05,5.26,62.42-.74,7.66-.2,8.25,0,10.74-4.57-.61-5.63-1.63-5.2-3.16l-.62,3.88c-3.08,0-7.34-1.17-10-7.3,3.49-4.74,3.06-9.48,2.63-14.22l-4.5.35c3.85-23.82-5-30.47-4.89-59.64,5.87,1.46,14.32,2.37,17.29,6.93Z" transform="translate(-14.45 0)"/><path id="path2402-7-2-8-4-1" class="cls-2" d="M171.65,265.83c-4.72-2-9.85-.36-12.77-1.74" transform="translate(-14.45 0)"/><path id="path3186-0-9-1-5-8" class="cls-2" d="M166.66,214.6c-4,1.39-5.53-.91-6-5.37" transform="translate(-14.45 0)"/></g><g id="g3193-3-6-4-5-0"><path id="path3195-1-8-7-1-6" class="cls-1" d="M185.24,198.1c2.52,20.5-1.56,36.15,8.4,62.11-.35,7.69.21,8.26.54,10.74-4.6-.41-5.71-1.39-5.35-2.94l-.42,3.9c-3.09.16-7.39-.85-10.33-6.86,3.24-4.88,2.58-9.6,1.91-14.32l-4.48.54c2.65-24-6.54-30.22-7.89-59.36,5.94,1.21,14.42,1.76,17.62,6.19Z" transform="translate(-14.45 0)"/><path id="path3197-3-9-6-7-3" class="cls-2" d="M193.37,260.48c-4.82-1.76-9.87.06-12.85-1.18" transform="translate(-14.45 0)"/><path id="path3199-3-8-4-1-4" class="cls-2" d="M185.8,209.52c-3.94,1.57-5.57-.67-6.31-5.1" transform="translate(-14.45 0)"/></g><path id="path3395-7-1-9-1-5" class="cls-3" d="M142.27,2.79c4.06.56,8.63,2.43,12.4,1l1.87-.69c3.17-1.17,7.83,3.16,10.52,4.15,3.47,1.29,9.71,3.47,13.15,3.47,5,0,7.94,4.31,12.77,5.2,1.23.23,2.5.23,3.75.35,2.46.22,4.9,6.1,9.39,6.93,3.74.69,5.32,6,6.76,9.36,1.72,3.95,7.39,4.61,9.77,9A10.4,10.4,0,0,0,223.77,43c2.33,2.86,7.33,6.43,6.39,10.75-.85,3.94,5.11,7.14,7.51,9.36,3.42,3.15,6.25,6.53,5.26,11.09-1,4.36,6.76,8,6.76,11.78,0,5.19,1.5,5.79,1.5,10.4,0,3.79-.37,7.68-.37,11.78,0,3.93.75,8,.75,12.13,0,4.68,1.91,9.81,0,14.21-1.83,4.22-4.88,4-4.88,9.71,0,4.75-5.17,11.18-9.39,12.48-6.52,2-10.36,9.27-17.66,10.39-13.73,2.12-19.85,8-27,20.45-2.47,4.56-2.78,8.17-7.89,10-4.87,1.8-7,4-11.27,5.55s-9.09,2.72-13.52-.35a2.64,2.64,0,0,1-2.63-.69c-3.86-3.56-16.15,2.89-16.15-5.55,0-4.3-1.87-7.54-1.87-11.09,0-3.79-3.48-3.41-1.51-8,.87-2-2.89-10.14-3.75-12.13-1.15-2.66-1.39-9.45-.38-11.78,1.56-3.61,1.88-8.16,1.88-11.44,0-3.79-1.79-9-2.63-12.82-.39-1.83,3-4.23,2.25-7.63-.12-.58-.25-1.15-.37-1.73s-.25-1.16-.38-1.74c-.92-4.27,0-6,0-10.74,0-3.64,1.38-9.24.75-12.13-.88-4.08-2.1-8.32-3-12.48-.83-3.85-4.51-6.56-4.51-10.74V70.37c0-4.22.13-8.4-.75-12.47-1.05-4.85.38-6.88.38-11.44,0-4,1.52-9.06,3-12.48,1.71-3.93,1.63-9.14,3.38-13.17s1.82-8.55,3.76-12.13c1.47-2.71,2.42-3.06,4.88-5.89Z" transform="translate(-14.45 0)"/><g id="g3325-0-6-8-5-6"><path id="path3301-9-3-7-27-4" class="cls-3" d="M55.09,56.36c.52,1.69-3.35,1.71-4.88,2.77-3.48,2.4-6.28,5.26-7.5,8.65-1,2.75-5.49,9-7.5,11.42-2.92,3.59-.32,4.13-4.88,6.23-3.56,1.65-3.87,8.55-2.62,11.42,1.57,3.62-.56,6-1.5,10.39-1.3,6-2.63,6.06-2.63,9,0,11.37-5.46,7.47,0,14.19,1.05,1.29-4.82,10.47-5.25,12.46-.62,2.84,1.31,3.94-2.25,6.57v4.16c-.2.14,0,.46,0,.69-2.25,1.66,2.15,10.46,3,11.77,3.13,4.82,2.41,2.95,4.88,8.65a13.42,13.42,0,0,0,1.12,1.73C26.8,179.1,23.25,187,33,183.38l1.87-.69c3.4-1.26,6.17,3.71,10.13,5.54,4.35,2,8.95-4.17,9.38-6.93.64-4.17,2.25-7.82,2.25-12.11,0-6.19,3.37-11.79,3.37-18,0-10.22,2-17.78,4.13-27.69,1.11-5.15,1.5-13.42,1.5-18.69s1.74-8,4.12-13.49c1.29-3-.58-8.95-1.12-12.46a36.73,36.73,0,0,0-3.75-11.77A42,42,0,0,0,57,57.4,8.71,8.71,0,0,0,55.09,56.36Z" transform="translate(-14.45 0)"/><path id="path3307-5-7-3-6-9" class="cls-2" d="M40.46,82.66c-2-2.16-3,4.43-3.66,6-.17.63-.33,1.27-.47,1.91" transform="translate(-14.45 0)"/><path id="path3309-5-5-8-14-2" class="cls-2" d="M33.33,98.24c-2.94,1.86-2.06,5.76-3,8.59-2.09,3.07,1.84,5.25,3.36,7.67" transform="translate(-14.45 0)"/><path id="path3311-8-4-6-2-0" class="cls-2" d="M27,117.62c-1.77,3.91,2,7.66,2.62,11.42" transform="translate(-14.45 0)"/><path id="path3313-3-1-2-3-6" class="cls-2" d="M27.71,148.42c-.8,3.11,2.66,5.62,2.71,8.73a11.78,11.78,0,0,0,1.79,1.66" transform="translate(-14.45 0)"/><path id="path3315-7-0-8-2-4" class="cls-2" d="M32.21,170.57c1.76,2.11,5,3,7.5,4.16" transform="translate(-14.45 0)"/><path id="path3317-8-1-0-2-3" class="cls-2" d="M20.58,156.38c.53,3.22,3.92,5.29,5.86,7.74a12.6,12.6,0,0,0,2,.57" transform="translate(-14.45 0)"/></g><g id="g3209-3-2-9-1-0"><path id="path3211-7-2-8-6-5" class="cls-1" d="M90.81,204.81c4.27,20.25,1.54,36.15,13.7,61.31.31,7.69.92,8.21,1.46,10.66-4.62-.08-5.81-1-5.59-2.54l-.08,3.92c-3.06.38-7.44-.31-10.89-6.09,2.82-5.1,1.75-9.75.68-14.41l-4.42.87c.59-24.07-9.11-29.65-13-58.6,6,.77,14.53.7,18.09,4.88Z" transform="translate(-14.45 0)"/><path id="path3213-9-8-0-8-6" class="cls-1" d="M104.26,266.4c-5-1.4-9.83.79-12.91-.24" transform="translate(-14.45 0)"/><path id="path3215-3-5-4-5-1" class="cls-2" d="M92.35,216.16c-3.79,1.84-5.61-.27-6.73-4.63" transform="translate(-14.45 0)"/></g><path id="path3269-9-4-9-7-8" class="cls-2" d="M129.73,119c-1,1.81,1.5,3.87,1.5,5.89,0,4.09-1,8.48-1.88,12.46s-1.62,8-2.25,12.11a101.4,101.4,0,0,1-2.63,11.77c-1,3.61-4.32,6.77-6,9.34-2.11,3.26-3.08,8.26-4.12,12.12s-3.4,8.59-6.38,9.69c-3.87,1.43-3.86,4.59-9,5.54-2.51.46-7.9,6.6-9.75,8.3-2,1.85-5.67,2.77-10.88,2.77s-8.68-2.89-10.13-6.23c-2.81-6.49-7.57-6-5.62-13.15.38-1.42,1-2.77,1.5-4.15,1.77-4.89,3.54-13.09,8.62-16.62,4.89-3.38,12.76-18.26,12.76-24.57,0-.32,5.18-19.39,6.37-20.77,3.47-4,8.52-5.41,13.13-8,4.45-2.46,8.43-2.77,13.5-2.77,6.33,0,8.77.88,11.26,6.23Z" transform="translate(-14.45 0)"/><path id="path3203-8-7-8-18-9" class="cls-1" d="M81.06,281c-3.07.25-7.42-.63-10.56-6.55,3.07-5,2.23-9.67,1.4-14.36l-6.71.67c5.55-28.52-11.73-32.08-6.61-58.4,6,1,13.35.63,16.7,5h0c3.25,20.42-.28,36.18,10.59,61.83-.07,7.7.51,8.25.92,10.72-4.6-.28-5.74-1.22-5.44-2.78L81.06,281" transform="translate(-14.45 0)"/><path id="path3205-2-7-2-9-4" class="cls-2" d="M85.61,269.44c-4.87-1.61-9.85.36-12.88-.8" transform="translate(-14.45 0)"/><path id="path3207-8-3-8-2-4" class="cls-2" d="M76.25,218.73c-3.88,1.69-5.59-.5-6.49-4.91" transform="translate(-14.45 0)"/><path id="path3217-0-4-4-7-4" class="cls-1" d="M128.6,118c.07,2.65-4.21,5.18-2.25,9.69,1.69,3.91-2.16,9-1.88,10,.66,2.44-2.1,10-3.37,11.43-1.94,2.23-3.71,7.46-4.5,10.38-1.65,6.08-2.25,1.42-2.25,10,0,5.44-1.58,7-6,9-2.64,1.21-5.5,11.87-6.75,14.19-.8,1.46-6.45,1.53-8.63,6.57-1.5,3.45-8.64,2.43-10.88,3.46-3,1.38-7.18,2.86-11.63,4.5-5.08,1.88-8.58,3.56-13.12,1-5.77-3.19-5.77-8.2-8.25-9.34-2.12-1,4.6-7.18,1.5-10s-8.29-5.72-4.5-10.38c2.88-3.55,1.19-6.31,0-10.73-1.7-6.25-3.11-5.42-1.88-11.08,1.43-6.61,1.93-1.63-1.5-8-4.5-8.3.37-6.14.37-12.46,0-3.69-4-11.54-5.62-14.54-.36-.66,4.72-8.14,3-12.11-1.92-4.44-.75-7.83-.75-12.11,0-4.89,4.64-7.11,3-13.16A11.75,11.75,0,0,1,46.09,73c1.25-1.15,7.12-9.76,7.12-10.38V60.17c0-3.7,2-10.36,4.5-12.12,3.64-2.52,4.63-7,8.25-10.38,3.07-2.83,6.56-6.39,9.38-9,4.38-4,1.71-5.51,8.63-9.35,4.44-2.45,9.47-3.76,13.12-6.57,1-.79,7.21-1.11,10.51-4.15,4-3.73,9.09,2.06,12.37-4.5,1.58-3.16,6.52,1.31,8.63,0s5.11.84,7.5,1.73l-9.38,56.41,6.76,49.5L128.6,118Z" transform="translate(-14.45 0)"/><path id="path3221-1-4-7-9-3" class="cls-2" d="M124.1,8.94c-2.78,1.34-8.46,2.81-7.13,5.89" transform="translate(-14.45 0)"/><path id="path3223-8-9-9-5-4" class="cls-2" d="M109.85,17.94c-2.36-.21-9,.54-9.38,2.08-.16.6-1.6,2-1.88,2.42" transform="translate(-14.45 0)"/><path id="path3225-4-1-4-4-6" class="cls-2" d="M97.09,28.67c-.66,2.45-5.56,1.33-7.5,3.11-1.34,1.24-1.12,2-1.12,3.47" transform="translate(-14.45 0)"/><path id="path3227-8-8-0-3-9" class="cls-2" d="M86.22,26.94c-3.45,3.18-8.62.68-10.88,5.88" transform="translate(-14.45 0)"/><path id="path3229-6-3-7-1-5" class="cls-2" d="M60.34,45.63c-.47,1.09,5.77-1.88,10.87,0" transform="translate(-14.45 0)"/><path id="path3231-0-8-4-2-3" class="cls-2" d="M79.09,35.94c2.57,1-2.62,4.71-2.62,7.27,0,5.13-2.54,3.55-1.88,6.57" transform="translate(-14.45 0)"/><path id="path3233-9-7-8-3-4" class="cls-2" d="M64.46,51.86c0,2.2-4.18,2.53-5.25,4.5-2.09,3.85-4.13,6.23-.37,9.69" transform="translate(-14.45 0)"/><path id="path3235-3-9-1-3-1" class="cls-2" d="M61.84,68.47c-2.1,3.88-3.86.43-4.88,8" transform="translate(-14.45 0)"/><path id="path3237-0-7-8-4-6" class="cls-2" d="M52.09,74c-1.09,2-4.74,1.12-6,3.46" transform="translate(-14.45 0)"/><path id="path3239-0-1-2-11-0" class="cls-2" d="M59.59,83.35c-2.35,4.34-5.25,1.54-5.25,6.23a5.35,5.35,0,0,0,.75,3.12" transform="translate(-14.45 0)"/><path id="path3241-8-1-2-3-6" class="cls-2" d="M44.21,94.08c0,2.08,3.74-5.07,9-8.3" transform="translate(-14.45 0)"/><path id="path3243-7-4-1-8-0" class="cls-2" d="M52.09,101.35s-6.87.86-8.26,7.27a7.17,7.17,0,0,0,0,1.39" transform="translate(-14.45 0)"/><path id="path3245-6-3-4-7-9" class="cls-2" d="M50.21,109c-.84,3.88-.85,5.09,3,8.65" transform="translate(-14.45 0)"/><path id="path3247-35-5-6-4-0" class="cls-2" d="M50.21,122.47c-.48,2.21-3.15,7.25,1.88,10.72" transform="translate(-14.45 0)"/><path id="path3249-6-2-6-27-8" class="cls-2" d="M58.46,131.12c-.48,2.21-4,4-1.12,7.61,1.69,2.09.4,1.86.75,3.46" transform="translate(-14.45 0)"/><path id="path3251-5-9-9-7-4" class="cls-2" d="M48.34,139.77c.64.79,1.42,7.79,3.37,10,.42.48,1.25.46,1.88.69" transform="translate(-14.45 0)"/><path id="path3253-8-1-3-9-9" class="cls-2" d="M56.59,152.23c.51.59,1.69,7.27,3.37,9.35" transform="translate(-14.45 0)"/><path id="path3255-3-5-8-3-6" class="cls-2" d="M54,166.08c.5.57.46,6.48,3.75,8.3" transform="translate(-14.45 0)"/><path id="path3257-9-5-1-19-5" class="cls-2" d="M55.09,186.84c0,.06,3.1,3.12,6.37,3.12" transform="translate(-14.45 0)"/><path id="path3259-4-6-3-8-4" class="cls-2" d="M59.59,195.49a24.83,24.83,0,0,0,8.63,6.23" transform="translate(-14.45 0)"/><path id="path3261-8-7-6-6-1" class="cls-2" d="M67.84,176.11c1.49,1.72-.32,4.61.75,6.58.45.83,1,1.61,1.5,2.42s1,1.39,1.5,2.08" transform="translate(-14.45 0)"/><path id="path3263-3-9-4-5-6" class="cls-2" d="M83.22,187.19c.89,1.45,7.54-5.47,7.87-6.23" transform="translate(-14.45 0)"/><path id="path3265-9-0-5-0-8" class="cls-2" d="M99,175.07c1.73,2.8,6.79-8.91,7.13-9.69.23-.53,0-1.15,0-1.73" transform="translate(-14.45 0)"/><path id="path3267-76-2-2-2-3" class="cls-2" d="M116.22,130.77c.29-.67.59,2.73-3,9.35-.62,1.15-3,.08-4.12-.7" transform="translate(-14.45 0)"/><path id="path2396-4-3-2-8-6" class="cls-1" d="M148,1.66c-4,.43-6.12,3.7-12.78,0-25.62,31.26-14.62,105-6.53,119.67l7.9-1.73c.49-2.37.86-4.77,5.26-6.24C127.06,70.22,135.58,18,148,1.66Z" transform="translate(-14.45 0)"/><path id="path3360-5-1-0-6-1" class="cls-1" d="M245,149.5c1.17,16.95-8.55,20.76-12.4,29.28s-7.09,24-18.59,31.8c-5,1.92-9.79,3.55-10.91.68-4.32-.38-6.14-2.14-7.19-4.34-1.43-3.54.45-8.6,1.49-13.27.68-8.39-12.7-15.39-9.91-44.61l5.2-17.84" transform="translate(-14.45 0)"/><path id="path3362-8-9-1-0-7" class="cls-2" d="M220.4,164.74c1,1.2.68,4.3-1.47,3.86-1.68-1-1.55-3.17-1.65-4.83,0-2-.34-4.23-2.16-5.55.79.18,5.25,4.92,5.28,6.52Z" transform="translate(-14.45 0)"/><path id="path3371-6-8-0-2-1" class="cls-2" d="M197.15,160.25c-.77,6.6.81,11.76,7.94,13.5" transform="translate(-14.45 0)"/><path id="path3373-1-7-3-4-6" class="cls-2" d="M216.24,182A20.31,20.31,0,0,0,215,193.42" transform="translate(-14.45 0)"/><path id="path3375-5-8-8-8-0" class="cls-2" d="M203.1,198a74.92,74.92,0,0,0-1.48,12.59" transform="translate(-14.45 0)"/><path id="path3377-5-4-7-65-3" class="cls-2" d="M208.56,205.09c-.88,3.07-.92,5.52,1.48,6.17" transform="translate(-14.45 0)"/><path id="path3399-1-4-3-0-4" class="cls-4" d="M153.16,11.11c.36-.65,7.63,1.14,9.39,2.77" transform="translate(-14.45 0)"/><path id="path7617-9-4-3-9-8" class="cls-4" d="M175.7,16.65c.79-1.47,9.31,2.94,10.89,3.82" transform="translate(-14.45 0)"/><path id="path3403-6-3-1-0-7" class="cls-4" d="M189.6,19.43c2.54,1.4,5.82-.43,7.51,3.46" transform="translate(-14.45 0)"/><path id="path3405-4-5-4-0-0" class="cls-4" d="M203.49,31.21c2.41,1.33,7.46,7.34,9.39,11.78" transform="translate(-14.45 0)"/><path id="path3407-5-8-5-6-7" class="cls-4" d="M228.28,59.63c1.47,3.4-4.6-7.64,1.88,3.12" transform="translate(-14.45 0)"/><path id="path3409-4-0-6-13-3" class="cls-4" d="M232.41,68c.4.92,4.81,11.71,7.89,14.56" transform="translate(-14.45 0)"/><path id="path3411-2-2-1-8-2" class="cls-4" d="M194.1,70.72c1,2.3,3,6.82,3,11.44,0,4.37,1.12,8.36,1.12,13.17,0,3.07-.87,9.47-3,11.44-.47.43-1.88,11-1.88,11.43" transform="translate(-14.45 0)"/><path id="path3413-5-9-2-93-1" class="cls-4" d="M190.35,79.73c-2.22,2,1,5.83.37,8.67" transform="translate(-14.45 0)"/><path id="path3415-3-4-1-4-1" class="cls-4" d="M186.59,98.8c-.06,0-1.66,6.18-2.63,8" transform="translate(-14.45 0)"/><path id="path3417-2-9-9-4-0" class="cls-4" d="M147.15,104.34c-.72.67,4.61,11.19,6.39,12.82" transform="translate(-14.45 0)"/><path id="path3419-6-8-1-6-4" class="cls-4" d="M142.27,129.64c-.48.44,1.25.46,1.88.7.09,0-1.48,6.64,0,10,.23.53,1,.69,1.5,1" transform="translate(-14.45 0)"/><path id="path3421-8-3-8-0-2" class="cls-4" d="M143.77,151.13c1.12,2.57-2.2,7.67,3,12.48.62.57,0,1.62,0,2.42" transform="translate(-14.45 0)"/><path id="path3423-2-5-0-6-8" class="cls-4" d="M139.27,167.42c3.2,3,3.83,8.29,7.88,11.09" transform="translate(-14.45 0)"/><path id="path3425-6-0-4-6-8" class="cls-4" d="M187.72,168.11c1.21,1.12-.68,8-1.51,11.1-1.55,5.74-3.38,4.53-3.38,10.39,0,5.11-6.88,6-7.88,9.71-.83,3-3.51,3.18-5.64,4.16" transform="translate(-14.45 0)"/><path id="path3427-6-4-7-1-0" class="cls-4" d="M178.33,170.89c-.92,3.38,5,7.63-1.5,10.05" transform="translate(-14.45 0)"/><path id="path3429-3-3-7-8-4" class="cls-4" d="M179.83,151.48c-.85.31,1.21,8.92-3.76,11.78-.64.37-1.2,2-1.5,2.43" transform="translate(-14.45 0)"/><path id="path3431-9-5-4-4-9" class="cls-4" d="M161.43,194.46c-4.71,2.71-8.15-3.73-9.39-6.59-.54-1.24-.61-2.27-1.13-3.47" transform="translate(-14.45 0)"/><path id="path3433-4-2-1-9-5" class="cls-4" d="M144.15,188.91c-.38-.87,2.71,3.27,4.51,6.59" transform="translate(-14.45 0)"/><path id="path3379-5-5-1-63-1" class="cls-5" d="M225.91,125.48c-7.46-12.94-16.67-23.77-37.18-21-17.13,6.16-23.76,17-15.13,34.77,11.17,22,32.79,7,32.23-3s-1.12-10.7-7.44-16.93A27.17,27.17,0,0,1,213,138.52" transform="translate(-14.45 0)"/><path id="path3381-6-7-9-78-2" class="cls-2" d="M198.39,119.07c-14.7-4-14.56,5.13-13.63,10.3,1.24,4.14,1.71,6.58,7.44,4.8,2.12-4.23,1.52-11.11-5.95-11.44" transform="translate(-14.45 0)"/><path id="path3383-2-7-8-8-6" class="cls-1" d="M229.38,120.45c-1.64,0-5-1.36-7.68,1.14-2.42,2.23.41,3-3.72,4.57a28.31,28.31,0,0,0-1.24,6.87c0,3.34-1.56,3.55-2.23,6.63-.09.38-.17.76-.25,1.15-.12.56,3.46,5.16,5.2,5.49.09,0,1.27,3.58,3.48,4.8,2.56,1.42,4,5.44,6.19,6,2.59.59,6.08.52,8.18.91,2.67.49,6.31-.87,9.42-.46,4.09.54,3.52-2.74,7.69-2.74,1.47,0,6.2-4.26,6.2-6.63s4.95-3.71,4.95-8.47c0-5.34,1.55-7.72-2.48-11.44-3.42-3.16-3.16-7.56-4.21-11.43-.05-.18-5.18-3.36-6.2-6.18-1.63-4.52-6.29-3.17-7.19-7.32l-.24-1.14" transform="translate(-14.45 0)"/><path id="path3385-5-7-1-2-4" class="cls-2" d="M229.13,127.31c-.59-2.74-2.72,3.89-2.72,5" transform="translate(-14.45 0)"/><path id="path3387-3-4-0-9-4" class="cls-2" d="M224.17,134.63a4.64,4.64,0,0,0-.74,2.29c0,1,3,3.94,3.22,4.34" transform="translate(-14.45 0)"/><path id="path3389-5-4-3-1-1" class="cls-2" d="M226.16,146.75c0,1.37,4.49,3.9,6.94,4.81,1.57.58,1.75.44,2.48-.46" transform="translate(-14.45 0)"/><path id="path3391-6-0-2-3-1" class="cls-2" d="M254.67,136.46c2.57.95.59,5.21-2,6.4" transform="translate(-14.45 0)"/><path id="path3393-6-4-5-5-0" class="cls-2" d="M250,110.38c-1.87.86,1.57,3.6,2,5.49.72,3.34-1.8,5.56-.74,8" transform="translate(-14.45 0)"/><g id="Tosone-2" data-name="Tosone"><g id="g3188-2-1-8-0-6-1"><path id="path2400-2-8-6-1-1-8" class="cls-6" d="M164.11,201.5c1.49,20.59-4.24,36.05,4.4,62.41-.74,7.66,2.81,8.26,3,10.75-5-4.48-5.62-1.63-5.19-3.17l-.19.44c-3.09,0-4.76,2.27-7.39-3.86,3.49-4.74.05-9.48-.38-14.21l-.63.34c3.86-23.81-6.3-30.47-6.18-59.64,5.87,1.47,9.58,2.38,12.55,6.94Z" transform="translate(-14.45 0)"/><path id="path2402-7-2-8-2-5-8" class="cls-6" d="M171.24,264.16c-4.72-2-9.85-.36-12.78-1.73" transform="translate(-14.45 0)"/><path id="path3186-0-9-1-4-4-3" class="cls-6" d="M166.25,212.94c-4,1.39-5.53-.91-6.05-5.37" transform="translate(-14.45 0)"/></g><g id="g3193-3-6-4-4-2-5"><path id="path3195-1-8-7-6-0-8" class="cls-6" d="M180.52,196.43c2.52,20.51.16,36.15,10.12,62.12-.35,7.69,2.8,8.26,3.12,10.74-4.59-.42-5.7-1.39-5.34-2.94l-.86.46c-3.08.15-2.22,2.15-5.16-3.86,3.25-4.88-.87-11.74-1.53-16.46l-1.9,1.83c2.65-23.95-7-28.93-8.32-58.07,5.94,1.21,6.68,1.75,9.87,6.18Z" transform="translate(-14.45 0)"/><path id="path3197-3-9-6-3-9-9" class="cls-6" d="M193,258.82c-4.81-1.76-9.86.06-12.85-1.19" transform="translate(-14.45 0)"/><path id="path3199-3-8-4-4-7-9" class="cls-6" d="M179.79,207.86c-3.94,1.56,0-.67-.72-5.1" transform="translate(-14.45 0)"/></g><path id="path3395-7-1-9-5-3-0" class="cls-6" d="M145.86,14.27c3.36.47,9.48,1.85,9.89,5.16.52,4.11,1,1.41,1.56,1.22,2.61-1,6.82,1.92,9,2.74,2.87,1.07,7.68,1.46,10.52,1.46,4.1,0,8.32-.82,8.06,3.25-.4,6.28-2.24,7.18.26,3.51,3.32-4.89,8.44-.51,8.83,3.27.24,2.36,4.39,3.22,5.59,6,1.41,3.29,9.54,4.52,5.58,5.71-6.18,1.86-3,6-.14,1.87,3-4.34,8.9,6.06,8.13,9.66-.71,3.28,4.22,5.59,6.2,7.44,2.83,2.62,7,6.15,6.13,10-.78,3.63,4.52,4.83,4.52,8,0,4.32,2.31,4.82,2.31,8.66,0,3.15-.31,6-.31,9.45,0,3.27-.42,12.49,1.33,11.17s4.43,7.45,2.85,11.12c-1.51,3.51-4,3.32-4,8.08,0,4-4.27,9.31-7.76,10.39-5.38,1.67-8.55,7.72-14.59,8.66-11.35,1.75-16.41,6.66-22.35,17-2.05,3.79-2.3,6.8-6.52,8.37-4,1.5-5.76,3.29-9.32,4.62s-7.52,2.26-11.17-.29a2.19,2.19,0,0,1-2.18-.58c-3.19-3-8.37-.45-8.37-7.48,0-3.59-1.55-6.28-1.55-9.23,0-3.17-6.7-1.34-3.37-3.78,5.7-4.18-.26-9.51-1-11.17-1-2.21-1.15-6.79-.31-8.74,1.29-3,.12-6.79.12-9.52,0-3.16-5-7.46-5.73-10.68-.32-1.52,2.47-3.51,1.86-6.35l-.31-1.44c-.1-.48,3-1,2.9-1.44-.77-3.57.35-5,.35-9a57.39,57.39,0,0,0-1.51-10.1c-.73-3.39-.32-6.93-1.06-10.39-.69-3.2-3.62-7.87-.17-8.23,4.63-.48,4.27-3.11-.35-4-3.44-.62,3.31-2.34,2.58-5.73a53.57,53.57,0,0,1-.76-11.67c0-3.36,2-8.26,3.2-11.11,1.4-3.27.63-7.61,2.08-11s2.21-7.13,3.82-10.1c1.21-2.27-6.9-2.55-4.87-4.91Z" transform="translate(-14.45 0)"/><g id="g3325-0-6-8-0-7-7"><path id="path3301-9-3-7-2-2-1" class="cls-7" d="M61.14,54.69c4.2,3.58,2.49,8-4.24,5.77-3.25-1.07-1.58,4.49-2.55,7.64-.8,2.56-2.33,7.52-3.93,9.81-2.34,3.34-1.29,3-4.93,5-2.85,1.53-4.82,5.54-3.82,8.22,1.25,3.36-1.13,6.79-1.89,10.84-1,5.55-.38,6.43-.38,9.16,0,10.57-5,4.55-.69,10.79.84,1.19,4,11.59-2.82,12.37-5.47.63.36,4.47-2.48,6.91-11.12,4.33-1.21,6-4.49,15.43-9.06,9.46-.83,9.79,3.9,8,7.1-2.61,10.23-1.32,10.53-.79,1.38,2.46-11.1,12.16-3.34,8.83l1.5-.64c2.72-1.17,4.93,3.44,8.1,5.14,3.47,1.86,7.15-3.87,7.49-6.43.52-3.88,1.8-7.27,1.8-11.25,0-5.76,2.7-11,2.7-16.72,0-9.5,1.58-16.52,3.29-25.73a111.56,111.56,0,0,0,1.2-17.36c0-4.91,1.39-7.43,3.3-12.54,1-2.75-.47-8.31-.9-11.58a38,38,0,0,0-3-10.93c-1.42-3-2.61-8.93-6.29-9-4.85-.09,6.22,1,1.94-1Z" transform="translate(-14.45 0)"/><path id="path3307-5-7-3-0-6-6" class="cls-7" d="M46,79.13c-1.62-2-2.35,4.12-2.92,5.61-.14.6-.27,1.19-.38,1.79" transform="translate(-14.45 0)"/><path id="path3309-5-5-8-1-0-5" class="cls-7" d="M40.31,93.6c-2.34,1.73-1.64,5.36-2.38,8-1.67,2.85,1.47,4.88,2.68,7.13" transform="translate(-14.45 0)"/><path id="path3311-8-4-6-6-1-8" class="cls-7" d="M35.22,111.61c-1.41,3.63,1.57,7.11,2.1,10.61" transform="translate(-14.45 0)"/><path id="path3313-3-1-2-9-6-9" class="cls-7" d="M35.82,140.22c-.64,2.89,2.13,5.22,2.17,8.11a10.38,10.38,0,0,0,1.42,1.54" transform="translate(-14.45 0)"/><path id="path3315-7-0-8-3-5-2" class="cls-7" d="M39.41,160.8c1.42,2,4,2.8,6,3.86" transform="translate(-14.45 0)"/><path id="path3317-8-1-0-7-7-5" class="cls-7" d="M30.12,147.62c.42,3,3.13,4.91,4.69,7.19a11.23,11.23,0,0,0,1.61.53" transform="translate(-14.45 0)"/></g><g id="g3209-3-2-9-9-5-7"><path id="path3211-7-2-8-1-4-2" class="cls-6" d="M87,203.57c4.27,20.26,2.4,36.16,14.56,61.31.31,7.69.92,4.78,1.46,7.23-4.62-.08-3.22,2-3,.47l-.52,2.2c-3.06.37-4,1-7.44-4.8,2.82-5.11-1.26-9.33-2.33-14l-.12-1.28c.59-24.08-13.42-27.5-17.26-56.46,6,.78,11.09,1.13,14.65,5.31Z" transform="translate(-14.45 0)"/><path id="path3213-9-8-0-5-1-7" class="cls-6" d="M103.84,264.74c-4.94-1.4-9.82.78-12.91-.24" transform="translate(-14.45 0)"/><path id="path3215-3-5-4-2-2-5" class="cls-6" d="M91.93,214.49c-3.79,1.85-5.6-.26-6.73-4.62" transform="translate(-14.45 0)"/></g><path id="path3269-9-4-9-4-0-2" class="cls-6" d="M119.91,116.61c-.84,1.59-2.79,3-2.79,4.82,0,3.61.61,8.25-.13,11.76s-1.39,5.2-1.93,8.79c-.57,3.78-3.18,1.91-2.64,11.91.19,3.3-5.2,4.84-5.16,8.25s-2.66,4.26-3.55,7.66-2.56,4.17-2.9,8.94c-.25,3.63-3.32,2.53-7.75,3.37-2.16.41-8.66,6.2-10.25,7.71s-2.65,6.24-7.14,6.24a9,9,0,0,1-8.72-5.5c-2.42-5.73-6.52-5.26-4.84-11.61.33-1.25.86-2.45,1.29-3.67,1.52-4.32,3.05-11.56,7.43-14.67,4.21-3,11-16.12,11-21.69,0-.28,4.46-17.12,5.49-18.34,3-3.53,7.33-4.77,11.3-7s7.26-2.45,11.62-2.45c5.45,0,7.55.77,9.69,5.5Z" transform="translate(-14.45 0)"/><g id="g3201-1-6-6-4-0-8"><path id="path3203-8-7-8-1-1-3" class="cls-6" d="M72.28,205.67c3.25,20.41-.71,35.75,10.17,61.4-.08,7.69,3.52,8.68,3.93,11.14-4.61-2.85-5.75-1.21-5.45-2.77l.15,1.76c-3.08.24-5.27,1.09-8.41-4.83,3.06-5-.35-9.24-1.18-13.93l-2.84-2.77c5.55-28.52-13.46-28.64-8.33-55,6,1,8.62.63,12,5Z" transform="translate(-14.45 0)"/><path id="path3205-2-7-2-3-4-0" class="cls-6" d="M85.2,267.77c-4.87-1.61-9.86.36-12.89-.79" transform="translate(-14.45 0)"/><path id="path3207-8-3-8-4-6-8" class="cls-6" d="M75.83,217.07c-3.88,1.68-5.59-.5-6.49-4.91" transform="translate(-14.45 0)"/></g><path id="path3217-0-4-4-6-0-9" class="cls-6" d="M119.13,113.41c.06,2.41-3.44,4.7-1.84,8.79,1.39,3.55-1.76,8.17-1.53,9.11.54,2.21-1.73,9-2.77,10.36-1.58,2-3,6.78-3.68,9.43-1.35,5.52-1.84,1.29-1.84,9.1,0,4.94-1.29,6.32-4.91,8.17-2.16,1.1-4.5,10.78-5.52,12.87-.65,1.33-5.27,1.4-7.06,6-1.23,3.13-7.07,2.2-8.9,3.14-2.44,1.25-5.87-3.65-9.51,4.08-2.06,4.36-2.1-6.92-5.81-9.2-4.72-2.9-9.66,2.7-11.69,1.67-1.73-.89,3.77-6.52,1.23-9.11s-6.78-5.19-3.68-9.42c2.36-3.22,1-5.72,0-9.74-1.38-5.67-2.54-4.91-1.53-10,1.17-6,1.57-1.48-1.23-7.22-3.68-7.53.3-5.57.3-11.31,0-3.34-3.27-10.47-4.6-13.18-.29-.61,3.86-7.39,2.46-11-1.58-4-.62-7.1-.62-11,0-4.43,3.8-6.44,2.46-11.93a11.42,11.42,0,0,1,2.76-10.36c1-1,11.82-5.74,11.82-6.3,0-.74,3.52-.3-1.76-3.37-2.68-1.56,2-3.16,4-4.75,3-2.29,3.08-8,6.05-11,2.51-2.57,5-6.19,7.32-8.56,3.58-3.67,1.4-5.39,7.06-8.87,3.63-2.23,6.46-9.4,8.62-6s5.19-.23,7.89-3c3.31-3.39,6.74,2.65,9.42-3.31,1.29-2.86,5.69-.75,7.41-1.95s-.75-4.69,1.21-3.89L112,62.07l6.93,49.59.24,1.75Z" transform="translate(-14.45 0)"/><path id="path3221-1-4-7-8-7-5" class="cls-6" d="M123.69,7.28c-2.78,1.34-8.47,2.8-7.13,5.88" transform="translate(-14.45 0)"/><path id="path3223-8-9-9-8-1-2" class="cls-6" d="M109.43,16.28c-2.35-.22-9,.53-9.37,2.07a16.5,16.5,0,0,1-1.88,2.43" transform="translate(-14.45 0)"/><path id="path3225-4-1-4-7-7-5" class="cls-6" d="M96.68,27c-.66,2.45-5.56,1.32-7.5,3.11-1.34,1.24-1.13,2-1.13,3.46" transform="translate(-14.45 0)"/><path id="path3227-8-8-0-0-7-7" class="cls-6" d="M85.8,25.28c-3.44,3.17-8.62.67-10.87,5.88" transform="translate(-14.45 0)"/><path id="path3229-6-3-7-3-7-8" class="cls-6" d="M59.92,44c-.47,1.08,5.78-1.89,10.88,0" transform="translate(-14.45 0)"/><path id="path3231-0-8-4-4-7-5" class="cls-6" d="M78.68,34.27c2.57.95-2.63,4.72-2.63,7.27,0,5.14-2.53,3.55-1.87,6.58" transform="translate(-14.45 0)"/><path id="path3233-9-7-8-4-3-6" class="cls-6" d="M64.05,50.2c0,2.2-4.18,2.52-5.25,4.49-2.09,3.86-4.13,6.23-.38,9.7" transform="translate(-14.45 0)"/><path id="path3235-3-9-1-6-3-0" class="cls-6" d="M61.42,66.81c-2.1,3.88-3.85.43-4.87,8" transform="translate(-14.45 0)"/><path id="path3237-0-7-8-7-5-5" class="cls-6" d="M51.67,72.35c-1.08,2-4.73,1.12-6,3.46" transform="translate(-14.45 0)"/><path id="path3239-0-1-2-1-9-3" class="cls-6" d="M59.17,81.69c-2.34,4.33-5.25,1.53-5.25,6.23A5.44,5.44,0,0,0,54.67,91" transform="translate(-14.45 0)"/><path id="path3241-8-1-2-8-9-5" class="cls-6" d="M43.8,92.42c0,2.08,3.74-5.07,9-8.31" transform="translate(-14.45 0)"/><path id="path3243-7-4-1-1-8-2" class="cls-6" d="M51.67,99.69s-6.86.86-8.25,7.27a6.37,6.37,0,0,0,0,1.38" transform="translate(-14.45 0)"/><path id="path3245-6-3-4-2-1-9" class="cls-6" d="M49.8,107.3c-.84,3.89-.86,5.1,3,8.66" transform="translate(-14.45 0)"/><path id="path3247-35-5-6-1-8-6" class="cls-6" d="M49.8,120.8c-.48,2.21-3.15,7.25,1.87,10.73" transform="translate(-14.45 0)"/><path id="path3249-6-2-6-2-2-0" class="cls-6" d="M58.05,129.45c-.48,2.21-4,4.06-1.13,7.62,1.7,2.09.41,1.86.75,3.46" transform="translate(-14.45 0)"/><path id="path3251-5-9-9-3-6-2" class="cls-6" d="M47.92,138.11c.64.79,1.43,7.78,3.38,10,.42.49,1.25.47,1.87.7" transform="translate(-14.45 0)"/><path id="path3253-8-1-3-1-6-0" class="cls-6" d="M56.17,150.57c.52.59,1.69,7.27,3.38,9.34" transform="translate(-14.45 0)"/><path id="path3255-3-5-8-1-0-8" class="cls-6" d="M53.55,164.41c.49.57.46,6.49,3.75,8.31" transform="translate(-14.45 0)"/><path id="path3257-9-5-1-1-3-3" class="cls-6" d="M54.67,185.18c0,.06,3.1,3.11,6.38,3.11" transform="translate(-14.45 0)"/><path id="path3259-4-6-3-0-8-0" class="cls-6" d="M59.18,193.82a24.58,24.58,0,0,0,8.63,6.23" transform="translate(-14.45 0)"/><path id="path3261-8-7-6-8-0-9" class="cls-6" d="M67.43,174.45c1.49,1.72-.32,4.6.75,6.57.45.84,1,1.62,1.5,2.43s1,1.38,1.5,2.07" transform="translate(-14.45 0)"/><path id="path3263-3-9-4-9-1-4" class="cls-6" d="M82.8,185.52c.9,1.45,7.55-5.46,7.88-6.23" transform="translate(-14.45 0)"/><path id="path3265-9-0-5-1-2-5" class="cls-6" d="M98.56,173.41c1.73,2.8,6.78-8.91,7.12-9.69a4.38,4.38,0,0,0,0-1.73" transform="translate(-14.45 0)"/><path id="path3267-76-2-2-0-5-9" class="cls-6" d="M115.81,129.11c.29-.67.58,2.72-3,9.34-.63,1.16-3,.08-4.13-.69" transform="translate(-14.45 0)"/><path id="path2396-4-3-2-9-0-8" class="cls-6" d="M147.61,0c-4,.43-1.8,3.7-8.47,0-25.62,31.25-12.89,103.24-4.8,118l.14-3.46c.5-2.37-.86-1.33,3.54-2.8C123.2,68.56,135.17,16.34,147.61,0Z" transform="translate(-14.45 0)"/><path id="path3360-5-1-0-7-9-6" class="cls-6" d="M237,145.29c1,14.6-8.05,17.88-11.49,25.21S211.79,186.82,211.91,196c-4.49,1.66-8,4.91-9,2.45-3.88-.33-.11-1.85-1-3.75-1.28-3-1.53-8.14-.6-12.16.61-7.22-14.84-12.51-12.35-37.67l4.66-15.37" transform="translate(-14.45 0)"/><path id="path3362-8-9-1-7-4-2" class="cls-6" d="M220,163.07c1,1.2.68,4.31-1.46,3.87-1.68-1-1.55-3.17-1.66-4.83,0-2-.34-4.23-2.15-5.55.79.18,5.24,4.92,5.27,6.51Z" transform="translate(-14.45 0)"/><path id="path3371-6-8-0-4-7-2" class="cls-6" d="M196.74,158.59c-.77,6.6.8,11.75,7.93,13.49" transform="translate(-14.45 0)"/><path id="path3373-1-7-3-5-8-4" class="cls-6" d="M215.83,180.32a20.31,20.31,0,0,0-1.24,11.44" transform="translate(-14.45 0)"/><path id="path3375-5-8-8-1-3-2" class="cls-6" d="M202.69,196.33a74.77,74.77,0,0,0-1.49,12.58" transform="translate(-14.45 0)"/><path id="path3377-5-4-7-6-5-6" class="cls-6" d="M208.14,203.42c-.88,3.08-.92,5.53,1.49,6.18" transform="translate(-14.45 0)"/><path id="path3399-1-4-3-7-1-1" class="cls-6" d="M152.75,9.44c.35-.65,7.62,1.15,9.39,2.78" transform="translate(-14.45 0)"/><path id="path7617-9-4-3-8-2-3" class="cls-6" d="M175.28,15c.8-1.47,9.32,2.94,10.9,3.81" transform="translate(-14.45 0)"/><path id="path3403-6-3-1-3-0-4" class="cls-6" d="M189.18,17.76c2.55,1.41,5.83-.42,7.51,3.47" transform="translate(-14.45 0)"/><path id="path3405-4-5-4-9-1-3" class="cls-6" d="M203.08,29.55c2.41,1.33,7.46,7.33,9.39,11.78" transform="translate(-14.45 0)"/><path id="path3407-5-8-5-3-6-3" class="cls-6" d="M227.87,58c1.47,3.39-4.6-7.64,1.88,3.12" transform="translate(-14.45 0)"/><path id="path3409-4-0-6-1-4-6" class="cls-6" d="M232,66.28c.4.93,4.8,11.72,7.89,14.56" transform="translate(-14.45 0)"/><path id="path3411-2-2-1-3-0-0" class="cls-6" d="M193.69,69.06c1,2.29,3,6.82,3,11.44,0,4.36,1.13,8.35,1.13,13.17,0,3.07-.87,9.47-3,11.43-.47.43-1.88,11-1.88,11.44" transform="translate(-14.45 0)"/><path id="path3413-5-9-2-9-6-2" class="cls-6" d="M189.93,78.07c-2.21,2,1,5.83.38,8.66" transform="translate(-14.45 0)"/><path id="path3415-3-4-1-6-1-2" class="cls-6" d="M186.18,97.13c-.06.06-1.66,6.18-2.63,8" transform="translate(-14.45 0)"/><path id="path3417-2-9-9-3-8-6" class="cls-6" d="M146.74,102.68c-.72.66,4.61,11.18,6.38,12.82" transform="translate(-14.45 0)"/><path id="path3419-6-8-1-7-9-5" class="cls-6" d="M141.86,128c-.48.44,1.25.46,1.87.69.1,0-1.47,6.65,0,10.05.24.54,1,.7,1.51,1" transform="translate(-14.45 0)"/><path id="path3421-8-3-8-5-8-3" class="cls-6" d="M143.36,149.47c1.11,2.57-2.2,7.67,3,12.47.62.58,0,1.62,0,2.43" transform="translate(-14.45 0)"/><path id="path3423-2-5-0-2-4-3" class="cls-6" d="M138.85,165.76c3.2,3,3.84,8.29,7.89,11.09" transform="translate(-14.45 0)"/><path id="path3425-6-0-4-0-1-8" class="cls-6" d="M187.3,166.45c1.21,1.12-.67,8-1.5,11.09-1.56,5.75-3.38,4.53-3.38,10.4,0,5.11-6.89,6-7.89,9.7-.82,3-3.51,3.18-5.63,4.16" transform="translate(-14.45 0)"/><path id="path3427-6-4-7-7-4-9" class="cls-6" d="M177.91,169.22c-.91,3.38,5,7.64-1.5,10.05" transform="translate(-14.45 0)"/><path id="path3429-3-3-7-1-3-9" class="cls-6" d="M179.42,149.81c-.85.32,1.21,8.92-3.76,11.79-.64.37-1.21,2-1.5,2.42" transform="translate(-14.45 0)"/><path id="path3431-9-5-4-7-9-9" class="cls-6" d="M161,192.79c-4.71,2.72-8.15-3.72-9.39-6.58-.53-1.24-.61-2.27-1.12-3.47" transform="translate(-14.45 0)"/><path id="path3433-4-2-1-0-8-9" class="cls-6" d="M143.73,187.25c-.37-.88,2.71,3.26,4.51,6.58" transform="translate(-14.45 0)"/><path id="path3381-6-7-9-7-8-8" class="cls-6" d="M198,117.41c-14.71-4-14.56,5.12-13.63,10.29,1.23,4.14,1.7,6.58,7.43,4.81,2.13-4.23,1.53-11.12-5.95-11.44" transform="translate(-14.45 0)"/><path id="path3383-2-7-8-1-0-0" class="cls-6" d="M225.64,121.51c-1.29,0-3.88-1.07-6,.9-1.88,1.75.33,2.39-2.9,3.59a23.09,23.09,0,0,0-1,5.4c0,2.62-1.22,2.79-1.74,5.21-.07.3-.13.6-.2.9s2.7,4.06,4.06,4.32c.07,0,1,2.81,2.71,3.77,2,1.12,3.12,4.28,4.83,4.68,2,.47,4.74.41,6.38.72,2.08.38,2.57-2.38,5-2.05,3.19.42,11.32.84,8.34-.47-1.53-.68,4.39-2.86,2.15-5.22-1-1,4.2-2.91,4.2-6.65,0-4.2-1.14-5.05-4.28-8-2.67-2.48.85-10.52-2.28-10.34-3.4.2-3-1.62-3.83-3.84-1.27-3.55.19-7.58-2.92-6.43-3.76,1.39-.13-.6-.19-.9" transform="translate(-14.45 0)"/><path id="path3385-5-7-1-7-8-6" class="cls-6" d="M228.72,125.64c-.59-2.73-2.73,3.9-2.73,5" transform="translate(-14.45 0)"/><path id="path3387-3-4-0-5-7-6" class="cls-6" d="M223.76,133a4.58,4.58,0,0,0-.74,2.29c0,1,3,3.94,3.22,4.35" transform="translate(-14.45 0)"/><path id="path3389-5-4-3-4-7-1" class="cls-6" d="M225.74,145.09c0,1.36,4.49,3.9,6.95,4.8,1.57.58,1.74.45,2.47-.45" transform="translate(-14.45 0)"/><path id="path3391-6-0-2-8-8-3" class="cls-6" d="M254.25,134.79c2.57,1,.6,5.22-2,6.41" transform="translate(-14.45 0)"/><path id="path3393-6-4-5-1-3-5" class="cls-6" d="M249.54,108.72c-1.87.86,1.58,3.6,2,5.49.72,3.34-1.81,5.56-.75,8" transform="translate(-14.45 0)"/><g id="g3435-2-4-8-3"><path id="path3221-1-4-3-7" class="cls-8" d="M123,9.83c-2.78,1.34-8.46,2.81-7.12,5.88" transform="translate(-14.45 0)"/><path id="path3223-8-9-7-7" class="cls-8" d="M108.72,18.83c-2.36-.21-9,.54-9.38,2.08a15.71,15.71,0,0,1-1.87,2.42" transform="translate(-14.45 0)"/><path id="path3225-4-1-1-2" class="cls-8" d="M96,29.56c-.67,2.45-5.56,1.32-7.5,3.11-1.34,1.24-1.13,2-1.13,3.46" transform="translate(-14.45 0)"/><path id="path3227-8-8-07-4" class="cls-8" d="M85.09,27.83c-3.44,3.18-8.62.67-10.88,5.88" transform="translate(-14.45 0)"/><path id="path3229-6-3-3-1" class="cls-8" d="M59.21,46.52c-.47,1.08,5.78-1.89,10.88,0" transform="translate(-14.45 0)"/><path id="path3231-0-8-49-2" class="cls-8" d="M78,36.83c2.57.94-2.62,4.71-2.62,7.26,0,5.14-2.53,3.55-1.88,6.58" transform="translate(-14.45 0)"/><path id="path3233-9-7-6-9" class="cls-8" d="M63.34,52.75c0,2.2-4.19,2.53-5.25,4.5C56,61.1,54,63.47,57.71,66.94" transform="translate(-14.45 0)"/><path id="path3235-3-9-5-5" class="cls-8" d="M60.71,69.36c-2.1,3.88-3.85.43-4.87,8" transform="translate(-14.45 0)"/><path id="path3237-0-7-1-8" class="cls-8" d="M51,74.9c-1.09,2-4.73,1.12-6,3.46" transform="translate(-14.45 0)"/><path id="path3239-0-1-0-9" class="cls-8" d="M58.46,84.24c-2.35,4.33-5.25,1.54-5.25,6.23A5.35,5.35,0,0,0,54,93.59" transform="translate(-14.45 0)"/><path id="path3241-8-1-9-9" class="cls-8" d="M43.08,95c0,2.08,3.75-5.07,9-8.3" transform="translate(-14.45 0)"/><path id="path3243-7-4-9-0" class="cls-8" d="M51,102.24s-6.86.86-8.25,7.27a6.37,6.37,0,0,0,0,1.38" transform="translate(-14.45 0)"/><path id="path3245-6-3-6-4" class="cls-8" d="M49.08,109.86c-.84,3.88-.85,5.09,3,8.65" transform="translate(-14.45 0)"/><path id="path3247-35-5-65-8-6" class="cls-8" d="M49.08,123.35c-.47,2.21-3.14,7.26,1.88,10.73" transform="translate(-14.45 0)"/><path id="path3249-6-2-3-1" class="cls-8" d="M57.34,132c-.48,2.21-4,4.05-1.13,7.61,1.7,2.09.4,1.86.75,3.46" transform="translate(-14.45 0)"/><path id="path3251-5-9-4-1" class="cls-8" d="M47.21,140.66c.64.79,1.42,7.79,3.37,10,.43.48,1.26.46,1.88.69" transform="translate(-14.45 0)"/><path id="path3253-8-1-0-8-5" class="cls-8" d="M55.46,153.12c.51.59,1.69,7.27,3.38,9.34" transform="translate(-14.45 0)"/><path id="path3255-3-5-4-1" class="cls-8" d="M52.84,167c.49.57.45,6.49,3.75,8.31" transform="translate(-14.45 0)"/><path id="path3257-9-5-9-7" class="cls-8" d="M54,187.73c0,.06,3.1,3.12,6.38,3.12" transform="translate(-14.45 0)"/><path id="path3259-4-6-9-8" class="cls-8" d="M58.47,196.38a24.87,24.87,0,0,0,8.62,6.23" transform="translate(-14.45 0)"/><path id="path3261-8-7-2-5" class="cls-8" d="M66.71,177c1.49,1.72-.32,4.61.75,6.58.45.83,1,1.61,1.5,2.42s1,1.38,1.5,2.08" transform="translate(-14.45 0)"/><path id="path3263-3-9-5-6" class="cls-8" d="M82.09,188.08c.9,1.45,7.55-5.47,7.88-6.23" transform="translate(-14.45 0)"/><path id="path3265-9-0-53-8" class="cls-8" d="M97.84,176c1.74,2.8,6.79-8.91,7.13-9.69.23-.53,0-1.15,0-1.73" transform="translate(-14.45 0)"/><path id="path3267-76-2-3-9" class="cls-8" d="M115.1,131.66c.29-.67.58,2.73-3,9.35-.63,1.15-3,.08-4.13-.7" transform="translate(-14.45 0)"/><path id="path3360-5-1-3-6" class="cls-8" d="M243.87,150.39c1.18,17-8.55,20.76-12.39,29.28s-7.1,24-18.6,31.79c-5,1.93-9.78,3.56-10.9.69-4.33-.38-6.15-2.15-7.19-4.35-1.43-3.53.44-8.59,1.49-13.26.68-8.39-12.7-15.39-9.92-44.61l5.21-17.84" transform="translate(-14.45 0)"/><path id="path3362-8-9-9-7-5" class="cls-8" d="M219.27,165.62c1,1.21.68,4.31-1.46,3.87-1.68-1-1.56-3.17-1.66-4.83,0-2-.34-4.23-2.15-5.55.78.18,5.24,4.92,5.27,6.51Z" transform="translate(-14.45 0)"/><path id="path3371-6-8-4-1" class="cls-8" d="M196,161.14c-.78,6.6.8,11.75,7.93,13.49" transform="translate(-14.45 0)"/><path id="path3373-1-7-38-4" class="cls-8" d="M215.12,182.87a20.23,20.23,0,0,0-1.24,11.44" transform="translate(-14.45 0)"/><path id="path3375-5-8-0-4" class="cls-8" d="M202,198.88a74.89,74.89,0,0,0-1.49,12.58" transform="translate(-14.45 0)"/><path id="path3377-5-4-8-0" class="cls-8" d="M207.43,206c-.88,3.08-.92,5.53,1.49,6.18" transform="translate(-14.45 0)"/><path id="path3399-1-4-0-8-0" class="cls-9" d="M152,12c.35-.66,7.62,1.14,9.39,2.77" transform="translate(-14.45 0)"/><path id="path7617-9-4-0-5" class="cls-9" d="M174.57,17.54c.8-1.47,9.31,2.94,10.89,3.81" transform="translate(-14.45 0)"/><path id="path3403-6-3-6-8" class="cls-9" d="M188.47,20.31c2.54,1.41,5.82-.42,7.51,3.47" transform="translate(-14.45 0)"/><path id="path3405-4-5-8-1" class="cls-9" d="M202.37,32.1c2.41,1.33,7.46,7.34,9.39,11.78" transform="translate(-14.45 0)"/><path id="path3407-5-8-1-6" class="cls-9" d="M227.15,60.52c1.48,3.4-4.59-7.64,1.88,3.12" transform="translate(-14.45 0)"/><path id="path3409-4-0-9-0" class="cls-9" d="M231.29,68.84c.4.92,4.8,11.71,7.88,14.55" transform="translate(-14.45 0)"/><path id="path3411-2-2-0-8-1" class="cls-9" d="M193,71.61c1,2.29,3,6.82,3,11.44,0,4.37,1.13,8.36,1.13,13.17,0,3.07-.88,9.47-3,11.44-.46.43-1.88,11-1.88,11.43" transform="translate(-14.45 0)"/><path id="path3413-5-9-9-4" class="cls-9" d="M189.22,80.62c-2.21,2,1,5.83.38,8.67" transform="translate(-14.45 0)"/><path id="path3415-3-4-7-4" class="cls-9" d="M185.46,99.68c-.06.06-1.66,6.19-2.62,8" transform="translate(-14.45 0)"/><path id="path3417-2-9-2-3" class="cls-9" d="M146,105.23c-.72.66,4.61,11.19,6.38,12.82" transform="translate(-14.45 0)"/><path id="path3419-6-8-2-9" class="cls-9" d="M141.14,130.53c-.47.44,1.26.46,1.88.69.1,0-1.47,6.65,0,10.06.23.53,1,.69,1.5,1" transform="translate(-14.45 0)"/><path id="path3421-8-3-82-6" class="cls-9" d="M142.65,152c1.11,2.57-2.2,7.67,3,12.48.62.57,0,1.61,0,2.42" transform="translate(-14.45 0)"/><path id="path3423-2-5-6-8-3" class="cls-9" d="M138.14,168.31c3.2,2.95,3.84,8.29,7.89,11.09" transform="translate(-14.45 0)"/><path id="path3425-6-0-9-0" class="cls-9" d="M186.59,169c1.21,1.12-.68,8-1.5,11.09-1.56,5.75-3.38,4.53-3.38,10.4,0,5.11-6.89,6-7.89,9.71-.82,3-3.51,3.18-5.63,4.16" transform="translate(-14.45 0)"/><path id="path3427-6-4-0-6" class="cls-9" d="M177.2,171.78c-.91,3.38,5,7.63-1.5,10.05" transform="translate(-14.45 0)"/><path id="path3429-3-3-78-0" class="cls-9" d="M178.7,152.37c-.84.31,1.22,8.91-3.75,11.78-.64.37-1.21,1.95-1.5,2.43" transform="translate(-14.45 0)"/><path id="path3431-9-5-1-2" class="cls-9" d="M160.3,195.34c-4.71,2.72-8.15-3.72-9.39-6.58-.54-1.24-.61-2.27-1.13-3.47" transform="translate(-14.45 0)"/><path id="path3433-4-2-5-2" class="cls-9" d="M143,189.8c-.38-.87,2.71,3.27,4.51,6.58" transform="translate(-14.45 0)"/><path id="path3379-5-5-8-3" class="cls-8" d="M222.12,121.06c-7.46-12.94-14-17.13-34.52-14.41-17.13,6.15-23.75,17-15.12,34.77,11.16,22,32.79,7,32.22-3s-1.12-10.7-7.43-16.93a27.14,27.14,0,0,1,14.62,19.21" transform="translate(-14.45 0)"/><path id="path3383-2-7-6-2" class="cls-8" d="M228.25,121.33c-1.64,0-5-1.35-7.68,1.15-2.41,2.23.41,3-3.72,4.57a28.72,28.72,0,0,0-1.24,6.87c0,3.34-1.56,3.55-2.23,6.63-.08.38-.16.76-.25,1.14-.12.57,3.47,5.17,5.21,5.49.08,0,1.26,3.59,3.47,4.81,2.56,1.42,4,5.44,6.2,5.95,2.58.59,6.08.52,8.18.91,2.66.49,6.3-.87,9.42-.46,4.08.54,3.52-2.74,7.68-2.74,1.48,0,6.2-4.26,6.2-6.64s5-3.7,5-8.46c0-5.34,1.55-7.72-2.48-11.44-3.43-3.16-3.17-7.56-4.22-11.44,0-.17-5.17-3.35-6.19-6.17-1.64-4.52-6.29-3.17-7.19-7.32-.09-.38-.17-.77-.25-1.15" transform="translate(-14.45 0)"/><path id="path3385-5-7-12-8" class="cls-8" d="M228,128.2c-.6-2.74-2.73,3.89-2.73,5" transform="translate(-14.45 0)"/><path id="path3387-3-4-4-8" class="cls-8" d="M223.05,135.52a4.44,4.44,0,0,0-.75,2.28c0,1,3,3.95,3.23,4.35" transform="translate(-14.45 0)"/><path id="path3389-5-4-2-2" class="cls-8" d="M225,147.64c0,1.37,4.49,3.9,6.94,4.81,1.58.58,1.75.44,2.48-.46" transform="translate(-14.45 0)"/><path id="path3391-6-0-5-1" class="cls-8" d="M253.54,137.35c2.57,1,.6,5.21-2,6.4" transform="translate(-14.45 0)"/><path id="path3393-6-4-8-6" class="cls-8" d="M248.83,111.27c-1.87.86,1.57,3.6,2,5.49.73,3.34-1.8,5.56-.74,8" transform="translate(-14.45 0)"/></g><path id="path3379-5-5-1-6-6-8" class="cls-10" d="M224.29,127.62c-7.46-12.94-16.67-23.77-37.19-21.05-17.13,6.16-23.75,17-15.12,34.77,11.17,22,32.79,7,32.23-3s-1.12-10.69-7.44-16.93a27.17,27.17,0,0,1,14.63,19.22" transform="translate(-14.45 0)"/><path id="path3379-5-7-2-4" class="cls-8" d="M225.62,126.29c-7.46-12.93-16.68-23.77-37.19-21-17.13,6.15-23.75,17-15.12,34.77,11.17,22,32.79,7,32.23-3s-1.12-10.69-7.44-16.93a27.17,27.17,0,0,1,14.63,19.22" transform="translate(-14.45 0)"/><path id="path3381-6-7-6-1" class="cls-8" d="M199.25,120.75c-14.71-4-14.56,5.12-13.64,10.29,1.24,4.14,1.71,6.58,7.44,4.8,2.13-4.23,1.53-11.11-6-11.43" transform="translate(-14.45 0)"/></g></g></svg>